<?xml version="1.0" encoding="UTF-8"?>
<svg id="Camada_2" data-name="Camada 2" xmlns="http://www.w3.org/2000/svg" xmlns:xlink="http://www.w3.org/1999/xlink" viewBox="0 0 87 87">
  <defs>
    <style>
      .cls-1 {
        fill: #fff;
        stroke: url(#Gradiente_sem_nome_6);
        stroke-miterlimit: 10;
        stroke-width: 2px;
      }

      .cls-2 {
        fill: url(#Gradiente_sem_nome_6-2);
        stroke-width: 0px;
      }
    </style>
    <linearGradient id="Gradiente_sem_nome_6" data-name="Gradiente sem nome 6" x1="0" y1="43.5" x2="87" y2="43.5" gradientUnits="userSpaceOnUse">
      <stop offset="0" stop-color="#5c000f"/>
      <stop offset=".16" stop-color="#60030e"/>
      <stop offset=".33" stop-color="#6c0d0d"/>
      <stop offset=".5" stop-color="#801f0b"/>
      <stop offset=".66" stop-color="#9c3708"/>
      <stop offset=".83" stop-color="#c15604"/>
      <stop offset="1" stop-color="#ed7c00"/>
      <stop offset="1" stop-color="#ee7d00"/>
    </linearGradient>
    <linearGradient id="Gradiente_sem_nome_6-2" data-name="Gradiente sem nome 6" x1="20.46" y1="43.5" x2="66.75" y2="43.5" xlink:href="#Gradiente_sem_nome_6"/>
  </defs>
  <g id="Camada_1-2" data-name="Camada 1">
    <g>
      <circle id="Elipse_21" data-name="Elipse 21" class="cls-1" cx="43.5" cy="43.5" r="42.5"/>
      <path id="Grupo_385" data-name="Grupo 385" class="cls-2" d="M49.2,55.45c-9.68,0-17.55-7.87-17.55-17.55s7.87-17.55,17.55-17.55,17.55,7.87,17.55,17.55-7.87,17.55-17.55,17.55ZM49.2,25.12c-7.05,0-12.79,5.74-12.79,12.79s5.74,12.79,12.79,12.79,12.79-5.74,12.79-12.79-5.74-12.79-12.79-12.79ZM33.45,48.94l-12.02,12.02c-1.3,1.3-1.3,3.41,0,4.71h0c1.3,1.3,3.41,1.3,4.71,0l12.02-12.02h0l-4.71-4.71h0ZM60.72,38.7c0-6.79-5.53-12.32-12.32-12.32-.88,0-1.59.71-1.59,1.59s.71,1.59,1.59,1.59c5.04,0,9.14,4.1,9.14,9.14,0,.88.71,1.59,1.59,1.59s1.59-.71,1.59-1.59Z"/>
    </g>
  </g>
</svg>