<?xml version="1.0" encoding="UTF-8"?>
<svg xmlns="http://www.w3.org/2000/svg" xmlns:xlink="http://www.w3.org/1999/xlink" viewBox="0 0 183.57 179.62">
  <defs>
    <style>
      .cls-1 {
        fill: #f0eeeb;
      }

      .cls-2 {
        fill: #e49688;
        opacity: .74;
      }

      .cls-3 {
        fill: #f3d2cb;
        opacity: .32;
      }

      .cls-4 {
        fill: #eaada2;
        opacity: .58;
      }

      .cls-5 {
        fill: #f09245;
      }

      .cls-6 {
        fill: #edebec;
      }

      .cls-7 {
        clip-path: url(#clippath-4);
      }

      .cls-8 {
        fill: #f0c4bb;
        opacity: .42;
      }

      .cls-9 {
        fill: #b1b1b1;
      }

      .cls-10 {
        fill: #493630;
      }

      .cls-11 {
        fill: #4d4d4d;
      }

      .cls-12 {
        fill: #b7a586;
      }

      .cls-13, .cls-14, .cls-15 {
        fill: #fff;
      }

      .cls-16 {
        fill: #e38639;
      }

      .cls-17 {
        fill: #f5d6d0;
        opacity: .29;
      }

      .cls-18 {
        fill: #e59b8d;
        opacity: .71;
      }

      .cls-19 {
        fill: #dd7b68;
        opacity: .94;
      }

      .cls-20 {
        fill: #f6dbd5;
        opacity: .26;
      }

      .cls-21 {
        fill: #262626;
      }

      .cls-22 {
        fill: none;
      }

      .cls-23 {
        fill: #006a31;
      }

      .cls-24 {
        fill: #faedea;
        opacity: .13;
      }

      .cls-25 {
        fill: #f1c8c1;
        opacity: .39;
      }

      .cls-26 {
        fill: #f2cdc6;
        opacity: .35;
      }

      .cls-27 {
        fill: #ffd336;
      }

      .cls-28 {
        fill: #a76644;
      }

      .cls-29 {
        fill: #ecb6ac;
        opacity: .52;
      }

      .cls-14 {
        opacity: 0;
      }

      .cls-30 {
        fill: #e3e3e3;
      }

      .cls-31 {
        fill: #2b5a74;
      }

      .cls-32 {
        fill: #332f33;
      }

      .cls-33 {
        fill: #c36e1d;
      }

      .cls-34 {
        isolation: isolate;
      }

      .cls-35 {
        fill: #efbfb6;
        opacity: .45;
      }

      .cls-15 {
        opacity: .59;
      }

      .cls-36 {
        fill: #bf6202;
      }

      .cls-37 {
        fill: #db725e;
      }

      .cls-38 {
        opacity: .43;
      }

      .cls-38, .cls-39 {
        fill: gray;
      }

      .cls-38, .cls-40 {
        mix-blend-mode: multiply;
      }

      .cls-41 {
        fill: #dc7763;
        opacity: .97;
      }

      .cls-42 {
        opacity: .2;
      }

      .cls-43 {
        fill: #f9e8e5;
        opacity: .16;
      }

      .cls-44 {
        fill: #8e4627;
      }

      .cls-45 {
        fill: #c7c7c8;
      }

      .cls-46 {
        fill: #a8957b;
      }

      .cls-47 {
        fill: #e18978;
        opacity: .84;
      }

      .cls-48 {
        fill: #211920;
      }

      .cls-49 {
        fill: #528c9b;
      }

      .cls-50 {
        fill: #e08473;
        opacity: .87;
      }

      .cls-51 {
        fill: #fefafa;
        opacity: .03;
      }

      .cls-52 {
        fill: #fdf6f5;
        opacity: .06;
      }

      .cls-53 {
        fill: #979797;
      }

      .cls-54 {
        clip-path: url(#clippath-2);
      }

      .cls-55 {
        fill: #79361e;
      }

      .cls-56 {
        fill: #e39282;
        opacity: .77;
      }

      .cls-57 {
        fill: #2d2220;
      }

      .cls-58 {
        fill: #5c000f;
      }

      .cls-59 {
        fill: #e28d7d;
        opacity: .81;
      }

      .cls-60 {
        fill: #de806e;
        opacity: .9;
      }

      .cls-61 {
        fill: #f8e4e0;
        opacity: .19;
      }

      .cls-62 {
        fill: #722626;
      }

      .cls-63 {
        fill: #f7dfdb;
        opacity: .23;
      }

      .cls-64 {
        fill: #e9a99c;
        opacity: .61;
      }

      .cls-65 {
        fill: #ee7d00;
      }

      .cls-66 {
        fill: #e8a497;
        opacity: .65;
      }

      .cls-67 {
        fill: #ebb2a7;
        opacity: .55;
      }

      .cls-68 {
        fill: #fcf1ef;
        opacity: .1;
      }

      .cls-69 {
        clip-path: url(#clippath);
      }

      .cls-70 {
        fill: #e79f92;
        opacity: .68;
      }

      .cls-40 {
        opacity: .19;
      }

      .cls-71 {
        fill: #eebbb1;
        opacity: .48;
      }
    </style>
    <clipPath id="clippath">
      <path class="cls-22" d="M49.44,179.62h132.13V-.73H-2v103l19.32,13.31c0,19.04-7.04,64.04,32.13,64.04Z"/>
    </clipPath>
    <clipPath id="clippath-2">
      <path class="cls-22" d="M64.9,37.41c-3.97.04-7.94.09-11.91.15-6.11.09-11.43,3.84-13.09,9.2-.07.24-.15.48-.22.72-.87,2.81-2.77,5.27-5.38,6.95-2.51,1.62-5.02,3.25-7.53,4.87-5.65,3.67-9.04,9.61-9.13,15.96h0c-.06,4.12,1.26,8.16,3.77,11.55,4.92,6.63,9.8,13.26,14.65,19.92,6.22,8.54,6.27,19.75.28,28.42h0c-3.7,5.36-5.12,11.82-4.03,18.13,2.87,16.61,5.69,33.23,8.46,49.85,28.69-.57,57.39-.67,86.08-.32-3.3-18.86-6.68-37.72-10.12-56.57-.88-4.78-3.17-9.23-6.63-12.82-1.24-1.29-2.48-2.57-3.73-3.86-5.86-6.06-8.35-14.38-6.61-22.42,1.84-6.66,3.69-13.33,5.56-19.99,3.01-7.91,1.94-14.47,1.94-14.47-2.38-9.05-11.31-16.2-20.6-19.97-.37-.15-.73-.3-1.1-.45-2.58-1.05-4.75-2.8-6.22-5.01-.84-1.27-1.68-2.53-2.52-3.8-2.52-3.79-7.05-6.09-11.92-6.04Z"/>
    </clipPath>
    <clipPath id="clippath-4">
      <path class="cls-22" d="M101.43,11.02l-14.05-1.88-8.56,4-6,7.65,4.94,14.13.4,7.73-2.02,10.95-4.92,1.53-6.28-.31-5.84-3.11-2.81-8.61v-13.89l2.1-12.83,6.03-7.25,11.89-6.88h14.59l11.64,3.75,8.4,5.44.74,13.85s-3.01,8.91-2.79,7.04c1.92-16.27-7.46-21.32-7.46-21.32Z"/>
    </clipPath>
  </defs>
  <g class="cls-34">
    <g id="Camada_1" data-name="Camada 1">
      <g class="cls-69">
        <g id="character_sit" data-name="character sit">
          <g>
            <g>
              <path class="cls-32" d="M100.56,155.77c1.81-1.35,3.63-2.7,5.45-4.05,0-.04,0-.09,0-.13,0,0,.32-.22.93-.56,0,0,0,0,.01,0h0c4.8-2.72,29.58-14.27,72.89,5.26-.06,2.04-.13,4.08-.19,6.11-1.83.64-3.65,1.28-5.48,1.93.02-.7.04-1.4.06-2.09-22.75-.67-45.51-1.05-68.26-1.16-1.8-1.77-3.6-3.54-5.41-5.31Z"/>
              <path class="cls-48" d="M137.44,199.25c-1.84-13.95-3.72-27.9-5.62-41.84,3.98.06,7.96.12,11.94.19-.25,13.91-.51,27.83-.76,41.74-1.85-.03-3.7-.07-5.55-.1Z"/>
              <path class="cls-48" d="M100.57,153.67c-.13.07,24.98-17.32,73.78,4.54-.06,2.04-.12,4.08-.18,6.12-24.54-.72-49.08-1.11-73.62-1.17,0-3.16.02-6.32.02-9.48Z"/>
            </g>
            <g>
              <path class="cls-11" d="M52.38,37.57c-3.97.06-7.94.12-11.91.2-6.11.11-11.42,3.89-13.05,9.26-.07.24-.15.48-.22.73-.86,2.82-2.75,5.28-5.35,6.98-2.51,1.63-5.01,3.27-7.51,4.91-5.64,3.7-9,9.65-9.06,16h0c-.05,4.12,1.3,8.15,3.83,11.53,4.94,6.6,9.86,13.22,14.73,19.85,6.26,8.51,6.36,19.73.41,28.42h0c-3.68,5.37-5.07,11.85-3.96,18.14,2.94,16.6,5.83,33.21,8.68,49.82,28.69-.69,57.39-.92,86.08-.7-3.38-18.85-6.84-37.69-10.37-56.52-.9-4.78-3.21-9.22-6.69-12.8-1.25-1.28-2.5-2.56-3.75-3.84-5.89-6.03-8.41-14.35-6.71-22.39,1.81-6.67,3.64-13.34,5.47-20.01,2.97-7.92,1.88-14.48,1.88-14.48-2.42-9.04-11.38-16.15-20.68-19.88-.37-.15-.73-.29-1.1-.44-2.59-1.04-4.77-2.78-6.24-4.99-.85-1.26-1.69-2.53-2.54-3.79-2.54-3.78-7.08-6.06-11.94-5.99Z"/>
              <path class="cls-39" d="M64.9,37.41c-3.97.04-7.94.09-11.91.15-6.11.09-11.43,3.84-13.09,9.2-.07.24-.15.48-.22.72-.87,2.81-2.77,5.27-5.38,6.95-2.51,1.62-5.02,3.25-7.53,4.87-5.65,3.67-9.04,9.61-9.13,15.96h0c-.06,4.12,1.26,8.16,3.77,11.55,4.92,6.63,9.8,13.26,14.65,19.92,6.22,8.54,6.27,19.75.28,28.42h0c-3.7,5.36-5.12,11.82-4.03,18.13,2.87,16.61,5.69,33.23,8.46,49.85,28.69-.57,57.39-.67,86.08-.32-3.3-18.86-6.68-37.72-10.12-56.57-.88-4.78-3.17-9.23-6.63-12.82-1.24-1.29-2.48-2.57-3.73-3.86-5.86-6.06-8.35-14.38-6.61-22.42,1.84-6.66,3.69-13.33,5.56-19.99,3.01-7.91,1.94-14.47,1.94-14.47-2.38-9.05-11.31-16.2-20.6-19.97-.37-.15-.73-.3-1.1-.45-2.58-1.05-4.75-2.8-6.22-5.01-.84-1.27-1.68-2.53-2.52-3.8-2.52-3.79-7.05-6.09-11.92-6.04Z"/>
              <g class="cls-54">
                <path class="cls-48" d="M61.63,196.04c11.89.42,23.77.91,35.65,1.49-1.29-63.52-12.1-127.07-33.76-187.5-11.8,4.32-23.54,8.71-35.23,13.17,31.09,53.22,39.3,114.81,33.34,172.85Z"/>
              </g>
              <path class="cls-38" d="M14.34,59.63c2.5-1.64,5-3.27,7.51-4.91,2.6-1.69,4.5-4.16,5.35-6.98.07-.24.15-.48.22-.72,1.63-5.38,6.94-9.15,13.05-9.26,3.59-.07,7.18-.13,10.77-.18-1.07-.22-20.89,9.25-20.79,44.94.07,19.14,23.54,23.59,16.32,46.12-.11.35-.24.72-.37,1.09-4.59,12.88-5.04,26.76-.74,39.69,2.15,6.47,4.54,12.42,7.16,17.6-.87-.2-1.83-.15-2.81.28-8.14,3.57-16.72,7.01-24.27,11.78-.24-1.3-.49-2.6-.73-3.9-.27-1.42.65-2.75,2.01-3.13-2.22-12.83-4.46-25.65-6.73-38.48-.13-.75-.22-1.49-.29-2.24-.02-.28-.02-.56-.04-.83-.02-.46-.05-.93-.04-1.39,0-.35.03-.71.05-1.06.02-.38.04-.76.08-1.14.04-.4.1-.8.16-1.19.05-.32.1-.64.16-.96.08-.43.18-.86.29-1.29.07-.27.14-.53.21-.8.13-.46.27-.92.43-1.38.07-.21.16-.42.24-.63.19-.5.38-.99.61-1.47.06-.14.14-.28.2-.42.55-1.14,1.16-2.26,1.89-3.32,5.95-8.7,5.86-19.91-.4-28.43-1.61-2.2-3.23-4.39-4.86-6.58-3.25-4.39-6.51-8.77-9.79-13.15-1.14-1.52-2.11-3.17-2.75-4.93-3.16-8.64.29-17.73,7.9-22.72Z"/>
            </g>
            <g>
              <path class="cls-48" d="M49.01,55.6c-1.41-.14-2.51-.06-3.65.16-1.12.21-2.17.58-3.17,1.02-2.01.89-3.71,2.27-5.18,3.82-1.49,1.54-2.71,3.33-3.54,5.27-.87,1.91-1.25,4.05-1.09,6.15.09,1.16,1.18,2.04,2.44,1.95.44-.03.84-.17,1.17-.39.08-.05.16-.11.24-.16,1.68-1.12,2.94-2.19,4.29-3.15,1.29-.98,2.54-1.91,3.8-2.82,1.25-.92,2.51-1.79,3.66-2.89.59-.54,1.15-1.12,1.7-1.77.52-.65,1.14-1.37,1.49-2.2.15-.36.3-.71.45-1.07.63-1.49-.17-3.17-1.79-3.74-.26-.09-.54-.15-.8-.18Z"/>
              <path class="cls-48" d="M73.4,60.35c.37.82,1,1.53,1.54,2.17.56.64,1.14,1.21,1.74,1.73,1.17,1.07,2.45,1.92,3.72,2.81,1.28.88,2.54,1.78,3.86,2.73,1.37.93,2.65,1.97,4.35,3.05.08.05.16.1.24.15,1.04.66,2.46.42,3.18-.54.25-.33.38-.72.4-1.1.11-2.1-.31-4.23-1.23-6.12-.87-1.92-2.13-3.68-3.65-5.19-1.51-1.51-3.23-2.86-5.27-3.71-1.01-.43-2.07-.76-3.2-.95-1.15-.19-2.24-.25-3.65-.08-1.73.21-2.95,1.66-2.72,3.24.04.25.11.5.21.72.16.36.32.72.48,1.07Z"/>
            </g>
            <path class="cls-32" d="M166.83,192.12c0,.14-1.05-12.16-59.09-12.71-58.07-.14-78.29,12.61-78.27,12.49,22.93,1.29,45.83,2.88,68.67,4.76.03-.19,59.64,3.23,68.69-4.54Z"/>
          </g>
          <g>
            <g>
              <g>
                <path class="cls-28" d="M149.64,98.53c-.73,3.38,3.73,4.4,3.73,4.4l10.97,3.29c1.22.32,1.33-.36,1.79-.02.96.71,1.37-.1,1.84.13,1.08.52,1.24-.08,1.56.04,1.04.39,1.45.51,3.07-.33.49-.25,4.47-2.65,5.49-3.33,2.06-1.38,3.4-1.87,3.47-2.03.09-.19.08-2.78-5.09.02-1.33.72-2.63,1.44-4.77,2.2.68-.99,2.08-2.64,3.15-4.13,1.63-2.29,2.61-2.97,2.56-3.53-.02-.21-1.57-1.55-4.4,2.05-.51.65-1.13,1.35-1.63,1.9.39-.88.6-1.22.85-1.77.88-1.94,2.35-3.28,2.14-3.71-.12-.25-1.98-1.31-3.94,2.13-.53.93-1.05,1.86-1.4,2.4.23-.85.34-1.07.45-1.59.45-2.22.96-3.12.82-3.34-.2-.3-1.82-.62-2.83,2.66-.33,1.07-.92,2.77-1.52,4.08,0,0-3.06-3.3-2.83-4.38.21-.96,1.91-1.87,3.88-2.99,2.23-1.27,3.47-3.4,2-4.97-.37-.39-1.02,1.13-3.5,2.09-2.05.79-3.91,1.53-5.04,1.67-5.99.74-5.79,2.1-7.11,2.54,0,0-2.92.92-3.7,4.53Z"/>
                <path class="cls-44" d="M164.18,102.51s.09-.89.42-1.4c0,0-1.78-.69-3.07.41,0,0,1.06-1.11.65-1.82-.41-.71-2.09-3.07-5.59-3.58,0,0,4.11-.65,4.82-2.19,0,0,6.12-1.61,8.09-3.97-.32,1-1.26,1.99-2.51,2.7-1.97,1.12-3.67,2.02-3.88,2.99-.23,1.08,2.83,4.38,2.83,4.38,0,0-1.48,1.43-1.76,2.47Z"/>
                <path class="cls-44" d="M169.03,98.23s-1.65,4.55-1.49,5.18c.15.63,1.49-5.18,1.49-5.18Z"/>
                <path class="cls-44" d="M171.37,99.18s-2.07,3.58-2.14,4.3c-.07.72,2.14-4.3,2.14-4.3Z"/>
                <path class="cls-44" d="M171.69,102.89s-1.35,1.46-1.2,1.68c.15.22,4.81-3.26,4.81-3.26,0,0-2.09,1.14-3.61,1.58Z"/>
              </g>
              <g>
                <g>
                  <path class="cls-28" d="M124.4,134.22c-2.73,2.17-6.7,1.77-8.93-.93-2.23-2.7-1.86-6.84.79-9.1h0s7.38-8.6,35.91-29.58l5.21,6.31s-19.33,23.8-32.57,32.95c-.09.06-.41.35-.41.35Z"/>
                  <g>
                    <path class="cls-28" d="M103.04,84.32c-1.11-4.03,1.25-8.2,5.28-9.31,4.03-1.11,8.2,1.25,9.31,5.28.17.63,8.34,46.88,8.34,46.88.87,3.38-1.12,6.84-4.5,7.77-3.37.93-6.86-1.02-7.84-4.37l-10.6-46.26Z"/>
                    <path class="cls-16" d="M109.4,117.7l-7.58-33.08c-1.28-4.68,1.49-9.53,6.17-10.82,4.69-1.29,9.56,1.47,10.85,6.16.13.47,3.57,19.86,6.14,34.38-2.96,1.16-8.65,3-15.58,3.36Z"/>
                  </g>
                </g>
                <g>
                  <path class="cls-5" d="M52.38,79.44c0,2.25,4.65,5.49,7.03,6.83.08,4.6.38,9.78,1.16,14.43,1.85,11.14,5.84,22.32,8.4,39.74,0,0,6.59,2.33,15.08,3.32,4.33.5,9.15.66,13.85-.01,3.48-.5,6.9-1.46,9.99-3.08l2.44-26.98s8.28-2.42,8.28-12.28c0-4.72-1.02-8.86-8.09-14.4v-.57c2.21-1.22,7.21-4.65,7.21-6.99,0-5.19-7.44-6.24-7.44-6.24,0,0-5.73-1.37-12.92-2.88,0,0-1.55-.38-3.65-.76-.16-.03-.32-.06-.49-.09-.08.88-9.52,1.46-13.47.81-.83-.14-1.41-.33-1.63-.58-2.48.45-4.39.88-4.39.88-4.04.97-10.22,1.89-14.04,2.61,0,0-7.32,1.05-7.32,6.24Z"/>
                  <g>
                    <polygon class="cls-13" points="97.24 70.22 98.18 70.49 92.9 115.11 73.53 70.56 74.24 70.39 88.99 79.31 90.88 79.34 97.24 70.22"/>
                    <polygon class="cls-58" points="94.62 77.58 91.32 87.93 94.55 101.47 93.12 115.86 86.92 101.43 87.63 87.93 82.3 77.19 88.99 79.31 90.88 79.34 94.62 77.58"/>
                    <path class="cls-33" d="M97.36,70.32s-1.43,20.06-4.4,44.23l-18.73-44.15-7.78,1.54,7.29,18.37,5.42-.43-4.5,5.48,19.61,29.04,10.45-29.17-5.83-5.3,6.23.28.23-18.18-8.01-1.71Z"/>
                  </g>
                  <path class="cls-42" d="M116.34,105.61s-1.75,1.48-5.56,1.81c-7.68.66-20.28,2.04-31.38.26-4.66-.75-8.08-3.1-11.59-5.85,0,0,2.09,11.94,16.69,11.7,14.6-.24,30.93,1.55,31.84-7.92Z"/>
                  <path class="cls-12" d="M56.15,174.54c0-.51.11-1.53.17-1.91.06-.47.14-.93.25-1.38,3.19-16.49,12.4-30.81,12.4-30.81l38.92.21s10.37,11.23,12.02,30.44c.12.74,0,4.03,0,4.03-.25,7.36-6.08,13.03-13.6,13.78,0,0-35.08.03-35.08.03-8.3-.27-15-6.54-15.09-14.39Z"/>
                  <g>
                    <path class="cls-58" d="M67.04,141.77c0,.4.25.72.55.72h41.54c.3,0,.55-.32.55-.72v-5.85c0-.4-.25-.72-.55-.72h-41.54c-.3,0-.55.32-.55.72v5.85Z"/>
                    <path class="cls-58" d="M72.86,141.77v-5.85c0-.4.25-.72.55-.72h35.71c.3,0,.55.32.55.72v5.85c0,.4-.25.72-.55.72h-35.71c-.3,0-.55-.32-.55-.72Z"/>
                    <path class="cls-27" d="M88.41,143.19h7.66c.61,0,1.11-.64,1.11-1.42v-5.85c0-.79-.5-1.42-1.11-1.42h-7.66c-.61,0-1.11.64-1.11,1.42v5.85c0,.79.5,1.42,1.11,1.42ZM96.07,135.91v5.85s-7.66,0-7.66,0h0v-5.85h7.65Z"/>
                    <rect class="cls-12" x="102.76" y="134.85" width="2.61" height="8.11"/>
                    <rect class="cls-12" x="76.16" y="134.85" width="2.61" height="8.11"/>
                  </g>
                  <path class="cls-46" d="M62.21,161.63s.03,0,.04,0c13.94-2.67,16.48-15.17,16.51-15.29.05-.24-.11-.47-.35-.52-.24-.05-.47.11-.51.35-.02.12-2.47,12.03-15.81,14.59-.24.05-.39.28-.35.52.04.23.25.38.47.36Z"/>
                  <g>
                    <g>
                      <path class="cls-28" d="M92.11,65.2l.04,10.94-13.39.05-.06-14.23c5.56,3.64,11.11,3.53,13.4,3.24Z"/>
                      <path class="cls-55" d="M78.72,61.96l-.04-10.96,13.39-.05.06,14.26c-2.28.3-7.83.4-13.4-3.24Z"/>
                    </g>
                    <path class="cls-28" d="M88.85,79.26c-4.55-1.5-10.31-7.8-11.42-9.12,2.6-.46,6.49-1.37,8.75-1.4,2.14-.02,5.32.7,7.53,1.08-.08.95.68,7.48-2.83,9.52-.41.24-1.6.05-2.03-.09Z"/>
                  </g>
                  <g>
                    <g>
                      <g>
                        <polygon class="cls-23" points="93.53 102.36 101.16 70.93 98.73 70.03 91.29 100.79 93.53 102.36"/>
                        <polygon class="cls-23" points="91.27 102.46 93.69 100.72 71.63 69.6 68.82 71.03 91.27 102.46"/>
                      </g>
                      <polygon class="cls-27" points="90.26 101.01 93.94 100.88 94.02 103.13 90.33 103.3 90.26 101.01"/>
                      <path class="cls-1" d="M88.23,103.04l8.12-.33c.41-.02.74.32.76.75l.52,13.64c.02.44-.3.83-.7.87l-8.15.91c-.44.05-.81-.28-.82-.74l-.49-14.26c-.02-.45.33-.83.76-.85ZM91.39,104.11l2.02-.09c.15,0,.26-.14.26-.29s-.13-.27-.28-.27l-2.02.09c-.15,0-.27.14-.26.3s.13.28.28.27Z"/>
                      <polygon class="cls-12" points="91.53 103.82 93.29 103.74 93.21 101.59 91.45 101.65 91.53 103.82"/>
                    </g>
                    <polygon class="cls-12" points="90.58 110.78 94.67 110.47 94.49 105.6 90.4 105.82 90.58 110.78"/>
                  </g>
                  <g>
                    <path class="cls-30" d="M92.14,64.55s1.99.26,5.41,5.38c0,0,.63,4.7.81,10.22,0,0-2.19-1.73-3.74-2.58l-3.74,1.77s1.11-5.63,1.11-9.35c0,0,.16-4.27.16-5.44Z"/>
                    <path class="cls-30" d="M78.75,64.06v4.25c.68,1.8,7.57,7.76,10.24,10.99,0,0-5-1.57-6.69-1.91,0,0-3,2.63-4.02,3.44,0,0-2.4-4.07-4.53-10.62,0,0,3.28-5.81,5-6.15Z"/>
                  </g>
                </g>
                <g>
                  <path class="cls-28" d="M52.86,80.71c.81-4.1,4.8-6.77,8.9-5.95,4.1.81,6.77,4.8,5.95,8.9-.13.64-13.56,45.64-13.56,45.64-.74,3.41-4.07,5.61-7.5,4.93-3.43-.68-5.67-3.99-5.05-7.42l11.27-46.1Z"/>
                  <path class="cls-5" d="M43.24,113.21l8.22-32.92c.98-4.75,5.64-7.83,10.4-6.86,4.77.97,7.86,5.64,6.89,10.4-.1.48-5.81,19.33-10.09,33.43-3.17-.31-9.07-1.24-15.41-4.06Z"/>
                </g>
                <g>
                  <path class="cls-10" d="M76.66,53.81s.03.22.05.58c.09,1.45,1.67,5.93-1.86,5.67-2.57-.19-2.19,2.27-5.67,1.63-2.53-.47-1.49-3.29-5.01-3.06-2.52.17-3.8-1.22-3.84-3.62-.03-1.92,1.6-4,1.03-5.08,0,0-.54-.83-1.52-.25-1.42.85-4.57-1.11-5.13-3.77-.52-2.44-.41-7.95,3.03-10.39,3.43-2.44,11.25-2.66,11.25-2.66h5.86l1.81,20.93Z"/>
                  <g>
                    <path class="cls-28" d="M68.12,41.5c0,10.68,8.47,19.35,18.91,19.35h0c10.44,0,17.63-8.94,17.63-19.62l-.7-16.83c0-10.69-6.38-13.49-16.83-13.49h0c-10.44,0-17.56,2.7-17.56,13.39l-1.45,17.21Z"/>
                    <path class="cls-44" d="M97.76,26.74c-1.14.13-2.55-1.1-2.98-1.95-.43-.85-4.88-4.97-10.38-3.34-5.49,1.63-9.25,3.43-10.12,6.56-.4,1.42-1.79,3.97-4.24,5.87l-1.3.09.81-9.68c0-10.69,7.12-13.39,17.56-13.39s16.83,2.8,16.83,13.49l.25,5.99c-1.56-.22-2.85-.55-3.32-1.05-1.52-1.61-1.99-2.73-3.13-2.6Z"/>
                    <path class="cls-44" d="M87.03,59.96c-10.22,0-18.54-8.3-18.89-18.66l-.02.2c0,10.68,8.47,19.35,18.91,19.35s17.63-8.94,17.63-19.62v-.3c-.27,10.42-7.38,19.03-17.63,19.03Z"/>
                  </g>
                  <g>
                    <path class="cls-57" d="M96.05,22.69s-7.32-3.6-14.29-1.33c-4.27,1.39-9.26,3.7-9.26,9.62,0,4.09-1.93,9.38-1.93,9.38,0,0-.73-4.8-3.42-6.23-2.69-1.42,4.65-17.56,4.9-17.8s8.44-3.21,8.74-3.21,15.42,1.84,15.26,9.57Z"/>
                    <g>
                      <path class="cls-10" d="M80.57,7.53s.98,5.23,4.64,7.53c3.66,2.3,7.82,2.99,9.42,6.69,1.58,3.65,1.85,4.11,3.54,4.44,1.68.33,4.55,2.41,4.88,7.45.34,5.04,1.35,5.04,1.35,7.01s-.42,4.49-1.09,5.59c-.67,1.1-.93,2.52-.59,3.84.34,1.32-.36,2.85-1.01,4.82-.91,2.74.59,7.89,2.11,7.89,2.41,0,3.79-1.42,3.79-4.82s-.84-4.06.51-6.03c.87-1.28,2.76-3.29,2.61-5.59-.32-4.72.86-3.39,1.94-7.78.82-3.37-.24-4.1-1.98-6.99-2.03-3.37-1.54-2.89-1.21-5.41.34-2.52.7-5.41-.86-7.79-.98-1.5.2-1.65.34-3.83.2-3.01-2.58-5.19-4.27-5.41-1.68-.22-2.15-.83-3.74-2.94-1.99-2.64-4.89-5.4-10.92-5.12-4.19.2-6.04,2.46-6.04,2.46,0,0-3.04,1.51-3.42,3.98Z"/>
                      <path class="cls-10" d="M85.21,15.06s-8.45.32-10.89,3.27c-2.75,3.33.43,6.25-4.03,10.66-1.67,1.65-3.14,5.14-3.14,5.14,0,0-9.64,1.82-9.55,1.82s-1.31,1.02-1.31,1.02c0,0,3.6-5.57,4.03-9.02.82-6.49.34-8.38,2.19-12.93,1.39-3.4,8.24-12.02,18.05-8.06,0,0,1.88,5.24,4.64,8.11Z"/>
                      <path class="cls-57" d="M80.71,7.74s.72,4.78,4.03,6.81c0,0-3.09-3.83-4.03-6.81Z"/>
                    </g>
                  </g>
                  <g>
                    <path class="cls-28" d="M68.11,34.31s2.33.51,3.14,7.07-.83,7.1-1.32,7.33c0,0-5.94,1.66-8-8.17-1.71-8.17,6.18-6.22,6.18-6.22Z"/>
                    <path class="cls-44" d="M69.75,44.19s-4.33-2.17-.95-4.34c0,0-1.14-4.96-4.03-3.84-2.9,1.12-.58,5.77,0,6.72,1.21,2.01,4.98,4.47,4.98,1.45Z"/>
                  </g>
                  <g>
                    <g class="cls-40">
                      <path class="cls-14" d="M96.05,45.48c0,2.55,2.66,4.62,5.94,4.62s5.93-2.07,5.93-4.62-2.66-4.62-5.93-4.62-5.94,2.07-5.94,4.62Z"/>
                      <path class="cls-51" d="M96.08,45.48c0,2.53,2.62,4.58,5.84,4.58s5.84-2.05,5.84-4.58-2.62-4.58-5.84-4.58-5.84,2.05-5.84,4.58Z"/>
                      <path class="cls-52" d="M96.1,45.48c0,2.5,2.57,4.53,5.75,4.53s5.74-2.03,5.74-4.53-2.57-4.53-5.74-4.53-5.75,2.03-5.75,4.53Z"/>
                      <path class="cls-68" d="M96.13,45.48c0,2.48,2.53,4.48,5.65,4.48s5.65-2.01,5.65-4.48-2.53-4.48-5.65-4.48-5.65,2.01-5.65,4.48Z"/>
                      <path class="cls-24" d="M96.15,45.47c0,2.45,2.49,4.44,5.56,4.44s5.56-1.99,5.56-4.44-2.49-4.44-5.56-4.44-5.56,1.99-5.56,4.44Z"/>
                      <path class="cls-43" d="M96.18,45.47c0,2.43,2.45,4.39,5.46,4.39s5.46-1.97,5.46-4.39-2.45-4.39-5.46-4.39-5.46,1.97-5.46,4.39Z"/>
                      <path class="cls-61" d="M96.2,45.47c0,2.4,2.4,4.35,5.37,4.35s5.37-1.95,5.37-4.35-2.4-4.35-5.37-4.35-5.37,1.95-5.37,4.35Z"/>
                      <path class="cls-63" d="M96.23,45.47c0,2.38,2.36,4.3,5.27,4.3s5.27-1.92,5.27-4.3-2.36-4.3-5.27-4.3-5.27,1.93-5.27,4.3Z"/>
                      <path class="cls-20" d="M96.25,45.47c0,2.35,2.32,4.25,5.18,4.25s5.18-1.9,5.18-4.25-2.32-4.25-5.18-4.25-5.18,1.91-5.18,4.25Z"/>
                      <path class="cls-17" d="M96.28,45.47c0,2.32,2.28,4.21,5.09,4.21s5.08-1.88,5.08-4.21-2.28-4.21-5.08-4.21-5.09,1.88-5.09,4.21Z"/>
                      <path class="cls-3" d="M96.3,45.46c0,2.3,2.23,4.16,4.99,4.16s4.99-1.86,4.99-4.16-2.23-4.16-4.99-4.16-4.99,1.86-4.99,4.16Z"/>
                      <path class="cls-26" d="M96.33,45.46c0,2.27,2.19,4.12,4.9,4.12s4.89-1.84,4.89-4.12-2.19-4.12-4.89-4.12-4.9,1.84-4.9,4.12Z"/>
                      <path class="cls-25" d="M96.35,45.46c0,2.25,2.15,4.07,4.8,4.07s4.8-1.82,4.8-4.07-2.15-4.07-4.8-4.07-4.8,1.82-4.8,4.07Z"/>
                      <path class="cls-8" d="M96.38,45.46c0,2.22,2.11,4.02,4.71,4.02s4.7-1.8,4.7-4.02-2.11-4.02-4.7-4.02-4.71,1.8-4.71,4.02Z"/>
                      <path class="cls-35" d="M96.4,45.46c0,2.2,2.07,3.98,4.61,3.98s4.61-1.78,4.61-3.98-2.06-3.98-4.61-3.98-4.61,1.78-4.61,3.98Z"/>
                      <path class="cls-71" d="M96.43,45.45c0,2.17,2.02,3.93,4.52,3.93s4.52-1.76,4.52-3.93-2.02-3.93-4.52-3.93-4.52,1.76-4.52,3.93Z"/>
                      <path class="cls-29" d="M96.46,45.45c0,2.15,1.98,3.89,4.42,3.89s4.42-1.74,4.42-3.89-1.98-3.89-4.42-3.89-4.42,1.74-4.42,3.89Z"/>
                      <path class="cls-67" d="M96.48,45.45c0,2.12,1.94,3.84,4.33,3.84s4.33-1.72,4.33-3.84-1.94-3.84-4.33-3.84-4.33,1.72-4.33,3.84Z"/>
                      <path class="cls-4" d="M96.51,45.45c0,2.1,1.9,3.79,4.23,3.79s4.23-1.7,4.23-3.79-1.89-3.79-4.23-3.79-4.23,1.7-4.23,3.79Z"/>
                      <path class="cls-64" d="M96.53,45.45c0,2.07,1.85,3.75,4.14,3.75s4.14-1.68,4.14-3.75-1.85-3.75-4.14-3.75-4.14,1.68-4.14,3.75Z"/>
                      <path class="cls-66" d="M96.56,45.45c0,2.04,1.81,3.7,4.04,3.7s4.04-1.66,4.04-3.7-1.81-3.7-4.04-3.7-4.04,1.66-4.04,3.7Z"/>
                      <path class="cls-70" d="M96.58,45.44c0,2.02,1.77,3.66,3.95,3.66s3.95-1.64,3.95-3.66-1.77-3.66-3.95-3.66-3.95,1.64-3.95,3.66Z"/>
                      <path class="cls-18" d="M96.61,45.44c0,1.99,1.73,3.61,3.86,3.61s3.85-1.62,3.85-3.61-1.73-3.61-3.85-3.61-3.86,1.62-3.86,3.61Z"/>
                      <path class="cls-2" d="M96.63,45.44c0,1.97,1.68,3.56,3.76,3.56s3.76-1.6,3.76-3.56-1.68-3.56-3.76-3.56-3.76,1.6-3.76,3.56Z"/>
                      <path class="cls-56" d="M96.66,45.44c0,1.94,1.64,3.52,3.67,3.52s3.66-1.58,3.66-3.52-1.64-3.52-3.66-3.52-3.67,1.58-3.67,3.52Z"/>
                      <path class="cls-59" d="M96.68,45.44c0,1.92,1.6,3.47,3.57,3.47s3.57-1.56,3.57-3.47-1.6-3.47-3.57-3.47-3.57,1.55-3.57,3.47Z"/>
                      <path class="cls-47" d="M96.71,45.44c0,1.89,1.56,3.43,3.48,3.43s3.48-1.53,3.48-3.43-1.56-3.43-3.48-3.43-3.48,1.53-3.48,3.43Z"/>
                      <path class="cls-50" d="M96.73,45.43c0,1.87,1.51,3.38,3.38,3.38s3.38-1.51,3.38-3.38-1.51-3.38-3.38-3.38-3.38,1.51-3.38,3.38Z"/>
                      <path class="cls-60" d="M96.76,45.43c0,1.84,1.47,3.33,3.29,3.33s3.29-1.49,3.29-3.33-1.47-3.33-3.29-3.33-3.29,1.49-3.29,3.33Z"/>
                      <path class="cls-19" d="M96.78,45.43c0,1.81,1.43,3.29,3.19,3.29s3.19-1.47,3.19-3.29-1.43-3.29-3.19-3.29-3.19,1.47-3.19,3.29Z"/>
                      <path class="cls-41" d="M96.81,45.43c0,1.79,1.39,3.24,3.1,3.24s3.1-1.45,3.1-3.24-1.39-3.24-3.1-3.24-3.1,1.45-3.1,3.24Z"/>
                      <path class="cls-37" d="M96.84,45.43c0,1.76,1.35,3.2,3,3.2s3-1.43,3-3.2-1.34-3.2-3-3.2-3,1.43-3,3.2Z"/>
                    </g>
                    <g>
                      <g>
                        <path class="cls-62" d="M93.69,49.93h-11.58s-1.15-.04-.32,1.73c.52,1.12,1.92,3.44,5.92,3.54,4.74.12,6.38-3.65,6.38-3.65,0,0,.78-1.63-.39-1.63Z"/>
                        <path class="cls-13" d="M81.59,51.17c-.39-1.27.52-1.24.52-1.24h11.58c.87,0,.66.91.49,1.37-2.23.58-6.78,1.3-12.6-.14Z"/>
                      </g>
                      <path class="cls-10" d="M75.33,33.78c.1,0,.21-.02.32-.05.8-.26,1.63-.39,2.46-.39s1.66.13,2.46.39c.1.03.21.05.32.05.45,0,.85-.29.99-.71.09-.27.06-.55-.06-.8-.13-.25-.34-.43-.61-.52-1-.33-2.05-.49-3.1-.49s-2.1.17-3.11.49c-.55.18-.84.76-.67,1.31.14.43.54.72.99.72h0Z"/>
                      <path class="cls-10" d="M101.39,33.78c.45,0,.85-.29.99-.72.18-.55-.12-1.14-.67-1.31-1-.33-2.05-.49-3.1-.49s-2.1.17-3.1.49c-.26.09-.48.27-.6.52-.13.25-.15.53-.06.79.14.43.54.71.99.71.11,0,.22-.02.32-.05.79-.26,1.62-.39,2.46-.39s1.67.13,2.46.39c.1.03.21.05.32.05h0Z"/>
                      <path class="cls-57" d="M77.27,34.85c.08.6,1.22.76,1.63.8.13-.04.26-.06.39-.06,1.06,0,1.91,1.24,1.91,2.78s-.86,2.77-1.91,2.77-1.91-1.24-1.91-2.77c0-.63.15-1.21.39-1.68-.31-.62-.5-1.84-.5-1.84Z"/>
                      <path class="cls-57" d="M98.19,35.59c.13,0,.26.02.39.06.42-.04,1.56-.2,1.63-.8,0,0-.19,1.22-.5,1.84.24.47.39,1.05.39,1.68,0,1.53-.86,2.77-1.91,2.77s-1.91-1.24-1.91-2.77.86-2.78,1.91-2.78Z"/>
                      <path class="cls-44" d="M87.12,46.99c2.83,1.29,4.6.62,4.97-1.28.24-1.23-.48-2.65-1.25-3.33-1.59-1.41-2.29-5.53-2.3-5.58h0c-.12.87.05,4.33,1.99,6.72.42.52.58,1,.54,1.62-.1,1.41-1.46,2.51-3.94,1.85h0Z"/>
                    </g>
                    <g class="cls-40">
                      <path class="cls-14" d="M79.56,45.43c0,2.98-3.1,5.4-6.93,5.4s-6.93-2.42-6.93-5.4,3.1-5.4,6.93-5.4,6.93,2.42,6.93,5.4Z"/>
                      <path class="cls-51" d="M79.53,45.43c0,2.95-3.05,5.34-6.82,5.34s-6.82-2.39-6.82-5.34,3.05-5.34,6.82-5.34,6.82,2.39,6.82,5.34Z"/>
                      <path class="cls-52" d="M79.5,45.43c0,2.92-3,5.29-6.71,5.29s-6.71-2.37-6.71-5.29,3-5.29,6.71-5.29,6.71,2.37,6.71,5.29Z"/>
                      <path class="cls-68" d="M79.47,45.42c0,2.89-2.96,5.24-6.6,5.24s-6.6-2.34-6.6-5.24,2.95-5.24,6.6-5.24,6.6,2.34,6.6,5.24Z"/>
                      <path class="cls-24" d="M79.44,45.42c0,2.86-2.91,5.18-6.49,5.18s-6.49-2.32-6.49-5.18,2.9-5.18,6.49-5.18,6.49,2.32,6.49,5.18Z"/>
                      <path class="cls-43" d="M79.41,45.42c0,2.83-2.86,5.13-6.38,5.13s-6.38-2.3-6.38-5.13,2.86-5.13,6.38-5.13,6.38,2.3,6.38,5.13Z"/>
                      <path class="cls-61" d="M79.38,45.42c0,2.8-2.81,5.08-6.27,5.08s-6.27-2.27-6.27-5.08,2.81-5.08,6.27-5.08,6.27,2.27,6.27,5.08Z"/>
                      <path class="cls-63" d="M79.35,45.42c0,2.77-2.76,5.02-6.16,5.02s-6.16-2.25-6.16-5.02,2.76-5.02,6.16-5.02,6.16,2.25,6.16,5.02Z"/>
                      <path class="cls-20" d="M79.32,45.41c0,2.74-2.71,4.97-6.05,4.97s-6.05-2.22-6.05-4.97,2.71-4.97,6.05-4.97,6.05,2.22,6.05,4.97Z"/>
                      <path class="cls-17" d="M79.29,45.41c0,2.71-2.66,4.92-5.94,4.92s-5.94-2.2-5.94-4.92,2.66-4.91,5.94-4.91,5.94,2.2,5.94,4.91Z"/>
                      <path class="cls-3" d="M79.26,45.41c0,2.68-2.61,4.86-5.83,4.86s-5.83-2.18-5.83-4.86,2.61-4.86,5.83-4.86,5.83,2.18,5.83,4.86Z"/>
                      <path class="cls-26" d="M79.23,45.41c0,2.65-2.56,4.81-5.72,4.81s-5.72-2.15-5.72-4.81,2.56-4.81,5.72-4.81,5.72,2.15,5.72,4.81Z"/>
                      <path class="cls-25" d="M79.2,45.41c0,2.63-2.51,4.75-5.61,4.75s-5.6-2.13-5.6-4.75,2.51-4.75,5.6-4.75,5.61,2.13,5.61,4.75Z"/>
                      <path class="cls-8" d="M79.17,45.4c0,2.6-2.46,4.7-5.5,4.7s-5.49-2.11-5.49-4.7,2.46-4.7,5.49-4.7,5.5,2.1,5.5,4.7Z"/>
                      <path class="cls-35" d="M79.14,45.4c0,2.57-2.41,4.65-5.39,4.65s-5.38-2.08-5.38-4.65,2.41-4.65,5.38-4.65,5.39,2.08,5.39,4.65Z"/>
                      <path class="cls-71" d="M79.12,45.4c0,2.54-2.36,4.59-5.28,4.59s-5.27-2.06-5.27-4.59,2.36-4.59,5.27-4.59,5.28,2.06,5.28,4.59Z"/>
                      <path class="cls-29" d="M79.09,45.4c0,2.51-2.31,4.54-5.17,4.54s-5.16-2.03-5.16-4.54,2.31-4.54,5.16-4.54,5.17,2.03,5.17,4.54Z"/>
                      <path class="cls-67" d="M79.06,45.4c0,2.48-2.26,4.49-5.06,4.49s-5.05-2.01-5.05-4.49,2.26-4.48,5.05-4.48,5.06,2.01,5.06,4.48Z"/>
                      <path class="cls-4" d="M79.03,45.39c0,2.45-2.21,4.43-4.94,4.43s-4.94-1.99-4.94-4.43,2.21-4.43,4.94-4.43,4.94,1.98,4.94,4.43Z"/>
                      <path class="cls-64" d="M79,45.39c0,2.42-2.16,4.38-4.83,4.38s-4.83-1.96-4.83-4.38,2.16-4.38,4.83-4.38,4.83,1.96,4.83,4.38Z"/>
                      <path class="cls-66" d="M78.97,45.39c0,2.39-2.11,4.32-4.72,4.32s-4.72-1.94-4.72-4.32,2.11-4.32,4.72-4.32,4.72,1.93,4.72,4.32Z"/>
                      <path class="cls-70" d="M78.94,45.39c0,2.36-2.07,4.27-4.61,4.27s-4.61-1.91-4.61-4.27,2.06-4.27,4.61-4.27,4.61,1.91,4.61,4.27Z"/>
                      <path class="cls-18" d="M78.91,45.39c0,2.33-2.02,4.22-4.5,4.22s-4.5-1.89-4.5-4.22,2.01-4.22,4.5-4.22,4.5,1.89,4.5,4.22Z"/>
                      <path class="cls-2" d="M78.88,45.38c0,2.3-1.97,4.16-4.39,4.16s-4.39-1.87-4.39-4.16,1.97-4.16,4.39-4.16,4.39,1.86,4.39,4.16Z"/>
                      <path class="cls-56" d="M78.85,45.38c0,2.27-1.92,4.11-4.28,4.11s-4.28-1.84-4.28-4.11,1.92-4.11,4.28-4.11,4.28,1.84,4.28,4.11Z"/>
                      <path class="cls-59" d="M78.82,45.38c0,2.24-1.87,4.06-4.17,4.06s-4.17-1.82-4.17-4.06,1.87-4.05,4.17-4.05,4.17,1.81,4.17,4.05Z"/>
                      <path class="cls-47" d="M78.79,45.38c0,2.21-1.82,4-4.06,4s-4.06-1.79-4.06-4,1.82-4,4.06-4,4.06,1.79,4.06,4Z"/>
                      <path class="cls-50" d="M78.76,45.38c0,2.18-1.77,3.95-3.95,3.95s-3.95-1.77-3.95-3.95,1.77-3.95,3.95-3.95,3.95,1.77,3.95,3.95Z"/>
                      <path class="cls-60" d="M78.73,45.37c0,2.15-1.72,3.89-3.84,3.89s-3.84-1.75-3.84-3.89,1.72-3.89,3.84-3.89,3.84,1.74,3.84,3.89Z"/>
                      <path class="cls-19" d="M78.7,45.37c0,2.12-1.67,3.84-3.73,3.84s-3.73-1.72-3.73-3.84,1.67-3.84,3.73-3.84,3.73,1.72,3.73,3.84Z"/>
                      <path class="cls-41" d="M78.67,45.37c0,2.09-1.62,3.79-3.62,3.79s-3.62-1.7-3.62-3.79,1.62-3.79,3.62-3.79,3.62,1.69,3.62,3.79Z"/>
                      <path class="cls-37" d="M78.64,45.37c0,2.06-1.57,3.73-3.51,3.73s-3.51-1.67-3.51-3.73,1.57-3.73,3.51-3.73,3.51,1.67,3.51,3.73Z"/>
                    </g>
                  </g>
                </g>
              </g>
            </g>
            <g>
              <path class="cls-21" d="M68,33.9c1.54.94,2.6,2.49,3.13,4.12.53,1.63.59,3.35.46,5.03-.2,2.58-1.75,12.15-9.85,9.51-.55-.18-1.1-.42-1.53-.8-.88-.78-1.16-1.97-1.27-3.09-.31-3.09.25-6.15.96-9.14.48-2.01,1.24-4.15,2.71-5.71,1.28-1.36,3.89-.86,5.4.06Z"/>
              <path class="cls-9" d="M56.26,36.77c-.83,1.79-.77,3.85-.61,5.83.16,2,.44,4.07,1.49,5.86,1.05,1.79,3.04,3.27,5.17,3.23,1.83-.03,3.43-1.16,4.33-2.61.91-1.44,1.22-3.17,1.37-4.87.17-1.95.13-3.93-.11-5.9-.11-.91-.28-1.85-.8-2.65-2.47-3.76-9.26-2.3-10.83,1.09Z"/>
              <path class="cls-53" d="M68.31,44.32c.17-1.95.13-3.93-.11-5.9-.11-.91-.28-1.85-.8-2.65-.93-1.42-3.65-2.99-5.68-2.28.01.02,2.21.4,2.38,2.77.14,1.97.28,3.94.11,5.9-.14,1.7-.46,3.42-1.37,4.87-.91,1.44-2.51,2.58-4.33,2.61-.1,0-.53-.09-.76-.31,1.19,1.8,3.18,2.49,4.87,2.46,1.83-.03,3.43-1.16,4.33-2.61.91-1.44,1.22-3.17,1.37-4.87Z"/>
              <path class="cls-65" d="M58.59,35.46c-.84,1.11-1.3,2.45-1.69,3.8-.39,1.36-.48,2.75-.15,4.18.33,1.43,1.25,2.87,2.73,3.07,1.43.19,2.67-.75,3.5-1.82,1.28-1.66.92-3.91,1.23-6.01.18-1.21-.06-3.25-.61-4.4-1.47-3.1-3.57-.7-5.01,1.19Z"/>
              <path class="cls-65" d="M57.88,36.91c1.01-1.64,2.33-3.08,3.17-4.82.68-1.41,1.02-2.99.99-4.59.33-.22.84.09.98.47s.04.78-.01,1.17c-.48,3.09.72,6.22.82,9.38.03,1.04-.48,2.65-.7,3.65-.2.92.69,1.26.14,2.01-.54.76-1.44,1.33-2.43,1.29-1.7-.07-3.38.36-3.89-1.26-.82-2.63.08-5.92.94-7.31Z"/>
              <path class="cls-36" d="M60.25,43.32c1.2-.27,2.2-1.05,2.93-1.99,1.5-1.94,1.21-4.63.42-7.06,1,1.09,1.48,2.28,1.6,3.97s-.1,3.37-.7,4.9c-.4,1.01-.94,2-1.79,2.7-.85.7-2.04,1.09-3.18.79-.77-.2-1.45-.7-2-1.28-.4-.41-.37-.62-.58-1.13-.49-1.19-.85-2.74-.3-3.93.01,1.13-.33,1.86.59,2.49.88.6,2.03.76,3.02.54Z"/>
              <path class="cls-15" d="M57.72,38.07c-.13.45-.22.97.05,1.4.04.06.08.12.15.15.18.09.37-.04.49-.18,1.17-1.31,1.23-3.41,2.61-4.53.5-.41,1.69-.81.54-1.34-.6-.27-.93-.04-1.35.34-1.2,1.08-2.05,2.62-2.49,4.16Z"/>
              <g class="cls-7">
                <path class="cls-9" d="M64.67,29.49c1.72-.5,2.37-1.49,2.81-2.78.44-1.28.78-2.88.7-4.18-.16-2.61-.06-5.28.94-7.85,1-2.57,2.98-5.05,6-6.67,1.86-1,4.04-1.64,6.25-2.06,4.77-.9,9.81-.8,14.32.29,2.63.64,5.11,1.62,6.95,3.08,3.07,2.44,4.38,6.2,3.94,9.6-.45,3.4-2.52,6.49-4.28,9.72-.54.99-1.42,2.08-.44,2.8.51.38,1.66.64,2.39.74.58.08,1.19.16,1.78.06,1.48-.25,2.24-1.46,2.67-2.51,2.07-5.07,2.25-10.55-.4-15.26-2.64-4.71-8.32-8.54-15.33-9.53-1.9-.27-3.86-.33-5.82-.34-1.86,0-3.73.04-5.58.31-3.4.5-6.59,1.77-9.36,3.36-8.03,4.59-12.58,11.92-12.18,18.99.05.87-.13,1.47.92,1.98,1.04.5,2.49.6,3.71.24Z"/>
                <path class="cls-21" d="M71.08,14.33c1.08.33,2.3-.22,3.09-.82,1.38-1.05,2.32-2.32,3.67-3.38,3.46-2.72,9.39-3.73,14.57-2.9,2.74.44,5.3,1.35,7.39,2.61,1.46.88,2.7,1.97,3.21,3.24.26.66.32,1.34.53,2,.22.66.62,1.33,1.42,1.76.79.42,2.05.51,2.79.05.76-.47.73-1.29.48-1.96-.53-1.46-1.75-2.76-3.02-3.99-.87-.84-1.78-1.67-2.82-2.42-4.42-3.16-11.32-4.68-17.68-3.88-6.08.76-11.03,3.49-13.87,7.1-.62.79-1.56,2.05.24,2.6Z"/>
              </g>
              <ellipse class="cls-36" cx="63" cy="25.12" rx=".82" ry="1.26"/>
            </g>
          </g>
          <g>
            <path id="shin_right" data-name="shin right" class="cls-46" d="M130.18,246.77l-3.8-1.35s1.16-44.84,4.12-54.35c1.48-4.74,9.56-18.71,13.93-24.42,4.39-5.74,16.99-2.51,13.88,7.35-4.97,13.69-14.32,35.76-28.14,72.77Z"/>
            <path class="cls-46" d="M114.12,148.27s40.46,15.63,42.45,17.68c1.99,2.05-21.02,14.47-21.02,14.47l-41.55-.29-9.61-27.62s23.94-8.11,29.73-4.24Z"/>
          </g>
          <path class="cls-12" d="M85.82,150.76s-4.35,18.42-3.81,24.03c.36,3.78,4.58,9.69,6.28,11.75,1.7,2.06,38.4,4.35,41.15,1.27,2.75-3.09,9.48-16.44,8.87-18.56-1.28-4.52-41.73-13.33-41.73-13.33l-10.76-5.15Z"/>
          <path id="shin_left" data-name="shin left" class="cls-12" d="M121.96,174.48s-2.78,21.95-2.36,30.34c.42,8.4,16.06,46.38,16.06,46.38h3.79c-1.86-64.48.04-80.27.04-80.27-.55-5.47-16.24-6.59-17.53,3.55Z"/>
          <g>
            <path class="cls-32" d="M24.68,155.62c1.78-1.4,3.55-2.8,5.34-4.2,0-.04,0-.09,0-.13,0,0,.32-.23.91-.59,0,0,0,0,0,0,0,0,0,0,0,0,4.72-2.85,29.19-15.09,73.03,3.24,0,2.04-.02,4.08-.02,6.12-1.81.69-3.62,1.39-5.42,2.08,0-.7,0-1.4,0-2.1-22.77-.04-45.53.21-68.29.74-1.85-1.72-3.7-3.44-5.55-5.16Z"/>
            <path class="cls-48" d="M62.76,198.06c-2.23-13.89-4.49-27.78-6.78-41.67,3.98-.05,7.96-.1,11.94-.14.13,13.92.26,27.83.39,41.75-1.85.02-3.7.04-5.55.06Z"/>
            <path class="cls-48" d="M24.63,153.52c-.13.08,24.5-18.01,73.9,2.5,0,2.04,0,4.08-.01,6.12-24.55-.04-49.11.25-73.65.87-.08-3.16-.16-6.32-.24-9.48Z"/>
          </g>
          <path class="cls-28" d="M45.01,136.15c-3.17-1.46-4.6-5.19-3.19-8.39,1.41-3.2,5.27-4.74,8.49-3.39h0s11,2.72,42.57,18.78l-3.29,7.49s-29.95-6.57-44.08-14.27c-.09-.05-.5-.21-.5-.21Z"/>
          <g>
            <g>
              <polygon class="cls-6" points="113.72 128.94 95.32 128.94 97.13 152.31 111.89 152.31 113.72 128.94"/>
              <polygon class="cls-31" points="95.48 131.05 96.24 140.9 112.78 140.9 113.55 131.05 95.48 131.05"/>
              <path class="cls-49" d="M108.31,135.98c0-2.09-1.7-3.79-3.79-3.79-2.09,0-3.79,1.7-3.79,3.79s1.7,3.79,3.79,3.79c2.09,0,3.79-1.7,3.79-3.79Z"/>
              <polygon class="cls-45" points="113.72 124.52 95.32 124.52 94.19 128.94 114.72 128.94 113.72 124.52"/>
            </g>
            <g>
              <path class="cls-28" d="M85.43,140.29s2.7-1.14,7.25-3.44c4.56-2.3,7.59-2.91,8.35-3.05.76-.14.39,2.97,1.82,6.75,1.3,3.44,1.36,4.55,1.36,4.55,0,0,2.27,2.95.33,3.06-1.16.06-10.55,2.82-15.01,2.55-4.46-.27-11.58-7.35-4.12-10.42Z"/>
              <path class="cls-28" d="M114.75,143.76c-1.99-1.56-4.95-1.67-7.39-1.84-1.54-.11-3.08-.18-4.61-.13-1.81-.03-2.09,3.12,2.32,3.41,3-.36,6.04-.41,8.58.82,1.36.66,2.16-1.44,1.11-2.26Z"/>
              <path class="cls-28" d="M100.73,140.84c.56.55,1.39.74,2.16.59,1.36-.26,2.75-.62,3.96-.65,3.14-.07,6.22.42,9.22,1.36,1.34.42,2.34-1.48,1.11-2.26-4.22-2.68-10.38-2.44-15.48-1.98,0-.03-2.51,1.41-.95,2.94Z"/>
              <path class="cls-28" d="M105.5,148.15c.6-.08,1.17-.12,1.63-.1.53.14,1,.33,1.3.65.94.98,2.92-.11,2.11-1.39-.06-.1-.13-.18-.19-.27,0-.02-.02-.03-.03-.05-.56-.72-1.26-1.08-2.04-1.24-.52-.18-1.07-.3-1.63-.39-.12-.04-.25-.06-.39-.05-.39-.05-.79-.09-1.19-.11-3.77-.22-2.49,3.42.44,2.95Z"/>
              <path class="cls-28" d="M102.05,137.51c1.35-.39,2.55-.93,3.94-1.1,2.4-.3,5.06-.07,7.46-.24,1.09-.08,1.22-1.29.31-1.8-4.19-2.36-8.5-1.34-13.05-.51-4.18,1.53,1.34,3.68,1.34,3.65Z"/>
            </g>
          </g>
        </g>
      </g>
    </g>
  </g>
</svg>