<?xml version="1.0" encoding="UTF-8"?>
<svg xmlns="http://www.w3.org/2000/svg" xmlns:xlink="http://www.w3.org/1999/xlink" viewBox="0 0 183.57 183.09">
  <defs>
    <style>
      .cls-1 {
        fill: #54627a;
      }

      .cls-2, .cls-3 {
        fill: #111;
      }

      .cls-4 {
        fill: #cacaca;
      }

      .cls-5 {
        stroke: url(#Gradiente_sem_nome_7-2);
      }

      .cls-5, .cls-6, .cls-7, .cls-8, .cls-9, .cls-10, .cls-11, .cls-12, .cls-13, .cls-14, .cls-15, .cls-16, .cls-17 {
        fill: none;
      }

      .cls-5, .cls-6, .cls-7, .cls-8, .cls-10, .cls-11, .cls-12, .cls-13, .cls-14, .cls-15, .cls-16, .cls-17 {
        stroke-miterlimit: 10;
        stroke-width: 9px;
      }

      .cls-18 {
        fill: #455163;
      }

      .cls-19 {
        fill: #34363a;
      }

      .cls-6 {
        stroke: url(#Gradiente_sem_nome_7-3);
      }

      .cls-7 {
        stroke: url(#Gradiente_sem_nome_7-10);
      }

      .cls-8 {
        stroke: url(#Gradiente_sem_nome_7-7);
      }

      .cls-20 {
        fill: #cebea9;
      }

      .cls-21 {
        fill: #b7a586;
      }

      .cls-22 {
        fill: #2d2d2d;
      }

      .cls-23, .cls-24 {
        fill: #fff;
      }

      .cls-24 {
        opacity: .31;
      }

      .cls-25 {
        fill: #88603a;
      }

      .cls-26 {
        fill: #006a31;
      }

      .cls-27 {
        fill: #cdcdd9;
      }

      .cls-28 {
        fill: #d8cbc1;
      }

      .cls-29 {
        fill: #cbbbb0;
      }

      .cls-30 {
        fill: #ffd336;
      }

      .cls-10 {
        stroke: url(#Gradiente_sem_nome_7-8);
      }

      .cls-31 {
        fill: #f8f1e7;
      }

      .cls-32 {
        clip-path: url(#clippath-1);
      }

      .cls-33 {
        fill: #e3e3e3;
      }

      .cls-34 {
        fill: #332f33;
      }

      .cls-35 {
        isolation: isolate;
      }

      .cls-36 {
        opacity: .43;
      }

      .cls-36, .cls-37 {
        fill: #1a1a1a;
      }

      .cls-36, .cls-3 {
        mix-blend-mode: multiply;
      }

      .cls-11 {
        stroke: url(#Gradiente_sem_nome_7-12);
      }

      .cls-38 {
        fill: #666;
      }

      .cls-39 {
        fill: #de7d68;
      }

      .cls-40 {
        fill: #2c3340;
      }

      .cls-41 {
        clip-path: url(#clippath-3);
      }

      .cls-12 {
        stroke: url(#Gradiente_sem_nome_7-9);
      }

      .cls-13 {
        stroke: url(#Gradiente_sem_nome_7-6);
      }

      .cls-42 {
        fill: #ed8b72;
      }

      .cls-14 {
        stroke: url(#Gradiente_sem_nome_7-4);
      }

      .cls-43 {
        fill: #975a4d;
      }

      .cls-15 {
        stroke: url(#Gradiente_sem_nome_7);
      }

      .cls-44 {
        fill: #211920;
      }

      .cls-45 {
        fill: #d04646;
      }

      .cls-46 {
        fill: #393a42;
      }

      .cls-47 {
        fill: #fdf8f5;
      }

      .cls-48 {
        fill: #66492c;
      }

      .cls-16 {
        stroke: url(#Gradiente_sem_nome_7-11);
      }

      .cls-3 {
        opacity: .32;
      }

      .cls-17 {
        stroke: url(#Gradiente_sem_nome_7-5);
      }

      .cls-49 {
        fill: #f7a082;
      }

      .cls-50 {
        clip-path: url(#clippath);
      }
    </style>
    <clipPath id="clippath">
      <circle class="cls-9" cx="206.94" cy="390.07" r="99.04"/>
    </clipPath>
    <linearGradient id="Gradiente_sem_nome_7" data-name="Gradiente sem nome 7" x1="110.78" y1="92.45" x2="338.83" y2="92.45" gradientUnits="userSpaceOnUse">
      <stop offset="0" stop-color="#ee7d00"/>
      <stop offset="1" stop-color="#ffd336"/>
    </linearGradient>
    <linearGradient id="Gradiente_sem_nome_7-2" data-name="Gradiente sem nome 7" x1="112.53" y1="67.5" x2="340.58" y2="67.5" xlink:href="#Gradiente_sem_nome_7"/>
    <linearGradient id="Gradiente_sem_nome_7-3" data-name="Gradiente sem nome 7" x1="114.21" y1="43.55" x2="342.26" y2="43.55" xlink:href="#Gradiente_sem_nome_7"/>
    <linearGradient id="Gradiente_sem_nome_7-4" data-name="Gradiente sem nome 7" x1="98.81" y1="263.11" x2="326.86" y2="263.11" xlink:href="#Gradiente_sem_nome_7"/>
    <linearGradient id="Gradiente_sem_nome_7-5" data-name="Gradiente sem nome 7" x1="115.89" y1="19.6" x2="343.94" y2="19.6" xlink:href="#Gradiente_sem_nome_7"/>
    <linearGradient id="Gradiente_sem_nome_7-6" data-name="Gradiente sem nome 7" x1="100.49" y1="239.16" x2="328.54" y2="239.16" xlink:href="#Gradiente_sem_nome_7"/>
    <linearGradient id="Gradiente_sem_nome_7-7" data-name="Gradiente sem nome 7" x1="102.24" y1="214.21" x2="330.29" y2="214.21" xlink:href="#Gradiente_sem_nome_7"/>
    <linearGradient id="Gradiente_sem_nome_7-8" data-name="Gradiente sem nome 7" x1="117.64" y1="-5.35" x2="345.69" y2="-5.35" xlink:href="#Gradiente_sem_nome_7"/>
    <linearGradient id="Gradiente_sem_nome_7-9" data-name="Gradiente sem nome 7" x1="103.92" y1="190.26" x2="331.97" y2="190.26" xlink:href="#Gradiente_sem_nome_7"/>
    <linearGradient id="Gradiente_sem_nome_7-10" data-name="Gradiente sem nome 7" x1="105.6" y1="165.81" x2="333.73" y2="165.81" xlink:href="#Gradiente_sem_nome_7"/>
    <linearGradient id="Gradiente_sem_nome_7-11" data-name="Gradiente sem nome 7" x1="107.35" y1="141.35" x2="335.4" y2="141.35" xlink:href="#Gradiente_sem_nome_7"/>
    <linearGradient id="Gradiente_sem_nome_7-12" data-name="Gradiente sem nome 7" x1="109.1" y1="116.4" x2="337.15" y2="116.4" xlink:href="#Gradiente_sem_nome_7"/>
    <clipPath id="clippath-1">
      <path class="cls-9" d="M131.05,183.09H-6.1V-.53h185.05v109.24l-17.01,29.53.02,11.42c0,30.98-26.88,33.43-30.91,33.43Z"/>
    </clipPath>
    <clipPath id="clippath-3">
      <path class="cls-9" d="M117.8,40.72c3.97.04,7.94.09,11.92.15,6.11.09,11.44,3.84,13.1,9.21.07.24.15.48.22.72.87,2.82,2.78,5.27,5.39,6.96,2.52,1.62,5.03,3.25,7.54,4.88,5.66,3.68,9.04,9.62,9.14,15.98h0c.06,4.13-1.26,8.16-3.78,11.56-4.92,6.63-9.81,13.28-14.66,19.93-6.23,8.55-6.27,19.77-.28,28.44h0c3.7,5.36,5.13,11.83,4.04,18.14-2.87,16.63-5.69,33.26-8.47,49.89-28.71-.57-57.44-.67-86.15-.32,3.3-18.88,6.68-37.75,10.13-56.61.88-4.79,3.17-9.24,6.64-12.83,1.24-1.29,2.49-2.57,3.73-3.86,5.87-6.06,8.36-14.39,6.61-22.44-1.84-6.67-3.7-13.34-5.56-20-3.01-7.91-1.95-14.48-1.94-14.48,2.38-9.06,11.32-16.21,20.61-19.99.37-.15.73-.3,1.1-.45,2.58-1.05,4.76-2.8,6.23-5.02.84-1.27,1.68-2.54,2.52-3.8,2.52-3.8,7.05-6.1,11.93-6.05Z"/>
    </clipPath>
  </defs>
  <g class="cls-35">
    <g id="Camada_1" data-name="Camada 1">
      <g class="cls-50">
        <g id="Grupo_de_máscara_8" data-name="Grupo de máscara 8">
          <g id="Grupo_260" data-name="Grupo 260">
            <line id="Linha_154" data-name="Linha 154" class="cls-15" x1="113.74" y1="188.96" x2="335.88" y2="-4.06"/>
            <line id="Linha_159" data-name="Linha 159" class="cls-5" x1="115.49" y1="164.01" x2="337.63" y2="-29.01"/>
            <line id="Linha_164" data-name="Linha 164" class="cls-6" x1="117.17" y1="140.06" x2="339.31" y2="-52.96"/>
            <line id="Linha_166" data-name="Linha 166" class="cls-14" x1="101.77" y1="359.62" x2="323.91" y2="166.6"/>
            <line id="Linha_169" data-name="Linha 169" class="cls-17" x1="118.85" y1="116.11" x2="340.99" y2="-76.91"/>
            <line id="Linha_170" data-name="Linha 170" class="cls-13" x1="103.45" y1="335.67" x2="325.59" y2="142.65"/>
            <line id="Linha_171" data-name="Linha 171" class="cls-8" x1="105.2" y1="310.72" x2="327.34" y2="117.7"/>
            <line id="Linha_174" data-name="Linha 174" class="cls-10" x1="120.6" y1="91.16" x2="342.74" y2="-101.86"/>
            <line id="Linha_175" data-name="Linha 175" class="cls-12" x1="106.88" y1="286.77" x2="329.02" y2="93.74"/>
            <line id="Linha_176" data-name="Linha 176" class="cls-7" x1="108.56" y1="262.82" x2="330.77" y2="68.79"/>
            <line id="Linha_180" data-name="Linha 180" class="cls-16" x1="110.31" y1="237.87" x2="332.45" y2="44.84"/>
            <line id="Linha_181" data-name="Linha 181" class="cls-11" x1="112.06" y1="212.92" x2="334.2" y2="19.89"/>
          </g>
        </g>
      </g>
      <g>
        <g class="cls-32">
          <g id="character_sit" data-name="character sit">
            <g>
              <g>
                <path class="cls-34" d="M82.11,159.17c-1.81-1.35-3.63-2.7-5.45-4.05,0-.04,0-.09,0-.13,0,0-.32-.22-.93-.56,0,0,0,0-.01,0h0c-4.8-2.72-29.6-14.28-72.95,5.26.06,2.04.13,4.08.19,6.12,1.83.64,3.66,1.29,5.48,1.93-.02-.7-.04-1.4-.06-2.1,22.77-.67,45.54-1.06,68.32-1.16,1.8-1.77,3.6-3.54,5.41-5.31Z"/>
                <path class="cls-44" d="M45.2,202.69c1.84-13.96,3.72-27.92,5.63-41.87-3.98.06-7.96.12-11.94.19.25,13.93.51,27.85.76,41.78,1.85-.03,3.7-.07,5.56-.1Z"/>
                <path class="cls-44" d="M82.1,157.07c.13.07-25-17.34-73.84,4.54.06,2.04.12,4.08.18,6.12,24.56-.72,49.12-1.11,73.68-1.17,0-3.16-.02-6.33-.02-9.49Z"/>
              </g>
              <g>
                <path class="cls-38" d="M130.33,40.87c3.97.06,7.94.12,11.91.2,6.11.11,11.43,3.89,13.06,9.27.07.24.15.48.22.73.86,2.82,2.75,5.29,5.36,6.98,2.51,1.63,5.01,3.27,7.52,4.91,5.64,3.7,9,9.66,9.07,16.02h0c.05,4.13-1.3,8.16-3.83,11.54-4.95,6.61-9.86,13.23-14.74,19.87-6.26,8.52-6.36,19.74-.41,28.44h0c3.68,5.38,5.08,11.86,3.96,18.16-2.94,16.61-5.84,33.23-8.69,49.86-28.71-.69-57.43-.92-86.15-.7,3.39-18.86,6.85-37.72,10.38-56.57.9-4.78,3.21-9.23,6.7-12.81,1.25-1.28,2.5-2.56,3.75-3.84,5.9-6.04,8.42-14.36,6.71-22.41-1.81-6.68-3.64-13.35-5.48-20.03-2.98-7.93-1.88-14.49-1.88-14.49,2.42-9.05,11.39-16.16,20.7-19.9.37-.15.73-.3,1.1-.44,2.59-1.04,4.77-2.78,6.25-4.99.85-1.27,1.69-2.53,2.54-3.79,2.54-3.79,7.08-6.07,11.95-6Z"/>
                <path class="cls-38" d="M117.8,40.72c3.97.04,7.94.09,11.92.15,6.11.09,11.44,3.84,13.1,9.21.07.24.15.48.22.72.87,2.82,2.78,5.27,5.39,6.96,2.52,1.62,5.03,3.25,7.54,4.88,5.66,3.68,9.04,9.62,9.14,15.98h0c.06,4.13-1.26,8.16-3.78,11.56-4.92,6.63-9.81,13.28-14.66,19.93-6.23,8.55-6.27,19.77-.28,28.44h0c3.7,5.36,5.13,11.83,4.04,18.14-2.87,16.63-5.69,33.26-8.47,49.89-28.71-.57-57.44-.67-86.15-.32,3.3-18.88,6.68-37.75,10.13-56.61.88-4.79,3.17-9.24,6.64-12.83,1.24-1.29,2.49-2.57,3.73-3.86,5.87-6.06,8.36-14.39,6.61-22.44-1.84-6.67-3.7-13.34-5.56-20-3.01-7.91-1.95-14.48-1.94-14.48,2.38-9.06,11.32-16.21,20.61-19.99.37-.15.73-.3,1.1-.45,2.58-1.05,4.76-2.8,6.23-5.02.84-1.27,1.68-2.54,2.52-3.8,2.52-3.8,7.05-6.1,11.93-6.05Z"/>
                <g class="cls-41">
                  <path class="cls-44" d="M121.07,199.48c-11.9.42-23.79.91-35.68,1.49,1.29-63.57,12.11-127.18,33.78-187.65,11.81,4.32,23.56,8.71,35.26,13.18-31.11,53.27-39.33,114.9-33.37,172.98Z"/>
                </g>
                <path class="cls-36" d="M168.4,62.96c-2.5-1.64-5.01-3.28-7.51-4.91-2.6-1.7-4.5-4.16-5.36-6.98-.07-.24-.15-.48-.22-.73-1.64-5.38-6.95-9.16-13.06-9.27-3.59-.07-7.19-.13-10.78-.18,1.08-.22,20.9,9.26,20.81,44.97-.07,19.15-23.56,23.6-16.33,46.16.11.36.24.72.37,1.1,4.59,12.89,5.04,26.78.74,39.72-2.15,6.47-4.54,12.43-7.16,17.61.87-.2,1.83-.15,2.81.28,8.15,3.57,16.74,7.01,24.29,11.79.24-1.3.49-2.6.74-3.9.27-1.42-.65-2.75-2.01-3.13,2.22-12.84,4.46-25.67,6.74-38.51.13-.75.22-1.5.29-2.25.02-.28.02-.56.04-.83.02-.47.05-.93.04-1.39,0-.35-.03-.71-.05-1.06-.02-.38-.04-.76-.08-1.14-.04-.4-.1-.8-.16-1.19-.05-.32-.1-.64-.16-.96-.08-.43-.18-.86-.29-1.29-.07-.27-.14-.53-.22-.8-.13-.46-.27-.92-.43-1.38-.07-.21-.16-.42-.24-.63-.19-.5-.39-.99-.61-1.47-.06-.14-.14-.28-.2-.42-.55-1.14-1.16-2.26-1.89-3.33-5.95-8.71-5.86-19.93.4-28.45,1.62-2.2,3.24-4.39,4.86-6.59,3.25-4.39,6.52-8.78,9.8-13.16,1.14-1.53,2.11-3.17,2.75-4.93,3.16-8.65-.29-17.75-7.91-22.74Z"/>
              </g>
              <g>
                <path class="cls-44" d="M133.71,58.92c1.42-.14,2.51-.06,3.65.16,1.12.21,2.17.58,3.18,1.03,2.02.89,3.71,2.28,5.19,3.83,1.49,1.54,2.71,3.33,3.54,5.27.88,1.91,1.25,4.05,1.09,6.15-.09,1.17-1.18,2.04-2.44,1.96-.44-.03-.84-.17-1.17-.39-.08-.05-.16-.11-.24-.16-1.68-1.12-2.94-2.19-4.29-3.15-1.3-.98-2.54-1.91-3.8-2.82-1.25-.92-2.51-1.8-3.66-2.9-.59-.54-1.15-1.12-1.7-1.77-.52-.65-1.14-1.38-1.49-2.2-.15-.36-.3-.71-.45-1.07-.63-1.49.17-3.17,1.8-3.75.26-.09.54-.15.8-.18Z"/>
                <path class="cls-44" d="M109.29,63.67c-.37.82-1,1.53-1.54,2.17-.56.64-1.14,1.21-1.74,1.73-1.17,1.07-2.46,1.92-3.72,2.81-1.28.88-2.55,1.78-3.86,2.73-1.37.93-2.66,1.97-4.36,3.05-.08.05-.16.1-.24.15-1.04.66-2.46.42-3.18-.54-.25-.33-.38-.72-.4-1.1-.11-2.1.31-4.23,1.23-6.12.87-1.92,2.13-3.69,3.65-5.19,1.51-1.52,3.24-2.86,5.27-3.71,1.01-.43,2.07-.76,3.2-.95,1.15-.19,2.24-.25,3.66-.08,1.73.21,2.95,1.66,2.73,3.25-.04.25-.11.5-.21.72-.16.36-.32.72-.48,1.08Z"/>
              </g>
              <path class="cls-34" d="M15.79,195.55c0,.14,1.05-12.17,59.14-12.72,58.11-.14,78.35,12.62,78.33,12.49-22.95,1.3-45.86,2.88-68.73,4.76-.03-.19-59.69,3.23-68.74-4.54Z"/>
            </g>
            <g>
              <g>
                <g>
                  <g>
                    <path class="cls-33" d="M106.83,68.05c-1.84,1.18-4.84,2.15-8.5,2.72-.74.12-1.5.22-2.29.3-1.56.17-3.2.27-4.91.29-.28,0-.56,0-.84,0-1.06,0-2.1-.03-3.11-.09-.03,0-.05,0-.07,0-5.04-.29-9.39-1.24-12.15-2.57-.38-2.77-.58-5.71.08-6.41.33-.35.68-.63,1.01-.86,0,0,0,0,0,0,.58-.22,1.22-.65,1.89-.85,3.28-.96,7.6-1.33,12.34-1.33,5.02,0,9.57.58,12.91,1.64.62.2,1.21.48,1.75.71.01,0,.03.02.05.02.75.37,1.58.88,2.16,1.5.58.62.24,2.73-.33,4.93Z"/>
                    <path class="cls-49" d="M130.9,72.69s4.21,13.32,6.36,28.37c2.14,15.05,4.46,24.88,4.04,27.64-.43,2.76-4.36,14.2-14.86,6.83-1.82-1.28-10.06-34.26-10.55-37.37-.49-3.11-4.05-33.67,15.01-25.48Z"/>
                    <path class="cls-49" d="M52.53,74.1s-3.24,13.17-5.39,28.22c-2.14,15.05-4.46,24.88-4.04,27.64.42,2.76,4.36,14.2,14.86,6.83,1.82-1.28,10.06-34.26,10.55-37.37.49-3.11,3.08-33.51-15.98-25.33Z"/>
                    <path class="cls-49" d="M81.66,62.28s-27.11,9.87-27.76,11.78c-.65,1.9,1.43,19.7,8.89,52.89.82,3.64,2.47,32.64,3.04,34.79,5.11,19.23,38.24,16.07,49.38,6.33,2.1-1.84-.4-23.94.22-27.64.62-3.7,5.02-17.23,6.25-25.78,1.51-10.5,7.87-42.85,7.87-42.85l-29.74-9.51s-2.39-.48-18.14,0Z"/>
                    <path class="cls-43" d="M116.43,161.61s1.58,12.17,2.45,18.99c.67,5.34-18.97,14.04-31.56,12.71-5.92-.62-22.65-1.62-22.64-12.72.01-18.46,1.45-29,11.71-32.94,8.12-3.12,35.09,1.69,37.22,3.76,2.14,2.07,2.81,10.19,2.81,10.19Z"/>
                    <path class="cls-46" d="M65.83,161.74s39.88.68,50.49-1.16l2.64,20.74s-23.2,3.19-26.08,12.13h-1.41s-19.89-12.51-26.8-11.65c0,0-1.06-11.67,1.15-20.06Z"/>
                    <path class="cls-39" d="M81.03,49.92c.08.25-.09,13.55-.09,13.55,0,0,11.04,5,19.29-.59l-1.27-15.04-17.93,2.08Z"/>
                    <g>
                      <path class="cls-25" d="M64.02,158.42s-4.9,20.97-4.69,27.47c.2,6.5,17.32,10.37,33.65,9.96,28.89-.72,34.04-10.06,31.74-19.05-2.3-9-6.18-18.38-6.18-18.38,0,0-28.17,5.51-54.51,0Z"/>
                      <path class="cls-20" d="M94.64,164.24c0-1.19-.96-2.15-2.15-2.15s-2.15.96-2.15,2.15.96,2.15,2.15,2.15,2.15-.96,2.15-2.15Z"/>
                    </g>
                    <g>
                      <path class="cls-29" d="M59.74,71.29c-1.5-.14-8.28,1.02-9.81,6.36-1.54,5.34-7.81,28.37-7.81,28.37l25.19,3.72s4.58-17.75,6.18-23.41c1.6-5.66-10.79-14.75-13.74-15.04Z"/>
                      <path class="cls-47" d="M42.57,103.72l-2.49,8.27s16.52,5.24,25.88,5.23l1.92-9.15-25.31-4.35Z"/>
                      <path class="cls-49" d="M59.88,129.76s-9.01-14.47-15.98-22.35c-6.97-7.88-16.77-17.09-16.77-17.09,0,0-7.49-2.08-6.27,5.74.19,1.24,18.16,32.77,18.82,34.46.66,1.69,7.32,12.92,14.37,9.19,8.15-4.31,5.82-9.95,5.82-9.95Z"/>
                      <path class="cls-29" d="M128.12,71.32c1.5-.14,5.31,2.13,7.8,8.85,1.93,5.21,9.82,25.88,9.82,25.88l-25.19,3.72s-4.58-17.75-6.18-23.41c-1.6-5.66,10.79-14.75,13.74-15.04Z"/>
                      <path class="cls-47" d="M145.29,103.75l2.49,8.27s-16.52,5.24-25.88,5.23l-1.92-9.15,25.31-4.35Z"/>
                      <path class="cls-28" d="M73.97,62.68s-19.52,9.63-20.91,10.76c-1.39,1.13,9.06,52.64,9.39,62.73.33,10.08-1.62,21.04-.13,24.18,1.49,3.14-.33,3.11,1.95,3.14,2.29.03,40.38.92,56.13-1.58,2.75-.44-.17-17.81.06-23.5.23-5.69,1.07-16.59,2.56-25.35,1.49-8.75,8.01-38.67,7.99-40.61-.02-1.94-26.24-9.55-26.24-9.55-12.11,7.65-18.27,16.86-18.27,16.86-2.22-7.05-12.53-17.09-12.53-17.09Z"/>
                      <g>
                        <g>
                          <g>
                            <polygon class="cls-26" points="82.39 101.06 71.59 62.94 74.34 61.92 84.91 99.29 82.39 101.06"/>
                            <polygon class="cls-26" points="84.94 101.17 82.2 99.2 107.36 62.43 110.52 64.04 84.94 101.17"/>
                          </g>
                          <polygon class="cls-30" points="86.08 99.53 81.92 99.38 81.84 101.92 86 102.12 86.08 99.53"/>
                          <path class="cls-31" d="M88.38,101.83l-9.18-.37c-.46-.02-.84.36-.86.85l-.59,15.41c-.02.49.33.94.79.99l9.21,1.03c.5.06.91-.32.93-.84l.55-16.11c.02-.51-.37-.94-.86-.96ZM84.8,103.03l-2.29-.11c-.17,0-.3-.16-.29-.33s.15-.31.31-.3l2.29.1c.17,0,.3.16.29.33s-.15.32-.32.31Z"/>
                          <polygon class="cls-21" points="84.64 102.71 82.65 102.62 82.74 100.18 84.73 100.25 84.64 102.71"/>
                        </g>
                        <polygon class="cls-21" points="85.72 110.57 81.09 110.22 81.3 104.72 85.92 104.97 85.72 110.57"/>
                      </g>
                      <polygon class="cls-47" points="103.62 83.73 118.69 83.72 118.69 86.53 103.64 86.55 103.62 83.73"/>
                      <g>
                        <path class="cls-47" d="M76.98,60.91s-1.63.3-3.01,1.77c-1.38,1.46.87,12.22.87,12.22,0,0,1.36-4.54,4.49-2.56,4.32,2.73,7.16,7.43,7.16,7.43,0,0-.97-9.38-3.44-10.72-2.25-1.23-6.42-5.5-6.08-8.13Z"/>
                        <path class="cls-47" d="M107.09,63.22c-1.38-1.46-4.08-2.31-4.08-2.31.35,2.66-9.21,5.05-12.42,8.88-1.76,2.09-4.08,9.98-4.08,9.98,0,0,6.12-4.52,10.56-7.05,2.53-1.44,7.76,1.61,7.76,1.61,0,0,3.65-9.65,2.27-11.11Z"/>
                      </g>
                    </g>
                  </g>
                  <g>
                    <g>
                      <path class="cls-49" d="M103.28,26.55v15.09c0,9.39-7.71,17.01-17.22,17.01-4.76,0-9.06-1.9-12.18-4.98-3.12-3.08-5.04-7.33-5.04-12.03v-15.09c0-9.25,7.47-16.77,16.78-17.01.08,0,.15,0,.23,0h.22c.23,0,.46,0,.69.02.21,0,.42.02.63.04.15,0,.29.02.43.04.13.01.25.02.38.04,3.9.48,7.4,2.24,10.04,4.85,2.33,2.3,3.99,5.25,4.68,8.55.24,1.12.36,2.29.36,3.48Z"/>
                      <path class="cls-42" d="M83.44,21.26c2.46-.16,14.2-.76,19.84,5.98v-.69c0-1.19-.12-2.35-.36-3.48-.69-3.3-2.35-6.26-4.68-8.55-2.64-2.61-6.14-4.37-10.04-4.85-.13-.02-.25-.03-.38-.04-.14-.01-.29-.03-.43-.04-.21-.02-.42-.03-.63-.04-.23-.01-.46-.02-.69-.02h-.22c-.08,0-.15,0-.23,0-9.31.23-16.78,7.76-16.78,17.01v2.76c2.39-.12,5.57-.66,7.41-2.46,3.23-3.16,4.1-5.38,7.2-5.58Z"/>
                      <path class="cls-42" d="M101.12,18.31c1.03,2.18,1.62,4.6,1.62,7.16v15.09c0,9.39-7.71,17.01-17.23,17.01-6.48,0-12.12-3.54-15.06-8.77,2.74,5.81,8.69,9.85,15.61,9.85,9.51,0,17.22-7.62,17.22-17.01v-15.09c0-2.99-.79-5.8-2.16-8.24Z"/>
                    </g>
                    <g>
                      <path class="cls-2" d="M76.69,36.45c0,1.37-.76,2.48-1.71,2.48s-1.71-1.11-1.71-2.48.77-2.48,1.71-2.48,1.71,1.11,1.71,2.48Z"/>
                      <path class="cls-2" d="M95.38,36.45c0,1.37-.76,2.48-1.71,2.48s-1.71-1.11-1.71-2.48.77-2.48,1.71-2.48,1.71,1.11,1.71,2.48Z"/>
                      <g>
                        <path class="cls-45" d="M78.98,47.51h11.43s1.13-.03.32,1.71c-.51,1.1-1.89,3.39-5.84,3.49-4.68.12-6.29-3.6-6.29-3.6,0,0-.77-1.61.38-1.61Z"/>
                        <path class="cls-23" d="M90.92,48.74c.39-1.25-.51-1.22-.51-1.22h-11.43c-.86,0-.65.9-.49,1.36,2.2.57,6.69,1.28,12.43-.13Z"/>
                      </g>
                      <path class="cls-2" d="M96.47,32.54c-.1,0-.19-.02-.29-.05-.73-.24-1.49-.36-2.26-.36s-1.52.12-2.25.36c-.1.03-.19.05-.29.05-.41,0-.77-.26-.9-.65-.16-.49.11-1.02.6-1.18.92-.3,1.87-.45,2.84-.45s1.92.15,2.84.45c.24.08.44.25.55.47.11.22.13.48.05.72-.13.39-.49.65-.9.65h0Z"/>
                      <path class="cls-2" d="M77.42,32.54c-.1,0-.2-.02-.29-.05-.73-.24-1.48-.36-2.25-.36s-1.53.12-2.25.36c-.1.03-.2.05-.29.05-.41,0-.77-.26-.9-.65-.08-.24-.06-.49.06-.72.11-.22.31-.39.55-.47.92-.3,1.87-.45,2.84-.45s1.92.15,2.84.45c.49.16.76.69.6,1.19-.13.39-.49.65-.9.65h0Z"/>
                      <path class="cls-39" d="M84.66,43.74c-3.51,1.42-5.41-.23-5.55-1.9-.09-1.08.52-2.04,1.56-2.45,2.14-.84,3.65-4.13,3.67-4.16h0c.01.76-.75,3.6-3.47,5.18-.59.34-.95.7-.91,1.24.08.93,1.43,2.32,4.7,2.09h0Z"/>
                    </g>
                    <g>
                      <g>
                        <path class="cls-2" d="M67.04,20.26c1.47-4.74,6.88-5.24,5.44-3.29-3.23,4.37-3.44,19.42-3.44,19.42,0,0-1.32-3.84-2-5.7-.06-.16-1.89-4.36,0-10.42Z"/>
                        <path class="cls-2" d="M77.84,20.71s14.58-2.89,19.8-.1c0,0-1.07-2.3-1.9-3.47-1.24-1.74-3.95-4.95-7.72-4.95-7.01,0-10.18,8.52-10.18,8.52Z"/>
                      </g>
                      <path class="cls-22" d="M101.91,11.21s7.34,0,8.28,8.88c.94,8.88-7.68,12.6-8.22,16.37,0,0,.7-13.95-4.33-15.85,0,0,4.41-8.14,4.27-9.4Z"/>
                    </g>
                    <g>
                      <path class="cls-49" d="M104.45,32.09s-2.08.46-2.81,6.32c-.72,5.86.74,6.35,1.18,6.55,0,0,5.31,1.48,7.15-7.3,1.53-7.3-5.52-5.56-5.52-5.56Z"/>
                      <path class="cls-39" d="M102.98,40.92s3.87-1.94.85-3.88c0,0,1.01-4.43,3.6-3.43,2.59,1,.51,5.15,0,6.01-1.08,1.8-4.45,4-4.45,1.3Z"/>
                    </g>
                  </g>
                </g>
                <g>
                  <polygon class="cls-18" points="61.77 97.59 62.82 96.66 48.6 55.96 15.82 60.7 14.62 61.42 61.77 97.59"/>
                  <g>
                    <polygon class="cls-1" points="47.83 56.77 14.62 61.42 30.93 100.83 61.77 97.59 47.83 56.77"/>
                    <g>
                      <path class="cls-40" d="M25.67,57.65l2.05,4.05,1.89-.27c-.2-.15-.43-.34-.53-.43-.19-.18.05-.44.42-.22.24.14.58.39.78.55l2.59-.38c.03-.19.09-.5.17-.68.13-.29.56-.13.57.08,0,.11-.03.32-.07.51l1.94-.29-1.82-3.95-8,1.03Z"/>
                      <polygon class="cls-1" points="33.85 57.01 25.87 58.05 25.67 57.65 33.67 56.62 33.85 57.01"/>
                      <path class="cls-27" d="M31.16,55.09c-.02-.08-.11-.19-.28-.33-.59-.46-3.7-.63-4.49.54-.09.14-.01.28.04.36.15.22.48.38.83.56.34.17.71.36.78.54.12.34.65,2.67.96,4.01.03.1.15.19.27.2.13,0,.21-.07.19-.18-.18-.77-.82-3.63-.97-4.05-.12-.35-.61-.6-1.04-.81-.25-.13-.53-.27-.6-.37-.01-.02,0-.04,0-.06.1-.22.71-.61,1.66-.73.95-.11,1.85.1,2.13.27.02.01.06.04.06.06.03.1-.1.3-.21.46-.19.29-.4.62-.2.96.24.4,2.25,3.05,2.79,3.76.07.09.22.14.32.1.1-.04.13-.15.06-.24-.93-1.23-2.55-3.38-2.75-3.71-.1-.17.06-.42.21-.65.15-.24.3-.46.24-.68Z"/>
                    </g>
                  </g>
                </g>
                <g>
                  <path class="cls-49" d="M19.95,94.57c-1.02-2.58-3.29-11.75-2.41-14.68.88-2.93,6.21-6.3,6.93-5.04,1.2,2.1,5.1,8.87,4.69,10.74-.41,1.87-1.42,5.13-1.59,8.81-.18,3.68-5.53,5.46-7.62.17Z"/>
                  <path class="cls-49" d="M20.15,76.49c1.45-1.29,3.04-2.02,6.98-3.41,3.94-1.39,8.5-2.32,8.98-1.49.42.74.43,1.49-1.43,2.31-1.85.83-6.76,2.3-9.42,3.78-2.66,1.48-3.92,2.86-4.83,1.84-.91-1.02-1.58-1.88-.29-3.03Z"/>
                  <path class="cls-49" d="M23.09,78.5s2.64-.86,7.01-2.88c3.79-1.76,8.31-2.52,8.79-1.68.52.92.43,1.48-1.43,2.31-1.86.83-6.34,2.34-9,3.82-2.66,1.48-4.35,2.82-5.25,1.8-.91-1.02-1.24-2.04-.12-3.36Z"/>
                  <path class="cls-49" d="M22.68,82.41c1.82-.99,3.42-1.06,7.25-2.79,3.81-1.72,8.12-2.5,8.6-1.67.38.65.37,1.38-1.48,2.21-1.86.83-6.34,2.34-9,3.82-2.66,1.48-4.35,2.82-5.25,1.8s-1.24-2.04-.11-3.37Z"/>
                  <path class="cls-49" d="M23.16,86.09s2.68-1.25,6.13-2.61c4.09-1.62,7.42-2.17,7.91-1.35.24.41-.04,1.23-1.67,1.98-1.64.76-4.53,1.55-7.49,3.72-2.19,1.61-3.81,2.64-4.66,1.59s-1.19-2.06-.22-3.33Z"/>
                </g>
              </g>
              <g>
                <path class="cls-19" d="M104.79,45.15c-1.52-.51-2.46-1.73-3.04-3-.82-1.8-1.05-3.88-.3-5.87.75-1.99,3.26-4.38,6.99-4.73.97-.09,2.26.95,2.57,1.72.58,1.44-.57,3.6-.32,5.14.29,1.78,1.63,3.33.52,5.08-.93,1.46-4.86,2.19-6.43,1.66Z"/>
                <path d="M108.6,44.55c-.96-.1-1.81-.52-2.61-.95-1.26-.68-1.87-1.96-2.14-3.21-.4-1.86-.55-3.92.51-5.63,1.43-2.32,4.36-2.93,5.42-3.09.73-.11,1.48-.11,2.2,0,.48.07.97.2,1.34.46.5.35.73.89.92,1.42.62,1.73.94,3.56.77,5.38-.14,1.53-.61,3.18-1.59,4.52-.97,1.33-3.27,1.28-4.81,1.11Z"/>
                <path d="M113.4,43.41s.07-.09.1-.14c-.58-.49-1.24-.92-1.82-1.41-2.13-1.81-3.02-4.38-3.84-6.85-.04,1.15-.28,2.3-.71,3.4-.28.72-.77,1.52-1.65,1.7-.85.17-1.28-.42-1.83-.69.05.32.11.63.18.94.27,1.25.88,2.53,2.14,3.21.8.43,1.66.85,2.61.95,1.55.16,3.84.21,4.81-1.11Z"/>
                <path class="cls-4" d="M111.44,28.29c-.41-.19-.92-.06-1.37.06-.08.02-.17.05-.23.11-.05.06-.06.13-.07.2-.08.43-.37.81-.68,1.16-1.19,1.35-2.72,2.52-3.52,4.06-.54,1.04-.7,2.19-.66,3.31.07,2.35.99,4.71,2.86,6.42.69.63,1.72,1.02,2.81,1.02,1.09,0,2.52-.79,3.23-1.47.87-.83,1.39-2.43,1.45-3.52.36-6.67-2.95-7.99-3.23-10.43-.05-.46-.12-.71-.59-.93ZM111.59,29.93c.15.46.49.85.55,1.11.01.05.02.11-.03.15-.06.06-.18.03-.26,0-.3-.11-.61-.18-.94-.21-.73-.07-1.47.04-2.2.18-.25-.1.16-.29.3-.41.28-.24.53-.5.74-.77.21-.27.33-.58.54-.84.15-.18.39-.33.66-.25.38.12.49.65.62,1.05Z"/>
                <path class="cls-37" d="M105.52,35.64c-.29,2.05.18,4.15,1.33,5.94.52.81,1.19,1.57,2.12,2.05.93.48,2.16.63,3.16.21,1.11-.46,1.73-1.49,2.06-2.49.61-1.86.5-3.81.13-5.69-.24-1.2-.61-2.44-1.6-3.32-1.15-1.01-2.85-1.02-4.36-.54-1.81.57-2.63,2.37-2.83,3.84Z"/>
                <path d="M108.66,38.41c-.37-.79-.56-1.67-.38-2.52.13-.62.47-1.25,1.1-1.61.63-.36,1.56-.37,2.05.09-.99.13-1.79.85-2.11,1.65-.31.81-.21,1.68.03,2.48.28.95.81,1.63,1.43,2.42-1-.53-1.7-1.61-2.12-2.51Z"/>
                <path class="cls-37" d="M112.76,28.42c.42-.89.46-1.9.39-2.89-.24-3.67-1.81-7.25-3.5-10.7-1.16-2.37-2.4-4.75-4.24-6.77-3.31-3.63-8.55-5.83-13.6-5.72-4.16.09-7.63-.04-15.31,5.03-3.28,2.16,2.04,2.94,4.49.8,1.17-1.02,2.68-1.68,4.21-2.24,1.92-.71,3.98-1.32,6.12-1.17,2.61.18,5.1,1.5,7.01,3.21s3.31,3.8,4.61,5.9c2.16,3.49,4.38,7.55,4.31,11.5-.03,1.48-.77,2.75.66,3.97,1.72,1.47,4.04.8,4.86-.91Z"/>
                <path d="M100.05,4.15c3.93,2.38,7.28,8,9.35,12.61,1.39,3.11,2.46,6.65.97,9.55-.43.84-1.32,1.67-2.37,1.43-.43-.1-.75-.34-.99-.65-.07.77.03,1.49.86,2.2,1.72,1.47,4.04.8,4.86-.91.42-.89.46-1.9.39-2.89-.24-3.67-1.81-7.25-3.5-10.7-1.16-2.37-2.4-4.75-4.24-6.77-1.41-1.54-3.39-2.89-5.33-3.85Z"/>
              </g>
              <path class="cls-22" d="M100.66,8.9c-2.95-4.41-9.51-9.38-18.52-6.31-4.81,1.64-8.54,3.86-11.31,6.58v-.03s-.02.03-.07.09c-.61.6-1.16,1.23-1.68,1.88-2.02,2.17-5.07,5-7.02,5.19,0,0,1.04,2.2,3.79,2.07.05,2.45-4.14,4.79-4.14,4.79,1.75,3.36,7.1,4.43,7.1,4.43,9.78,1.01,11.09-13.6,19.23-13.75,4.22-.08,9.58,6.76,9.58,6.76,3.07-1.35,3.98-5.13,4.2-7.47.11-1.14-.64-3.44-1.18-4.25Z"/>
              <g>
                <path class="cls-3" d="M68.66,13.3s-.06,7.41-4.98,9.87c0,0,2.79,0,4.55-2.71,2-3.09.43-7.16.43-7.16Z"/>
                <path class="cls-3" d="M67.58,13.51s-1.37,2.61-3.9,2.96c0,0,1.52.9,2.87.09,1.71-1.03,1.03-3.05,1.03-3.05Z"/>
              </g>
              <path class="cls-3" d="M101.82,12.22s1.02,6.05-4.11,8.38c0,0,4.18-3.39,4.11-8.38Z"/>
              <path class="cls-24" d="M107.72,18.12c-.48-.29-.81-.97-.96-1.48-.27-.89-.33-1.68-.57-2.54-.62-2.14-2.51-4.65-4.6-6.4-1.13-.94-2.35-1.71-3.53-2.22-.84-.36-1.22-1.6-.58-1.36,2.59.97,5.47,3.2,7.53,5.77,1.96,2.45,3.12,5.1,3.37,7.38.06.52.13,1.33-.65.85Z"/>
            </g>
            <g id="right_leg" data-name="right leg">
              <path id="shin_right" data-name="shin right" class="cls-48" d="M34.24,260.06l16.59-6.06s-11.9-54.2-14.87-63.71c-1.48-4.75-4.65-7.38-10.4-12.57-5.77-5.21-25.56.77-22.42,10.64,5.36,13.56,16.04,35.13,31.1,71.7Z"/>
              <g id="hip_right" data-name="hip right">
                <path class="cls-48" d="M62.47,160.68c-12.6,1.9-52.71,16.6-55.09,18.58s20.02,15.09,20.02,15.09l49.66-.28,17.59-33.25s-19.57-2.03-32.18-.13Z"/>
              </g>
            </g>
            <g id="left_leg" data-name="left leg">
              <path id="shin_left" data-name="shin left" class="cls-25" d="M82.57,184.82s-2.12,21.05-2.57,29.15c-.45,8.1-8.09,46.04-8.09,46.04l-17.67-2.81c1.05-45.35.23-65.55-.3-73.18-.2-2.84.21-6.17.8-7.02,5.29-7.52,25.99-1.02,27.83,7.81Z"/>
              <g id="hip_left" data-name="hip left">
                <path class="cls-25" d="M111.39,158.72s5.2,17.76,4.55,23.17c-.43,3.64-5.47,9.34-7.5,11.33-2.03,1.99-45.89,4.2-49.18,1.22-3.29-2.98-4.57-15.66-3.85-17.72,1.53-4.35,27.25-13.06,27.25-13.06l28.73-4.95Z"/>
              </g>
            </g>
            <g>
              <path class="cls-34" d="M158.05,159.02c-1.78-1.4-3.56-2.8-5.34-4.2,0-.04,0-.09,0-.13,0,0-.32-.23-.91-.59,0,0,0,0,0,0,0,0,0,0,0,0-4.73-2.86-29.21-15.1-73.09,3.24,0,2.04.02,4.08.02,6.12,1.81.69,3.62,1.39,5.43,2.08,0-.7,0-1.4,0-2.1,22.78-.04,45.57.21,68.35.74,1.85-1.72,3.7-3.44,5.56-5.16Z"/>
              <path class="cls-44" d="M119.94,201.5c2.23-13.9,4.49-27.8,6.79-41.7-3.98-.05-7.97-.1-11.95-.14-.13,13.93-.26,27.86-.39,41.78,1.85.02,3.71.04,5.56.06Z"/>
              <path class="cls-44" d="M158.1,156.92c.13.08-24.52-18.02-73.96,2.5,0,2.04,0,4.08.01,6.12,24.57-.04,49.15.25,73.71.87.08-3.16.16-6.32.24-9.49Z"/>
            </g>
          </g>
        </g>
        <path class="cls-49" d="M138.72,135.72c-2.4,1.71-14.92,7.09-23.77,11.07-8.86,3.98-18.01,6.2-18.01,6.2,0,0-2.15-4.39,1.77-10.83.62-1.02,21.79-15.24,22.98-16.45,1.19-1.22,16.76-10.43,18.11-2.56,1.47,8.62,1.33,10.87-1.07,12.58Z"/>
        <g id="wrist_right_clock" data-name="wrist right clock">
          <g>
            <path class="cls-39" d="M83.43,144.49s-5.07,6.98-5.71,8.5c-.64,1.53-.78,9.46.11,9.79,1.72.41,2.3-1.38,2.55-6.87l4.91-7.07-1.86-4.35Z"/>
            <path class="cls-39" d="M86.89,151.49s-2.6,6.56-2.6,7.39c0,.84,2.96,5.49,3.81,5.32.85-.17,4.43-3.69,3.26-4.55-.55-.41-.87-2.61-1.8-4.44-1.04-2.05-2.68-3.72-2.68-3.72Z"/>
            <path class="cls-39" d="M84.91,148.2s-3.63,9.1-3.6,10.87c.03,1.66,3.35,8.1,4.3,8.21,1.77-.02,1.33-3.02-1.16-8.03l3.31-7.28-2.85-3.78Z"/>
            <path class="cls-39" d="M89.11,154.62s-1.47,5.13-.97,6.1c.5.96,4.29.64,5.01.04.72-.6,1.69-3.86,1.21-4.15-.47-.29-5.25-1.98-5.25-1.98Z"/>
            <path class="cls-39" d="M91.23,158.6s5.99-.67,17.88-9.48l-.76-2.86s-21.99,9.5-17.12,12.34Z"/>
            <path class="cls-49" d="M106.22,141.1s-21.21,1.46-22.78,3.39c-1.58,1.93,5.39,11.45,7.32,12.2,3.3,1.28,18.36-7.57,18.36-7.57,0,0,1.43-7.84-2.89-8.02Z"/>
          </g>
        </g>
      </g>
    </g>
  </g>
</svg>