<?xml version="1.0" encoding="UTF-8"?>
<svg xmlns="http://www.w3.org/2000/svg" xmlns:xlink="http://www.w3.org/1999/xlink" viewBox="0 0 183.57 177.8">
  <defs>
    <style>
      .cls-1 {
        fill: #35373b;
      }

      .cls-1, .cls-2, .cls-3, .cls-4, .cls-5, .cls-6, .cls-7, .cls-8, .cls-9, .cls-10, .cls-11, .cls-12, .cls-13, .cls-14, .cls-15, .cls-16, .cls-17, .cls-18, .cls-19, .cls-20, .cls-21, .cls-22, .cls-23, .cls-24, .cls-25, .cls-26, .cls-27, .cls-28, .cls-29, .cls-30, .cls-31, .cls-32, .cls-33, .cls-34, .cls-35 {
        stroke-width: 0px;
      }

      .cls-36 {
        stroke: url(#Gradiente_sem_nome_9);
      }

      .cls-36, .cls-5, .cls-37, .cls-38, .cls-39, .cls-40, .cls-41, .cls-42, .cls-43, .cls-44, .cls-45, .cls-46 {
        fill: none;
      }

      .cls-36, .cls-37, .cls-38, .cls-39, .cls-40, .cls-41, .cls-42, .cls-43, .cls-44, .cls-45, .cls-46 {
        stroke-miterlimit: 10;
        stroke-width: 9px;
      }

      .cls-2 {
        fill: #b3b3b3;
      }

      .cls-3 {
        fill: #e2a36a;
      }

      .cls-4 {
        fill: #f4be84;
      }

      .cls-47 {
        clip-path: url(#clippath);
      }

      .cls-6 {
        fill: #f9e8ca;
      }

      .cls-7 {
        fill: #4d4d4d;
      }

      .cls-8 {
        fill: #262626;
      }

      .cls-9 {
        fill: #ffe5cc;
      }

      .cls-10 {
        fill: url(#_ÂÁ_Ï_ÌÌ_È_ËÂÌÚ_241);
        opacity: .5;
      }

      .cls-10, .cls-32, .cls-33 {
        mix-blend-mode: multiply;
      }

      .cls-37 {
        stroke: url(#Gradiente_sem_nome_9-11);
      }

      .cls-38 {
        stroke: url(#Gradiente_sem_nome_9-10);
      }

      .cls-11, .cls-32 {
        fill: #525b66;
      }

      .cls-12 {
        fill: #332f33;
      }

      .cls-48 {
        clip-path: url(#clippath-1);
      }

      .cls-49 {
        clip-path: url(#clippath-3);
      }

      .cls-50 {
        clip-path: url(#clippath-6);
      }

      .cls-51 {
        clip-path: url(#clippath-5);
      }

      .cls-13 {
        fill: #fff;
        opacity: .59;
      }

      .cls-14 {
        fill: #999;
      }

      .cls-15 {
        fill: #b0c1d1;
      }

      .cls-16 {
        fill: #ddb022;
      }

      .cls-17 {
        fill: #4c0714;
      }

      .cls-18 {
        fill: #c16202;
      }

      .cls-19, .cls-33 {
        fill: gray;
      }

      .cls-20 {
        fill: #211921;
      }

      .cls-21 {
        fill: #e5caa3;
      }

      .cls-22 {
        fill: #9b6335;
      }

      .cls-23 {
        fill: #ee7d00;
      }

      .cls-24 {
        fill: #6b3d2b;
      }

      .cls-39 {
        stroke: url(#Gradiente_sem_nome_9-9);
      }

      .cls-40 {
        stroke: url(#Gradiente_sem_nome_9-7);
      }

      .cls-41 {
        stroke: url(#Gradiente_sem_nome_9-8);
      }

      .cls-42 {
        stroke: url(#Gradiente_sem_nome_9-2);
      }

      .cls-43 {
        stroke: url(#Gradiente_sem_nome_9-3);
      }

      .cls-44 {
        stroke: url(#Gradiente_sem_nome_9-4);
      }

      .cls-45 {
        stroke: url(#Gradiente_sem_nome_9-5);
      }

      .cls-46 {
        stroke: url(#Gradiente_sem_nome_9-6);
      }

      .cls-25 {
        fill: #d6b799;
      }

      .cls-52 {
        isolation: isolate;
      }

      .cls-26 {
        fill: #282a2e;
      }

      .cls-27 {
        fill: #efd9b4;
      }

      .cls-28 {
        fill: #823a47;
      }

      .cls-29 {
        fill: #ffd336;
      }

      .cls-30 {
        fill: #5c000f;
      }

      .cls-31 {
        fill: #794830;
      }

      .cls-32 {
        opacity: .2;
      }

      .cls-33 {
        opacity: .43;
      }

      .cls-34 {
        fill: #d69356;
      }

      .cls-35 {
        fill: #1d1e21;
      }
    </style>
    <clipPath id="clippath">
      <circle class="cls-5" cx="28.27" cy="405.2" r="99.04"/>
    </clipPath>
    <linearGradient id="Gradiente_sem_nome_9" data-name="Gradiente sem nome 9" x1="-67.88" y1="107.58" x2="160.16" y2="107.58" gradientUnits="userSpaceOnUse">
      <stop offset="0" stop-color="#ee7d00"/>
      <stop offset="1" stop-color="#ffd336"/>
    </linearGradient>
    <linearGradient id="Gradiente_sem_nome_9-2" data-name="Gradiente sem nome 9" x1="-66.13" y1="82.63" x2="161.91" y2="82.63" xlink:href="#Gradiente_sem_nome_9"/>
    <linearGradient id="Gradiente_sem_nome_9-3" data-name="Gradiente sem nome 9" x1="-64.45" y1="58.68" x2="163.59" y2="58.68" xlink:href="#Gradiente_sem_nome_9"/>
    <linearGradient id="Gradiente_sem_nome_9-4" data-name="Gradiente sem nome 9" x1="-62.77" y1="34.73" x2="165.27" y2="34.73" xlink:href="#Gradiente_sem_nome_9"/>
    <linearGradient id="Gradiente_sem_nome_9-5" data-name="Gradiente sem nome 9" x1="-78.17" y1="254.29" x2="149.87" y2="254.29" xlink:href="#Gradiente_sem_nome_9"/>
    <linearGradient id="Gradiente_sem_nome_9-6" data-name="Gradiente sem nome 9" x1="-76.42" y1="229.34" x2="151.62" y2="229.34" xlink:href="#Gradiente_sem_nome_9"/>
    <linearGradient id="Gradiente_sem_nome_9-7" data-name="Gradiente sem nome 9" x1="-61.02" y1="9.78" x2="167.02" y2="9.78" xlink:href="#Gradiente_sem_nome_9"/>
    <linearGradient id="Gradiente_sem_nome_9-8" data-name="Gradiente sem nome 9" x1="-74.74" y1="205.39" x2="153.3" y2="205.39" xlink:href="#Gradiente_sem_nome_9"/>
    <linearGradient id="Gradiente_sem_nome_9-9" data-name="Gradiente sem nome 9" x1="-73.07" y1="180.94" x2="155.06" y2="180.94" xlink:href="#Gradiente_sem_nome_9"/>
    <linearGradient id="Gradiente_sem_nome_9-10" data-name="Gradiente sem nome 9" x1="-71.31" y1="156.49" x2="156.73" y2="156.49" xlink:href="#Gradiente_sem_nome_9"/>
    <linearGradient id="Gradiente_sem_nome_9-11" data-name="Gradiente sem nome 9" x1="-69.56" y1="131.54" x2="158.48" y2="131.54" xlink:href="#Gradiente_sem_nome_9"/>
    <clipPath id="clippath-1">
      <path class="cls-5" d="M0,0h183.57v177.8h-119.53C28.7,177.8,0,149.1,0,113.75V0h0Z"/>
    </clipPath>
    <clipPath id="clippath-3">
      <path class="cls-5" d="M66.9,35.58c-3.97.04-7.94.09-11.91.15-6.11.09-11.43,3.84-13.09,9.2-.07.24-.15.48-.22.72-.87,2.81-2.77,5.27-5.38,6.95-2.51,1.62-5.02,3.25-7.53,4.87-5.65,3.67-9.04,9.61-9.13,15.96h0c-.06,4.12,1.26,8.16,3.77,11.55,4.92,6.63,9.8,13.26,14.65,19.92,6.22,8.54,6.27,19.75.28,28.42h0c-3.7,5.36-5.12,11.82-4.03,18.13,2.87,16.61,5.69,33.23,8.46,49.85,28.69-.57,57.39-.67,86.08-.32-3.3-18.86-6.68-37.72-10.12-56.57-.88-4.78-3.17-9.23-6.63-12.82-1.24-1.29-2.48-2.57-3.73-3.86-5.86-6.06-8.35-14.38-6.61-22.42,1.84-6.66,3.69-13.33,5.56-19.99,3.01-7.91,1.94-14.47,1.94-14.47-2.38-9.05-11.31-16.2-20.6-19.97-.37-.15-.73-.3-1.1-.45-2.58-1.05-4.75-2.8-6.22-5.01-.84-1.27-1.68-2.53-2.52-3.8-2.52-3.79-7.05-6.09-11.92-6.04Z"/>
    </clipPath>
    <clipPath id="clippath-5">
      <path class="cls-5" d="M110.43,124.05c0-5.22,8.76-13.47,10.58-19.95,1.82-6.48-1.09-23.05-1.09-23.05,0,0-15.89-5.33-24.19-4.81s-27.73,10.22-27.73,10.22c2.33,25.15,18.78,33.34,18.78,38.46s-14,18.6-18.15,29.49c-4.15,10.89,55.26,8.21,59.68-.78-6.54-7.85-17.87-23.07-17.87-29.57Z"/>
    </clipPath>
    <linearGradient id="_ÂÁ_Ï_ÌÌ_È_ËÂÌÚ_241" data-name="¡ÂÁ˚ÏˇÌÌ˚È „‡‰ËÂÌÚ 241" x1="121.66" y1="268.02" x2="112.47" y2="268.31" gradientTransform="translate(-26.4 -203.54) rotate(-2.55)" gradientUnits="userSpaceOnUse">
      <stop offset="0" stop-color="#9b6335"/>
      <stop offset=".3" stop-color="#986034"/>
      <stop offset=".48" stop-color="#905931"/>
      <stop offset=".62" stop-color="#824d2c"/>
      <stop offset=".75" stop-color="#6e3b25"/>
      <stop offset=".86" stop-color="#54251c"/>
      <stop offset=".97" stop-color="#340a11"/>
      <stop offset="1" stop-color="#29000d"/>
    </linearGradient>
    <clipPath id="clippath-6">
      <path class="cls-5" d="M107.69,16.27l-12.26-1.75-7.47,3.72-5.24,7.12,4.31,13.14.35,7.19-1.76,10.18-4.29,1.42-5.47-.29-5.09-2.89-2.46-8.01v-12.91l1.83-11.93,5.26-6.74,10.37-6.4h12.73l10.15,3.49,7.33,5.06.64,12.88s-2.62,8.29-2.43,6.55c1.67-15.13-6.51-19.83-6.51-19.83Z"/>
    </clipPath>
  </defs>
  <g class="cls-52">
    <g id="Camada_1" data-name="Camada 1">
      <g class="cls-47">
        <g id="Grupo_de_máscara_8" data-name="Grupo de máscara 8">
          <g id="Grupo_260" data-name="Grupo 260">
            <line id="Linha_154" data-name="Linha 154" class="cls-36" x1="-64.93" y1="204.1" x2="157.21" y2="11.07"/>
            <line id="Linha_159" data-name="Linha 159" class="cls-42" x1="-63.18" y1="179.15" x2="158.96" y2="-13.88"/>
            <line id="Linha_164" data-name="Linha 164" class="cls-43" x1="-61.5" y1="155.19" x2="160.64" y2="-37.83"/>
            <line id="Linha_169" data-name="Linha 169" class="cls-44" x1="-59.82" y1="131.24" x2="162.32" y2="-61.78"/>
            <line id="Linha_170" data-name="Linha 170" class="cls-45" x1="-75.22" y1="350.8" x2="146.92" y2="157.78"/>
            <line id="Linha_171" data-name="Linha 171" class="cls-46" x1="-73.47" y1="325.85" x2="148.67" y2="132.83"/>
            <line id="Linha_174" data-name="Linha 174" class="cls-40" x1="-58.07" y1="106.29" x2="164.07" y2="-86.73"/>
            <line id="Linha_175" data-name="Linha 175" class="cls-41" x1="-71.79" y1="301.9" x2="150.35" y2="108.88"/>
            <line id="Linha_176" data-name="Linha 176" class="cls-39" x1="-70.11" y1="277.95" x2="152.1" y2="83.93"/>
            <line id="Linha_180" data-name="Linha 180" class="cls-38" x1="-68.36" y1="253" x2="153.78" y2="59.97"/>
            <line id="Linha_181" data-name="Linha 181" class="cls-37" x1="-66.61" y1="228.05" x2="155.53" y2="35.02"/>
          </g>
        </g>
      </g>
      <g class="cls-48">
        <g id="character_sit" data-name="character sit">
          <g>
            <g>
              <path class="cls-12" d="M102.56,153.94c1.81-1.35,3.63-2.7,5.45-4.05,0-.04,0-.09,0-.13,0,0,.32-.22.93-.56,0,0,0,0,.01,0h0c4.8-2.72,29.58-14.27,72.89,5.26-.06,2.04-.13,4.08-.19,6.11-1.83.64-3.65,1.28-5.48,1.93.02-.7.04-1.4.06-2.09-22.75-.67-45.51-1.05-68.26-1.16-1.8-1.77-3.6-3.54-5.41-5.31Z"/>
              <path class="cls-20" d="M139.44,197.42c-1.84-13.95-3.72-27.9-5.62-41.84,3.98.06,7.96.12,11.94.19-.25,13.91-.51,27.83-.76,41.74-1.85-.03-3.7-.07-5.55-.1Z"/>
              <path class="cls-20" d="M102.57,151.84c-.13.07,24.98-17.32,73.78,4.54-.06,2.04-.12,4.08-.18,6.12-24.54-.72-49.08-1.11-73.62-1.17,0-3.16.02-6.32.02-9.48Z"/>
            </g>
            <g>
              <path class="cls-7" d="M54.38,35.74c-3.97.06-7.94.12-11.91.2-6.11.11-11.42,3.89-13.05,9.26-.07.24-.15.48-.22.73-.86,2.82-2.75,5.28-5.35,6.98-2.51,1.63-5.01,3.27-7.51,4.91-5.64,3.7-9,9.65-9.06,16h0c-.05,4.12,1.3,8.15,3.83,11.53,4.94,6.6,9.86,13.22,14.73,19.85,6.26,8.51,6.36,19.73.41,28.42h0c-3.68,5.37-5.07,11.85-3.96,18.14,2.94,16.6,5.83,33.21,8.68,49.82,28.69-.69,57.39-.92,86.08-.7-3.38-18.85-6.84-37.69-10.37-56.52-.9-4.78-3.21-9.22-6.69-12.8-1.25-1.28-2.5-2.56-3.75-3.84-5.89-6.03-8.41-14.35-6.71-22.39,1.81-6.67,3.64-13.34,5.47-20.01,2.97-7.92,1.88-14.48,1.88-14.48-2.42-9.04-11.38-16.15-20.68-19.88-.37-.15-.73-.29-1.1-.44-2.59-1.04-4.77-2.78-6.24-4.99-.85-1.26-1.69-2.53-2.54-3.79-2.54-3.78-7.08-6.06-11.94-5.99Z"/>
              <path class="cls-19" d="M66.9,35.58c-3.97.04-7.94.09-11.91.15-6.11.09-11.43,3.84-13.09,9.2-.07.24-.15.48-.22.72-.87,2.81-2.77,5.27-5.38,6.95-2.51,1.62-5.02,3.25-7.53,4.87-5.65,3.67-9.04,9.61-9.13,15.96h0c-.06,4.12,1.26,8.16,3.77,11.55,4.92,6.63,9.8,13.26,14.65,19.92,6.22,8.54,6.27,19.75.28,28.42h0c-3.7,5.36-5.12,11.82-4.03,18.13,2.87,16.61,5.69,33.23,8.46,49.85,28.69-.57,57.39-.67,86.08-.32-3.3-18.86-6.68-37.72-10.12-56.57-.88-4.78-3.17-9.23-6.63-12.82-1.24-1.29-2.48-2.57-3.73-3.86-5.86-6.06-8.35-14.38-6.61-22.42,1.84-6.66,3.69-13.33,5.56-19.99,3.01-7.91,1.94-14.47,1.94-14.47-2.38-9.05-11.31-16.2-20.6-19.97-.37-.15-.73-.3-1.1-.45-2.58-1.05-4.75-2.8-6.22-5.01-.84-1.27-1.68-2.53-2.52-3.8-2.52-3.79-7.05-6.09-11.92-6.04Z"/>
              <g class="cls-49">
                <path class="cls-20" d="M63.63,194.21c11.89.42,23.77.91,35.65,1.49-1.29-63.52-12.1-127.07-33.76-187.5-11.8,4.32-23.54,8.71-35.23,13.17,31.09,53.22,39.3,114.81,33.34,172.85Z"/>
              </g>
              <path class="cls-33" d="M16.34,57.8c2.5-1.64,5-3.27,7.51-4.91,2.6-1.69,4.5-4.16,5.35-6.98.07-.24.15-.48.22-.72,1.63-5.38,6.94-9.15,13.05-9.26,3.59-.07,7.18-.13,10.77-.18-1.07-.22-20.89,9.25-20.79,44.94.07,19.14,23.54,23.59,16.32,46.12-.11.35-.24.72-.37,1.09-4.59,12.88-5.04,26.76-.74,39.69,2.15,6.47,4.54,12.42,7.16,17.6-.87-.2-1.83-.15-2.81.28-8.14,3.57-16.72,7.01-24.27,11.78-.24-1.3-.49-2.6-.73-3.9-.27-1.42.65-2.75,2.01-3.13-2.22-12.83-4.46-25.65-6.73-38.48-.13-.75-.22-1.49-.29-2.24-.02-.28-.02-.56-.04-.83-.02-.46-.05-.93-.04-1.39,0-.35.03-.71.05-1.06.02-.38.04-.76.08-1.14.04-.4.1-.8.16-1.19.05-.32.1-.64.16-.96.08-.43.18-.86.29-1.29.07-.27.14-.53.21-.8.13-.46.27-.92.43-1.38.07-.21.16-.42.24-.63.19-.5.38-.99.61-1.47.06-.14.14-.28.2-.42.55-1.14,1.16-2.26,1.89-3.32,5.95-8.7,5.86-19.91-.4-28.43-1.61-2.2-3.23-4.39-4.86-6.58-3.25-4.39-6.51-8.77-9.79-13.15-1.14-1.52-2.11-3.17-2.75-4.93-3.16-8.64.29-17.73,7.9-22.72Z"/>
            </g>
            <g>
              <path class="cls-20" d="M51.01,53.77c-1.41-.14-2.51-.06-3.65.16-1.12.21-2.17.58-3.17,1.02-2.01.89-3.71,2.27-5.18,3.82-1.49,1.54-2.71,3.33-3.54,5.27-.87,1.91-1.25,4.05-1.09,6.15.09,1.16,1.18,2.04,2.44,1.95.44-.03.84-.17,1.17-.39.08-.05.16-.11.24-.16,1.68-1.12,2.94-2.19,4.29-3.15,1.29-.98,2.54-1.91,3.8-2.82,1.25-.92,2.51-1.79,3.66-2.89.59-.54,1.15-1.12,1.7-1.77.52-.65,1.14-1.37,1.49-2.2.15-.36.3-.71.45-1.07.63-1.49-.17-3.17-1.79-3.74-.26-.09-.54-.15-.8-.18Z"/>
              <path class="cls-20" d="M75.4,58.52c.37.82,1,1.53,1.54,2.17.56.64,1.14,1.21,1.74,1.73,1.17,1.07,2.45,1.92,3.72,2.81,1.28.88,2.54,1.78,3.86,2.73,1.37.93,2.65,1.97,4.35,3.05.08.05.16.1.24.15,1.04.66,2.46.42,3.18-.54.25-.33.38-.72.4-1.1.11-2.1-.31-4.23-1.23-6.12-.87-1.92-2.13-3.68-3.65-5.19-1.51-1.51-3.23-2.86-5.27-3.71-1.01-.43-2.07-.76-3.2-.95-1.15-.19-2.24-.25-3.65-.08-1.73.21-2.95,1.66-2.72,3.24.04.25.11.5.21.72.16.36.32.72.48,1.07Z"/>
            </g>
            <path class="cls-12" d="M168.83,190.29c0,.14-1.05-12.16-59.09-12.71-58.07-.14-78.29,12.61-78.27,12.49,22.93,1.29,45.83,2.88,68.67,4.76.03-.19,59.64,3.23,68.69-4.54Z"/>
          </g>
          <g>
            <path id="shin_right" data-name="shin right" class="cls-16" d="M120.67,244.95l-3.8-1.35s1.16-44.84,4.12-54.35c1.48-4.74,9.56-18.71,13.93-24.42,4.39-5.74,16.99-2.51,13.88,7.35-4.97,13.69-14.32,35.76-28.14,72.77Z"/>
            <path class="cls-16" d="M104.61,146.44s40.46,15.63,42.45,17.68c1.99,2.05-21.02,14.47-21.02,14.47l-41.55-.29-9.61-27.62s23.94-8.11,29.73-4.24Z"/>
          </g>
          <path class="cls-29" d="M76.31,148.93s-4.35,18.42-3.81,24.03c.36,3.78,4.58,9.69,6.28,11.75,1.7,2.06,38.4,4.35,41.15,1.27,2.75-3.09,9.48-16.44,8.87-18.56-1.28-4.52-41.73-13.33-41.73-13.33l-10.76-5.15Z"/>
          <path id="shin_left" data-name="shin left" class="cls-29" d="M112.44,172.65s-2.78,21.95-2.36,30.34c.42,8.4,16.06,46.38,16.06,46.38h3.79c-1.86-64.48.04-80.27.04-80.27-.55-5.47-16.24-6.59-17.53,3.55Z"/>
          <path class="cls-35" d="M53.81,69.09c5.4-3.38,4.83-10.95,6.64-17.05,1.82-6.1,2.11-12.54,2.31-18.9.83,15.41,1.49,29.09-7.76,36,8.82-6.6,10.89-18.39,11.71-29.37-.75,4.17-.88,8.44-1.61,12.62-.72,4.18-2.12,8.39-4.98,11.52-2.86,3.13-2.94,3.98-6.31,5.19Z"/>
          <path class="cls-26" d="M83.96,14.68c-.33-2.66-6.88-7.52-9.9-8.32s-7.29-.91-12.54,2.44c-6.64,4.23-7.42,14.63-6.64,18.97,2.09,11.64,2.29,13.27-1.06,21.14-5.03,11.82,3.21,12.74-.04,20.39,16.14.84,16.69-21.15,15.09-24.88-2.56-5.98,16.16-21.17,15.09-29.74Z"/>
          <path class="cls-26" d="M83.57,55.84c5.33-1.6-1.59-10.95,3.83-8.11,10.59,5.55,7,6.16,8.31,5.63,6.36-2.57-1.5-9.94,5.12-10.11,6.85-1.86,7.39,3.72,11.68-4.72,2.23-4.37,3.47-15.86-.97-19.06-21.75-15.68-32.64-8-32.64-8-6.83,3.79-9.25,8.48-11.02,15.26-3.03,11.59.01,17.71,6.14,25.3,5.09,6.3,9.1,2.06,9.55,3.81Z"/>
          <g id="right_hand" data-name="right hand">
            <path class="cls-4" d="M114.02,110.11c2.87,19.01,4.94,24.61,10.26,24.93,9.4.57,5.3-15.53,3.86-27.82-2.81-24.04-5.04-26.69-11.88-26.49-7.24.21-5.61,3.62-2.23,29.38Z"/>
            <g>
              <polygon class="cls-4" points="142.4 116.78 148.82 114.41 149.89 116.79 143.69 121.07 142.4 116.78"/>
              <polygon class="cls-3" points="143.44 120.25 143.69 121.07 149.89 116.79 149.55 116.03 143.44 120.25"/>
              <path class="cls-4" d="M128.06,135.51c8.54-2.68,15.38-14.03,17.65-15.94l-1.31-3.53s-15.31,5.3-20.9,9.25c-3.95,2.79-3.81,5.14-2.49,7.41,1.12,1.93,2.57,4.2,7.05,2.8Z"/>
              <path class="cls-3" d="M125.29,134.4c-1.09.29-2.01.39-2.81.35,1.09,1.05,2.72,1.66,5.57.76,8.54-2.68,15.76-14.19,18.03-16.1l-.37-.74c-3.85,3.34-11.63,13.39-20.42,15.72Z"/>
            </g>
          </g>
          <g id="body">
            <path class="cls-30" d="M110.43,124.05c0-5.22,8.76-13.47,10.58-19.95,1.82-6.48-1.09-23.05-1.09-23.05,0,0-15.89-5.33-24.19-4.81s-27.73,10.22-27.73,10.22c2.33,25.15,18.78,33.34,18.78,38.46s-14,18.6-18.15,29.49c-4.15,10.89,55.26,8.21,59.68-.78-6.54-7.85-17.87-23.07-17.87-29.57Z"/>
            <g class="cls-51">
              <g>
                <g>
                  <path class="cls-28" d="M111.93,149.96c1.05.64,2.12,1.24,3.2,1.8.85-.95,1.69-1.9,2.51-2.83-1.08-.54-2.14-1.12-3.19-1.74-.82.91-1.66,1.83-2.51,2.76Z"/>
                  <path class="cls-28" d="M102.78,151.03c1,.78,2.01,1.52,3.05,2.23.92-.95,1.82-1.89,2.7-2.82-1.03-.69-2.05-1.41-3.04-2.17-.88.91-1.78,1.83-2.7,2.76Z"/>
                  <path class="cls-28" d="M121.01,148.2c1.09.49,2.2.94,3.31,1.36.79-.95,1.56-1.89,2.32-2.81-1.11-.39-2.21-.83-3.3-1.29-.76.9-1.54,1.82-2.33,2.75Z"/>
                  <path class="cls-28" d="M74.79,150.05c.77,1.18,1.57,2.33,2.4,3.46,1.14-.92,2.25-1.83,3.34-2.73-.83-1.1-1.63-2.23-2.4-3.39-1.09.88-2.2,1.77-3.33,2.67Z"/>
                  <path class="cls-28" d="M65.71,148.33c.68,1.3,1.39,2.58,2.12,3.83,1.21-.89,2.4-1.78,3.56-2.67-.74-1.23-1.45-2.48-2.13-3.76-1.16.86-2.34,1.73-3.55,2.6Z"/>
                  <path class="cls-28" d="M83.95,151.07c.86,1.05,1.74,2.08,2.64,3.07,1.06-.93,2.1-1.86,3.12-2.78-.9-.97-1.79-1.97-2.65-3.01-1.02.9-2.06,1.8-3.12,2.71Z"/>
                  <path class="cls-28" d="M93.58,151.41c.93.92,1.89,1.8,2.87,2.65.99-.95,1.96-1.88,2.9-2.81-.98-.83-1.93-1.69-2.87-2.58-.95.91-1.91,1.82-2.9,2.74Z"/>
                  <path class="cls-28" d="M56.75,145.93c.57,1.42,1.18,2.81,1.82,4.17,1.29-.86,2.55-1.73,3.79-2.59-.64-1.34-1.25-2.71-1.83-4.11-1.23.84-2.49,1.68-3.77,2.52Z"/>
                </g>
                <path class="cls-28" d="M55.19,145.43s-.01-.03-.02-.05c-.02.01-.03.02-.05.03,0,.02.01.03.02.06.02-.01.03-.02.05-.03Z"/>
                <path class="cls-28" d="M62.97,147.67s0,0,0,.01c0,0,0,0,0-.01Z"/>
                <path class="cls-28" d="M62.98,147.66s0,0,0,.01c0,0,0,0,0-.01Z"/>
                <path class="cls-28" d="M62.59,147.35c-.08.06-.16.11-.24.17.04.09.08.17.12.26.12.25.42.13.5-.09,0,0,0,0,0-.01,0,0,0,0,0-.01.04-.23-.16-.48-.39-.31Z"/>
                <path class="cls-28" d="M56.5,146.09c.08-.05.17-.11.25-.16-.04-.09-.07-.18-.11-.28-.05.15-.09.29-.14.44Z"/>
                <path class="cls-28" d="M60.41,143.13c.04.09.07.18.11.27.08-.05.16-.11.24-.16-.12-.04-.23-.07-.35-.11Z"/>
                <path class="cls-28" d="M58.69,150.37c-.04-.09-.08-.18-.12-.27-.08.06-.17.11-.25.17.12.03.25.07.38.1Z"/>
                <path class="cls-28" d="M62.84,147.87c.07-.05.11-.11.13-.18-.08.22-.37.34-.5.09-.04-.09-.08-.17-.12-.26-1.24.86-2.5,1.72-3.79,2.59.04.09.08.18.12.27-.12-.03-.25-.06-.38-.1.08-.06.17-.11.25-.17-.64-1.37-1.24-2.76-1.82-4.17-.08.05-.17.11-.25.16.05-.15.09-.29.14-.44.04.09.07.18.11.28,1.28-.84,2.54-1.68,3.77-2.52-.04-.09-.08-.18-.11-.27.12.04.23.07.35.11-.08.05-.16.11-.24.16.58,1.39,1.19,2.76,1.83,4.11.08-.06.16-.11.24-.17.23-.16.43.09.39.31.02-.07.02-.14-.02-.22-.73-1.51-1.42-3.06-2.07-4.63-.03-.07-.09-.12-.15-.14-.06-.02-.14-.01-.2.03-1.39.94-2.81,1.89-4.26,2.84-.14.09-.2.29-.14.44.64,1.6,1.33,3.18,2.05,4.73.03.07.09.12.16.14.07.02.15,0,.21-.04,1.46-.98,2.89-1.96,4.28-2.93Z"/>
                <path class="cls-28" d="M64.13,147.96s-.01-.03-.02-.05c-.02.01-.03.02-.05.03.01.02.02.03.03.05.02-.01.03-.02.05-.03Z"/>
                <path class="cls-28" d="M72.02,149.6s0,0,0,.01c0,0,0,0,0-.01Z"/>
                <path class="cls-28" d="M72.03,149.59s0,0,0,.01c0,0,0,0,0-.01Z"/>
                <path class="cls-28" d="M71.91,149.79c.07-.05.1-.11.11-.18-.06.21-.35.34-.48.12-.05-.08-.1-.16-.14-.24-1.16.89-2.35,1.78-3.56,2.67.05.08.1.16.14.24-.13-.02-.25-.05-.38-.07.08-.06.16-.12.24-.17-.74-1.25-1.44-2.52-2.12-3.83-.08.06-.16.11-.23.17.03-.14.07-.28.1-.42.04.08.09.17.13.25,1.21-.87,2.39-1.74,3.55-2.6-.04-.08-.09-.17-.13-.25.12.03.24.05.36.08-.07.06-.15.11-.23.17.68,1.28,1.39,2.53,2.13,3.76.08-.06.15-.11.23-.17.22-.17.43.06.41.27.01-.07,0-.14-.04-.21-.83-1.38-1.64-2.79-2.41-4.24-.04-.07-.09-.11-.16-.13-.06-.01-.14,0-.2.04-1.3.97-2.64,1.95-4.01,2.93-.13.09-.18.28-.1.42.76,1.48,1.56,2.92,2.4,4.33.04.07.1.11.17.12.07.01.15,0,.21-.05,1.37-1.01,2.71-2.02,4.02-3.02Z"/>
                <path class="cls-28" d="M71.62,149.31c-.07.06-.15.11-.23.17.05.08.1.16.14.24.14.23.43.09.48-.12,0,0,0,0,0-.01,0,0,0,0,0-.01.03-.22-.19-.44-.41-.27Z"/>
                <path class="cls-28" d="M67.98,152.4c-.05-.08-.1-.16-.14-.24-.08.06-.16.12-.24.17.13.02.25.05.38.07Z"/>
                <path class="cls-28" d="M69.13,145.48c.04.08.09.17.13.25.08-.06.15-.11.23-.17-.12-.03-.24-.05-.36-.08Z"/>
                <path class="cls-28" d="M65.48,148.5c.08-.06.16-.11.23-.17-.04-.08-.09-.17-.13-.25-.03.14-.07.28-.1.42Z"/>
                <path class="cls-28" d="M73.19,149.8s-.02-.03-.03-.05c-.02.01-.03.02-.04.03.01.02.02.03.03.05l.04-.03Z"/>
                <path class="cls-28" d="M77.97,147.16c.05.08.1.15.15.23.07-.06.14-.11.21-.17-.12-.02-.24-.04-.36-.05Z"/>
                <path class="cls-28" d="M74.57,150.22c.07-.06.15-.12.22-.17-.05-.08-.1-.15-.15-.23-.02.13-.05.27-.07.4Z"/>
                <path class="cls-28" d="M81.16,150.82s0,0,0,.01c0,0,0,0,0-.01Z"/>
                <path class="cls-28" d="M81.06,151.02c.06-.05.09-.11.1-.18-.04.2-.32.35-.47.14-.05-.07-.11-.14-.16-.21-1.09.9-2.2,1.82-3.34,2.73.05.07.11.15.16.22-.13-.01-.25-.03-.38-.04.07-.06.15-.12.22-.18-.82-1.12-1.62-2.28-2.4-3.46-.07.06-.15.12-.22.17.02-.13.05-.27.07-.4.05.08.1.15.15.23,1.13-.89,2.25-1.78,3.33-2.67-.05-.07-.1-.15-.15-.23.12.02.24.04.36.05-.07.06-.14.11-.21.17.78,1.16,1.58,2.29,2.4,3.39.07-.06.14-.12.21-.18.2-.17.43.03.43.23,0-.06,0-.13-.05-.19-.94-1.24-1.84-2.51-2.72-3.82-.04-.06-.1-.1-.17-.11-.06,0-.13,0-.19.05-1.22.99-2.48,1.99-3.76,3-.12.09-.15.28-.07.4.87,1.34,1.77,2.65,2.71,3.92.04.06.11.09.18.1.07,0,.14-.01.2-.06,1.29-1.04,2.55-2.07,3.77-3.1Z"/>
                <path class="cls-28" d="M77.35,153.72c-.05-.07-.11-.15-.16-.22-.07.06-.15.12-.22.18.13.01.25.03.38.04Z"/>
                <path class="cls-28" d="M81.16,150.83s0,0,0,.01c0,0,0,0,0-.01Z"/>
                <path class="cls-28" d="M80.74,150.6c-.07.06-.14.12-.21.18.05.07.11.14.16.21.15.21.43.06.47-.14,0,0,0,0,0-.01,0,0,0,0,0-.01,0-.2-.22-.4-.43-.23Z"/>
                <path class="cls-28" d="M82.34,150.94s-.02-.02-.03-.04c-.02.01-.02.02-.04.03.01.02.02.02.03.04.02-.01.02-.02.04-.03Z"/>
                <path class="cls-28" d="M90.35,151.37h0s0,0,0,0Z"/>
                <path class="cls-28" d="M89.91,151.19c-.07.06-.13.12-.2.18.06.06.12.13.18.19.17.18.43.03.46-.16,0,0,0,0,0-.01h0c0-.2-.25-.37-.44-.19Z"/>
                <path class="cls-28" d="M86.77,154.34c-.06-.06-.12-.13-.18-.19-.07.06-.14.12-.21.18.13,0,.26,0,.38.01Z"/>
                <path class="cls-28" d="M90.35,151.38s0,0,0,.01c0,0,0,0,0-.01Z"/>
                <path class="cls-28" d="M83.74,151.25c.07-.06.14-.12.21-.18-.06-.07-.11-.14-.17-.21-.01.13-.03.26-.04.38Z"/>
                <path class="cls-28" d="M86.9,148.16c.06.07.11.13.17.2.07-.06.13-.12.2-.17-.12,0-.24-.02-.36-.03Z"/>
                <path class="cls-28" d="M90.27,151.56c.06-.05.08-.11.09-.17-.03.19-.29.34-.46.16-.06-.06-.12-.13-.18-.19-1.02.92-2.06,1.85-3.12,2.78.06.06.12.13.18.19-.13,0-.26,0-.38-.01.07-.06.14-.12.21-.18-.9-.99-1.78-2.02-2.64-3.07-.07.06-.14.12-.21.18.01-.13.03-.26.04-.38.06.07.11.14.17.21,1.06-.91,2.1-1.82,3.12-2.71-.06-.07-.11-.13-.17-.2.12,0,.24.02.36.03-.07.06-.13.12-.2.17.86,1.03,1.74,2.03,2.65,3.01.07-.06.13-.12.2-.18.19-.17.43,0,.44.18,0-.06-.01-.12-.07-.17-1.03-1.09-2.02-2.22-2.99-3.38-.05-.05-.11-.09-.18-.09-.07,0-.13.02-.19.06-1.15,1.01-2.32,2.03-3.52,3.05-.11.1-.13.27-.04.38.96,1.2,1.96,2.36,2.98,3.48.05.05.12.08.19.08.07,0,.14-.02.2-.07,1.2-1.06,2.38-2.11,3.53-3.15Z"/>
                <path class="cls-28" d="M91.53,151.4s-.02-.02-.04-.04c-.02.01-.02.02-.04.04.01.01.02.02.04.04.02-.01.02-.02.04-.04Z"/>
                <path class="cls-28" d="M96.3,148.49c.06.06.12.12.18.17.06-.06.12-.12.18-.18-.12,0-.24,0-.37,0Z"/>
                <path class="cls-28" d="M93.39,151.59c.06-.06.13-.12.19-.18-.06-.06-.12-.12-.18-.18,0,.12,0,.24-.01.36Z"/>
                <path class="cls-28" d="M96.64,154.23c-.06-.05-.13-.11-.19-.17-.06.06-.13.12-.19.18.13,0,.26-.01.38-.02Z"/>
                <path class="cls-28" d="M99.99,151.22s0,0,0,0c0,0,0,0,0,0Z"/>
                <path class="cls-28" d="M99.99,151.21s0,0,0,0c0,0,0,0,0,0Z"/>
                <path class="cls-28" d="M99.53,151.07c-.06.06-.12.12-.18.18.06.05.13.11.19.16.18.15.43,0,.45-.19,0,0,0,0,0,0,0,0,0,0,0,0-.02-.18-.28-.31-.45-.14Z"/>
                <path class="cls-28" d="M99.91,151.39c.05-.05.07-.11.07-.16-.01.18-.26.34-.45.19-.06-.05-.13-.11-.19-.16-.95.93-1.91,1.86-2.9,2.81.06.06.13.11.19.17-.13,0-.26.01-.38.02.06-.06.13-.12.19-.18-.98-.85-1.93-1.74-2.87-2.65-.06.06-.13.12-.19.18,0-.12,0-.24.01-.36.06.06.12.12.18.18.99-.92,1.96-1.84,2.9-2.74-.06-.06-.12-.12-.18-.17.12,0,.24,0,.37,0-.06.06-.12.12-.18.18.93.89,1.89,1.75,2.87,2.58.06-.06.12-.12.18-.18.18-.17.43-.04.45.14,0-.05-.02-.11-.08-.16-1.1-.93-2.18-1.9-3.24-2.91-.05-.05-.12-.07-.18-.07s-.13.02-.18.07c-1.07,1.02-2.16,2.05-3.28,3.09-.1.1-.11.26-.01.36,1.05,1.04,2.13,2.04,3.24,3.01.05.05.12.07.19.06.07,0,.14-.03.19-.08,1.12-1.07,2.21-2.14,3.28-3.18Z"/>
                <path class="cls-28" d="M101.17,151.15s-.02-.02-.04-.03c-.01.01-.02.02-.04.04.02.01.02.02.04.03.01-.01.02-.02.04-.04Z"/>
                <path class="cls-28" d="M102.6,151.21c.06-.06.12-.12.18-.18-.06-.05-.13-.1-.19-.15,0,.11,0,.22.01.33Z"/>
                <path class="cls-28" d="M109.16,150.36h0s0,0,0,0Z"/>
                <path class="cls-28" d="M109.16,150.35s0,0,0,0c0,0,0,0,0,0Z"/>
                <path class="cls-28" d="M106.03,153.4c-.07-.05-.13-.09-.2-.14-.06.06-.12.12-.18.19.13-.02.25-.03.38-.05Z"/>
                <path class="cls-28" d="M105.29,148.13c.06.05.13.1.19.15.06-.06.11-.12.17-.18-.12,0-.24.02-.36.03Z"/>
                <path class="cls-28" d="M109.1,150.52c.05-.05.07-.11.06-.16,0,.16-.24.34-.43.21-.07-.04-.13-.09-.2-.13-.88.93-1.78,1.87-2.7,2.82.07.05.13.09.2.14-.13.02-.25.03-.38.05.06-.06.12-.12.18-.19-1.03-.71-2.05-1.46-3.05-2.23-.06.06-.12.12-.18.18,0-.11,0-.22-.01-.33.06.05.13.1.19.15.92-.93,1.82-1.85,2.7-2.76-.06-.05-.13-.1-.19-.15.12,0,.24-.02.36-.03-.06.06-.11.12-.17.18,1,.76,2.01,1.48,3.04,2.17.06-.06.11-.12.17-.18.16-.17.43-.07.46.09,0-.05-.03-.1-.09-.14-1.17-.77-2.31-1.58-3.44-2.44-.05-.04-.12-.06-.19-.05-.07,0-.13.03-.18.08-.99,1.02-2.01,2.06-3.06,3.11-.1.1-.09.25.01.33,1.12.89,2.27,1.73,3.44,2.53.05.04.13.05.19.04.07,0,.14-.04.19-.09,1.04-1.08,2.06-2.15,3.05-3.2Z"/>
                <path class="cls-28" d="M108.69,150.26c-.06.06-.11.12-.17.18.07.04.13.09.2.13.19.13.43-.04.43-.21h0s0-.01,0-.02c-.03-.16-.3-.26-.46-.09Z"/>
                <path class="cls-28" d="M110.33,150.2s-.02-.02-.04-.03c-.01.01-.02.02-.03.04.02.01.02.02.04.03.01-.01.02-.02.03-.04Z"/>
                <path class="cls-28" d="M118.21,148.97c.05-.05.06-.1.05-.15.01.15-.22.33-.42.23-.07-.04-.14-.07-.21-.11-.82.93-1.65,1.87-2.51,2.83.07.04.14.07.21.11-.13.03-.25.05-.38.08.06-.06.11-.12.17-.19-1.08-.57-2.15-1.17-3.2-1.8-.06.06-.11.12-.17.18-.01-.1-.02-.2-.04-.31.07.04.14.08.2.12.86-.93,1.69-1.85,2.51-2.76-.07-.04-.14-.08-.2-.12.12-.02.24-.04.36-.06-.05.06-.11.12-.16.18,1.05.61,2.11,1.19,3.19,1.74.05-.06.11-.12.16-.18.15-.17.42-.1.47.04,0-.05-.04-.09-.1-.12-1.22-.61-2.42-1.26-3.6-1.95-.06-.03-.12-.04-.19-.03s-.13.04-.17.09c-.92,1.02-1.87,2.06-2.84,3.11-.09.1-.07.24.04.31,1.18.73,2.39,1.41,3.61,2.05.06.03.13.04.2.02s.13-.05.18-.1c.97-1.08,1.91-2.15,2.83-3.2Z"/>
                <path class="cls-28" d="M117.79,148.76c-.05.06-.11.12-.16.18.07.04.14.07.21.11.2.1.43-.08.42-.23,0,0,0,0,0,0,0,0,0,0,0,0-.04-.14-.31-.22-.47-.04Z"/>
                <path class="cls-28" d="M118.26,148.8s0,0,0,0c0,0,0,0,0,0Z"/>
                <path class="cls-28" d="M114.24,147.08c.07.04.14.08.2.12.05-.06.11-.12.16-.18-.12.02-.24.04-.36.06Z"/>
                <path class="cls-28" d="M111.76,150.14c.06-.06.11-.12.17-.18-.07-.04-.14-.08-.2-.12.01.1.02.2.04.31Z"/>
                <path class="cls-28" d="M115.34,151.87c-.07-.04-.14-.07-.21-.11-.05.06-.11.12-.17.19.13-.03.25-.05.38-.08Z"/>
                <path class="cls-28" d="M118.26,148.81s0,0,0,0c0,0,0,0,0,0Z"/>
                <path class="cls-28" d="M119.42,148.56s-.02-.01-.04-.02c-.01.01-.02.02-.03.04.02,0,.02.01.04.02.01-.01.02-.02.03-.04Z"/>
                <path class="cls-28" d="M127.22,146.72c.04-.05.05-.1.04-.14.02.14-.2.32-.4.25-.07-.03-.14-.05-.22-.08-.76.92-1.53,1.86-2.32,2.81.07.03.14.05.22.08-.12.03-.25.07-.37.1.05-.06.1-.12.15-.19-1.12-.42-2.22-.87-3.31-1.36-.05.06-.1.12-.15.18-.02-.09-.04-.18-.06-.28.07.03.14.06.21.1.79-.93,1.57-1.84,2.33-2.75-.07-.03-.14-.06-.21-.09.12-.03.24-.06.36-.08-.05.06-.1.12-.15.18,1.09.47,2.19.9,3.3,1.29.05-.06.1-.12.15-.18.14-.17.42-.13.47,0-.01-.04-.04-.08-.11-.1-1.26-.44-2.5-.92-3.72-1.45-.06-.02-.13-.03-.19-.01-.06.01-.13.05-.17.1-.86,1.01-1.74,2.04-2.64,3.09-.08.1-.06.22.06.28,1.23.56,2.48,1.08,3.74,1.54.06.02.13.02.2,0,.07-.02.13-.06.17-.11.89-1.08,1.77-2.14,2.62-3.19Z"/>
                <path class="cls-28" d="M126.78,146.57c-.05.06-.1.12-.15.18.07.03.14.05.22.08.21.07.42-.11.4-.25,0,0,0,0,0,0,0,0,0,0,0,0-.05-.13-.33-.17-.47,0Z"/>
                <path class="cls-28" d="M124.53,149.64c-.07-.03-.14-.05-.22-.08-.05.06-.1.12-.15.19.12-.03.25-.07.37-.1Z"/>
                <path class="cls-28" d="M127.26,146.57s0,0,0,0c0,0,0,0,0,0Z"/>
                <path class="cls-28" d="M127.25,146.56s0,0,0,0c0,0,0,0,0,0Z"/>
                <path class="cls-28" d="M123.13,145.36c.07.03.14.06.21.09.05-.06.1-.12.15-.18-.12.03-.24.06-.36.08Z"/>
                <path class="cls-28" d="M120.85,148.38c.05-.06.1-.12.15-.18-.07-.03-.14-.06-.21-.1.02.09.04.18.06.28Z"/>
                <g>
                  <path class="cls-28" d="M64.13,147.96c1-.71,1.49-1.06,2.46-1.76-1.54-.37-2.3-.57-3.83-.99.5,1.11.77,1.65,1.3,2.73.02-.01.03-.02.05-.03.01.02.01.03.02.05Z"/>
                  <path class="cls-28" d="M64.08,147.99s-.02-.03-.03-.05c-1,.71-1.5,1.06-2.53,1.77,1.59.39,2.39.57,3.99.91-.57-1.05-.85-1.58-1.39-2.66-.02.01-.03.02-.05.03Z"/>
                  <path class="cls-28" d="M55.19,145.43c1.06-.68,1.58-1.02,2.61-1.7-1.51-.49-2.27-.74-3.76-1.28.42,1.2.63,1.79,1.09,2.96.02-.01.03-.02.05-.03,0,.02.01.03.02.05Z"/>
                  <path class="cls-28" d="M55.14,145.47s-.01-.03-.02-.06c-1.06.68-1.59,1.02-2.68,1.7,1.57.51,2.35.75,3.93,1.21-.49-1.14-.72-1.72-1.18-2.89-.02.01-.03.02-.05.03Z"/>
                  <path class="cls-28" d="M73.19,149.8c.94-.73,1.4-1.09,2.31-1.81-1.56-.25-2.33-.39-3.88-.69.59,1.01.89,1.51,1.5,2.49.02-.01.03-.02.04-.03.01.02.02.03.03.05Z"/>
                  <path class="cls-28" d="M73.15,149.83s-.02-.03-.03-.05c-.94.73-1.41,1.09-2.37,1.82,1.61.27,2.41.39,4.03.6-.65-.95-.96-1.43-1.58-2.41l-.04.03Z"/>
                  <path class="cls-28" d="M82.34,150.94c.88-.74,1.31-1.11,2.16-1.84-1.57-.13-2.35-.21-3.92-.4.66.91,1,1.36,1.68,2.24.02-.01.03-.02.04-.03.01.02.02.02.03.04Z"/>
                  <path class="cls-28" d="M82.3,150.98s-.02-.02-.03-.04c-.88.74-1.32,1.11-2.22,1.86,1.62.15,2.43.21,4.05.3-.71-.85-1.06-1.28-1.75-2.15-.02.01-.02.02-.04.03Z"/>
                  <path class="cls-28" d="M91.53,151.4c.82-.75,1.22-1.12,2.02-1.87-1.57-.02-2.36-.04-3.93-.11.72.81,1.09,1.2,1.84,1.97.02-.01.02-.02.04-.04.01.01.02.02.04.04Z"/>
                  <path class="cls-28" d="M91.5,151.44s-.02-.02-.04-.04c-.82.75-1.24,1.13-2.08,1.89,1.62.02,2.43.02,4.06,0-.77-.74-1.15-1.11-1.9-1.88-.02.01-.02.02-.04.04Z"/>
                  <path class="cls-28" d="M101.17,151.15c.76-.76,1.14-1.13,1.87-1.88-1.57.11-2.36.15-3.93.2.78.69,1.18,1.03,1.98,1.68.01-.01.02-.02.04-.04.02.01.02.02.04.03Z"/>
                  <path class="cls-28" d="M101.13,151.18s-.02-.02-.04-.03c-.76.76-1.15,1.14-1.93,1.91,1.62-.1,2.43-.17,4.04-.32-.83-.62-1.23-.94-2.04-1.59-.01.01-.02.02-.04.04Z"/>
                  <path class="cls-28" d="M110.33,150.2c.71-.76,1.06-1.14,1.74-1.88-1.56.22-2.35.32-3.91.5.83.58,1.25.86,2.1,1.4.01-.01.02-.02.03-.04.02.01.02.02.04.03Z"/>
                  <path class="cls-28" d="M110.3,150.23s-.02-.02-.04-.03c-.71.76-1.07,1.14-1.8,1.91,1.61-.22,2.41-.35,4.01-.62-.87-.5-1.3-.76-2.14-1.3-.01.01-.02.02-.03.04Z"/>
                  <path class="cls-28" d="M119.42,148.56c.66-.76.98-1.13,1.62-1.88-1.55.34-2.32.5-3.88.79.87.46,1.31.68,2.19,1.1.01-.01.02-.02.03-.04.02,0,.02.01.04.02Z"/>
                  <path class="cls-28" d="M119.39,148.59s-.02-.01-.04-.02c-.66.76-.99,1.14-1.67,1.91,1.59-.34,2.39-.53,3.97-.93-.9-.38-1.35-.58-2.23-1-.01.01-.02.02-.03.04Z"/>
                  <path class="cls-28" d="M128.4,146.23c.61-.75.91-1.12,1.5-1.86-1.53.46-2.29.68-3.83,1.09.9.34,1.35.5,2.26.8.01-.01.02-.02.03-.04.02,0,.03,0,.04.01Z"/>
                  <path class="cls-28" d="M128.37,146.27s-.03,0-.04-.01c-.61.75-.92,1.13-1.54,1.9,1.57-.47,2.35-.71,3.9-1.23-.92-.26-1.38-.39-2.29-.69-.01.01-.02.02-.03.04Z"/>
                </g>
                <path class="cls-28" d="M128.4,146.23s-.03,0-.04-.01c-.01.01-.02.02-.03.04.02,0,.03,0,.04.01.01-.01.02-.02.03-.04Z"/>
                <path class="cls-28" d="M133.57,146.71c-.07-.02-.15-.03-.22-.05-.05.06-.09.12-.14.18.12-.04.24-.09.36-.13Z"/>
                <path class="cls-28" d="M129.82,145.93c.05-.06.1-.12.14-.18-.07-.02-.15-.04-.22-.07.02.08.05.16.07.25Z"/>
              </g>
            </g>
            <path class="cls-17" d="M115.11,135.47c-2.96-4.24-4.68-9.1-4.68-11.42,0-5.22,8.76-13.47,10.58-19.95,0,0-3.37,10.04-16.6,11.93-16.94,2.42-22.65-2.07-30.16-8.94,5.52,9.83,12.53,14.48,12.53,17.83,0,1.99-2.12,5.25-4.96,9.13,0,0,12-6.54,20.13-6.71,4.74-.1,9.95,4.18,13.17,8.14Z"/>
            <path class="cls-3" d="M86.63,56.9s3.61,15.04-2.62,23.34l8.66,9.82c3.51,3.98,9.99,2.88,11.98-2.04l3.76-9.27s-4.91,2.18-5.37-23.06l-16.42,1.21Z"/>
          </g>
          <g>
            <g id="Woman">
              <circle class="cls-3" cx="78.79" cy="46.35" r="5.08"/>
              <path class="cls-4" d="M114.29,31.81c.53,15.4,1.69,20.12.92,24.3-1.49,8.15-10.02,15.02-14.79,16.03-4.14.88-19.15-6.03-20.74-14.49-1.55-8.23-2.36-33.32,6.93-38.28,16.48-8.79,26.78,4.66,27.68,12.44Z"/>
              <path class="cls-3" d="M84.85,59.85c-1.91-4.64-6.86-40.12,12.3-43.65-3.07.12-6.59,1.06-10.54,3.17-9.29,4.96-8.47,30.05-6.93,38.28,1.59,8.47,16.86,15.53,20.74,14.49,3.88-1.04,4.85-2.26,4.85-2.26,0,0-3.66,2.25-7.46,1.28-7.24-1.85-12.03-9.04-12.96-11.31Z"/>
              <path class="cls-34" d="M77.33,46.43c.04-1.08.95-1.92,2.03-1.88.15,0,.3.03.44.07-.36-.29-.81-.47-1.3-.49-1.24-.05-2.27.92-2.32,2.15-.05,1.24.92,2.27,2.15,2.32.31.01.61-.04.88-.15-1.08-.04-1.92-.95-1.88-2.03Z"/>
            </g>
            <g id="head">
              <path class="cls-34" d="M103.82,36.71s-3.43,4.35-3.31,7.3c.12,2.95,5.23,6.12,5.23,6.12,0,0-2.09,2.72-5.64,3.59,0,0,5.33.77,6.85-3.27-.03-.69-4.29-2.56-4.7-6.64-.36-3.6,1.56-7.1,1.56-7.1Z"/>
              <path class="cls-35" d="M97.18,34.07c.12.46-1.68,1-4.3,1.69-2.62.69-5.08,1.26-5.2.8-.12-.46,2.14-1.77,4.76-2.46,2.62-.69,4.61-.49,4.73-.03Z"/>
              <path class="cls-35" d="M108.22,34.17c-.08.47,1.76.85,4.43,1.3,1.38,0,1.73-1.09.29-1.69-2.67-.45-4.64-.08-4.72.39Z"/>
              <g>
                <path class="cls-9" d="M89.39,43.57s2.04,2.33,4.53,2.22,2.78-2.58,2.78-2.58c0,0-.7-3.11-2.76-2.86-2.07.26-4.55,3.22-4.55,3.22Z"/>
                <ellipse class="cls-35" cx="93.81" cy="43.23" rx="2.28" ry="2.56" transform="translate(-1.83 4.22) rotate(-2.55)"/>
                <path class="cls-35" d="M97.26,44.11s-2-3.69-3.86-3.14c-1.86.55-4.58,3.1-4.58,3.1l-2.22-2.13,2.41.55s5.93-7.51,8.24,1.61Z"/>
              </g>
              <g>
                <path class="cls-9" d="M105.87,42.83s1.14,2.29,3.55,2.19c2.42-.11,2.69-2.5,2.69-2.5,0,0-.67-3.01-2.67-2.77-2,.25-3.57,3.08-3.57,3.08Z"/>
                <path class="cls-35" d="M111.52,42.43c.06,1.37-.88,2.53-2.09,2.58s-2.25-1.01-2.32-2.38.88-2.53,2.09-2.58,2.25,1.01,2.32,2.38Z"/>
                <path class="cls-35" d="M112.66,43.38s-1.23-3.04-3.17-3.03c-1.88,0-4.14,3.4-4.14,3.4.21-1.5,4.53-8.8,7.32-1.93l1.7-.59-1.72,2.16Z"/>
              </g>
              <g>
                <path class="cls-24" d="M94.55,57.74c-.06.15-.55.11-.7.05s-.23-.23-.17-.39.23-.23.39-.17.54.36.48.51Z"/>
                <path class="cls-31" d="M106.99,57.43c.1.13.55-.05.68-.15.13-.1.16-.29.06-.42-.1-.13-.29-.16-.42-.06-.13.1-.42.49-.32.62Z"/>
                <path class="cls-22" d="M94.18,57.59l13.11-.32s-2.06,3.98-6.25,4.16-6.86-3.84-6.86-3.84Z"/>
                <path class="cls-10" d="M94.18,57.59l13.11-.32s-2.06,3.98-6.25,4.16-6.86-3.84-6.86-3.84Z"/>
                <path class="cls-6" d="M95.15,57.93l10.61-.28s-1.98,3.45-5.5,3.26c-3.52-.19-5.12-2.99-5.12-2.99Z"/>
                <path class="cls-25" d="M95.15,57.93l10.61-.28-.58.81s-1.16-.62-4.64-.46c-3.48.16-4.87.63-4.87.63,0,0-.38-.49-.52-.7Z"/>
              </g>
              <ellipse class="cls-3" cx="101.13" cy="63.35" rx="2.01" ry=".66" transform="translate(-2.72 4.57) rotate(-2.55)"/>
            </g>
          </g>
          <path class="cls-26" d="M109.49,18.39c-8.63,0-8.85,16.88-14.38,17.28-5.84.42-10.77.52-13.79,8.75l-2.48-4.01c-6.59-22.34,9.98-31.5,30.66-22.02Z"/>
          <path class="cls-35" d="M98.52,16.19c-4.01-.91-11.05.11-15.76,6.27-5,6.55-3.23,9.4-2.85,17.19,1.34-23.23,19.51-23.26,18.61-23.47Z"/>
          <path class="cls-1" d="M88.29,28.79c3.25,2.12,6.75,1.06,10.2,1.73.49-.65.91-1.47,1.16-2.51.3-1.25.27-2.54.04-3.58-2.39-.49-4.32-1.23-6.27-2.54-.61-.41-3.89-.99-4.5-.56-1.56,1.1-2.8,2.43-3.28,5.54-.02.15-.02.3-.03.45.84.41,1.73.83,2.69,1.46Z"/>
          <path class="cls-1" d="M77.36,17.22c-1.79-1.41-7.32,7.55-6.61,8.58.32.47,5.13,3.39,5.46,1.98,1.75-7.33,6.27-8.68,5.94-8.91-1.62-1.12-2.17.42-4.79-1.65Z"/>
          <path class="cls-1" d="M61.25,11.48c-1.58-2.15-3.85,13-3.13,14.63.33.74,4.39,5.1,4.36,2.76-.16-12.15,2.87-14.76,2.58-15.11-1.39-1.69-1.49.87-3.81-2.28Z"/>
          <g>
            <path class="cls-8" d="M78.78,37.54c1.43.88,2.41,2.32,2.91,3.83.5,1.52.54,3.12.43,4.67-.18,2.4-1.63,11.29-9.16,8.85-.52-.17-1.03-.39-1.43-.74-.82-.73-1.08-1.84-1.18-2.87-.29-2.87.23-5.72.89-8.49.45-1.87,1.15-3.86,2.52-5.31,1.19-1.26,3.61-.8,5.02.06Z"/>
            <path class="cls-2" d="M67.86,40.22c-.77,1.66-.72,3.58-.57,5.42.15,1.86.41,3.78,1.38,5.45.97,1.67,2.82,3.04,4.81,3.01,1.7-.03,3.19-1.08,4.03-2.43.84-1.34,1.14-2.95,1.27-4.53.15-1.82.12-3.66-.11-5.48-.1-.85-.26-1.72-.75-2.46-2.3-3.5-8.61-2.14-10.07,1.02Z"/>
            <path class="cls-14" d="M79.06,47.24c.15-1.82.12-3.66-.11-5.48-.1-.85-.26-1.72-.75-2.46-.87-1.32-3.4-2.78-5.28-2.12.01.02,2.06.37,2.21,2.58.13,1.83.26,3.67.11,5.48-.13,1.58-.43,3.18-1.27,4.53-.84,1.34-2.33,2.4-4.03,2.43-.09,0-.49-.08-.71-.29,1.1,1.68,2.96,2.31,4.53,2.29,1.7-.03,3.19-1.08,4.03-2.43.84-1.34,1.14-2.95,1.27-4.53Z"/>
            <path class="cls-23" d="M70.03,39c-.78,1.03-1.21,2.28-1.57,3.53-.36,1.26-.44,2.56-.14,3.88.31,1.33,1.16,2.67,2.54,2.85,1.33.18,2.49-.69,3.25-1.69,1.19-1.55.85-3.63,1.14-5.59.17-1.13-.06-3.02-.57-4.09-1.37-2.88-3.32-.65-4.66,1.1Z"/>
            <path class="cls-23" d="M69.36,40.34c.94-1.52,2.17-2.87,2.95-4.48.64-1.31.95-2.78.92-4.27.31-.2.78.08.91.44s.04.73-.01,1.09c-.44,2.87.67,5.79.76,8.72.03.97-.45,2.47-.65,3.4-.19.85.64,1.17.13,1.87-.51.71-1.34,1.24-2.26,1.2-1.58-.07-3.14.34-3.62-1.18-.76-2.45.08-5.51.87-6.8Z"/>
            <path class="cls-18" d="M71.57,46.3c1.12-.25,2.05-.98,2.72-1.85,1.4-1.8,1.12-4.3.39-6.56.93,1.02,1.38,2.12,1.49,3.69s-.09,3.13-.65,4.55c-.37.94-.87,1.86-1.66,2.52-.79.65-1.9,1.01-2.96.73-.72-.19-1.35-.65-1.86-1.19-.37-.39-.35-.57-.54-1.05-.45-1.1-.79-2.55-.28-3.66.01,1.05-.31,1.73.55,2.32.82.56,1.89.71,2.81.5Z"/>
            <path class="cls-13" d="M69.22,41.42c-.12.42-.2.91.05,1.3.04.06.08.11.14.14.16.09.34-.04.46-.17,1.09-1.22,1.15-3.17,2.42-4.21.47-.38,1.57-.76.5-1.25-.56-.26-.87-.04-1.26.31-1.12,1.01-1.91,2.43-2.31,3.86Z"/>
            <g class="cls-50">
              <path class="cls-2" d="M75.63,33.44c1.5-.47,2.07-1.39,2.45-2.58.38-1.19.68-2.68.61-3.88-.14-2.43-.06-4.91.82-7.29.87-2.39,2.6-4.7,5.23-6.2,1.62-.93,3.52-1.52,5.45-1.91,4.16-.84,8.55-.74,12.49.27,2.29.59,4.46,1.51,6.06,2.86,2.68,2.27,3.82,5.77,3.43,8.92-.39,3.16-2.2,6.04-3.73,9.04-.47.92-1.24,1.93-.38,2.6.44.35,1.45.6,2.09.69.51.07,1.03.15,1.55.05,1.29-.23,1.95-1.36,2.33-2.34,1.8-4.71,1.96-9.81-.35-14.19-2.31-4.38-7.25-7.94-13.37-8.86-1.66-.25-3.37-.31-5.08-.32-1.62,0-3.26.04-4.86.29-2.97.47-5.74,1.65-8.16,3.12-7,4.26-10.98,11.08-10.62,17.66.04.81-.12,1.37.81,1.84.91.46,2.18.56,3.24.23Z"/>
              <path class="cls-8" d="M81.21,19.35c.95.31,2.01-.21,2.7-.76,1.2-.97,2.03-2.15,3.21-3.14,3.02-2.53,8.19-3.47,12.71-2.69,2.39.41,4.63,1.25,6.44,2.43,1.27.82,2.36,1.83,2.8,3.01.23.61.28,1.25.46,1.86.19.62.54,1.24,1.24,1.63.69.39,1.79.47,2.43.04.67-.44.63-1.2.42-1.82-.47-1.35-1.52-2.56-2.63-3.71-.76-.78-1.55-1.55-2.46-2.25-3.85-2.94-9.87-4.35-15.42-3.61-5.3.71-9.62,3.25-12.1,6.6-.54.74-1.36,1.91.21,2.42Z"/>
            </g>
            <ellipse class="cls-18" cx="74.12" cy="29.38" rx=".77" ry="1.17"/>
          </g>
          <g>
            <path class="cls-12" d="M26.68,153.79c1.78-1.4,3.55-2.8,5.34-4.2,0-.04,0-.09,0-.13,0,0,.32-.23.91-.59,0,0,0,0,0,0,0,0,0,0,0,0,4.72-2.85,29.19-15.09,73.03,3.24,0,2.04-.02,4.08-.02,6.12-1.81.69-3.62,1.39-5.42,2.08,0-.7,0-1.4,0-2.1-22.77-.04-45.53.21-68.29.74-1.85-1.72-3.7-3.44-5.55-5.16Z"/>
            <path class="cls-20" d="M64.76,196.23c-2.23-13.89-4.49-27.78-6.78-41.67,3.98-.05,7.96-.1,11.94-.14.13,13.92.26,27.83.39,41.75-1.85.02-3.7.04-5.55.06Z"/>
            <path class="cls-20" d="M26.63,151.69c-.13.08,24.5-18.01,73.9,2.5,0,2.04,0,4.08-.01,6.12-24.55-.04-49.11.25-73.65.87-.08-3.16-.16-6.32-.24-9.48Z"/>
          </g>
          <g id="left_hand" data-name="left hand">
            <path class="cls-4" d="M57.97,112.16c-5.82,18.32-5.94,21.76-1.31,24.39,8.18,4.66,11.11-9.09,15.25-20.76,8.1-22.81,7.27-26.17,1.04-29.01-6.59-3-6.63.77-14.98,25.37Z"/>
            <g>
              <polygon class="cls-3" points="89.73 141.53 89.29 142.35 98.51 144.29 98.81 143.44 89.73 141.53"/>
              <path class="cls-4" d="M57.68,137.04c9.82,5.54,37.19,6.62,40.83,7.25l.83-2.57s-1.04-.69-2.95-1.64c-7.57-3.77-27.03-13.3-33.68-14.96-5.89-1.47-8.04,1.06-8.83,3.81-.67,2.33-1.35,5.2,3.8,8.11Z"/>
              <path class="cls-3" d="M56.2,133.85c-1.21-.75-2.11-1.48-2.77-2.2.06,1.69.96,3.53,4.25,5.39,9.82,5.54,36.43,7.23,40.07,7.86l.76-.61c-6.27-1-32.56-4.43-42.31-10.44Z"/>
            </g>
            <g>
              <path class="cls-4" d="M97.83,140.81s5.62,3.32,8.62,5.8c0,0,2,1.4,3.07,3.05.58.9,1.31,3.08.73,3.41-.59.33-.96-1.16-1.97-2.61-.57-.82-2.32-2.15-2.46-2.07s1.26,1.5,1.68,2.39c.35.75,1.03,3.87.4,4.03-.83.21-.87-1.14-1.72-3.37-.34-.73-2.04-2.43-2.22-2.33s1.02,1.55,1.19,2.4c.17.85.52,3.22-.19,3.35-.71.12-.81-1.63-1.22-2.94-.22-.71-1.54-2.48-1.63-2.48-.09,0,.36.95.36,1.73s-.34,2.5-.81,2.38c-.47-.11-.34-.94-.6-2.6-.08-.51-.76-1.94-.76-1.94,0,0-2.55-1.81-3.86-5.94,0,0,.22-2.48,1.4-2.26Z"/>
              <path class="cls-3" d="M101.94,153.16c-.47-.11-.34-.94-.6-2.6-.08-.51-.93-2.07-.93-2.07,0,0-3.8-6.03-3.88-6.07-.08.24-.1.65-.1.65,1.31,4.13,3.86,5.94,3.86,5.94,0,0,.68,1.43.76,1.94.27,1.66.13,2.49.6,2.6.16.04.31-.14.43-.42-.04.02-.09.04-.14.03Z"/>
            </g>
          </g>
          <path class="cls-30" d="M118.45,80.79s3.78-.6,5.68,1.59c1.9,2.19,5.58,12.98,5.58,12.98,0,0-7.8,5.23-10.44,3.46-2.64-1.77-2.21-16.41-2.21-16.41,0,0,.43-1.42,1.4-1.62Z"/>
          <g>
            <g id="folder">
              <g>
                <polygon class="cls-21" points="142.81 122.58 113.87 112 127.23 75.47 151.24 84.25 155.39 85.33 142.81 122.58"/>
                <rect class="cls-27" x="119.56" y="79.88" width="30.81" height="38.59" transform="translate(42.27 -40.32) rotate(20.09)"/>
                <rect class="cls-11" x="118.37" y="80.27" width="32.35" height="39.59" transform="translate(42.55 -40.12) rotate(20.09)"/>
                <path class="cls-32" d="M112.56,113.1l13.6-37.18,30.38,11.11c-16.23,5.66-30.99,14.16-43.98,26.07Z"/>
                <rect class="cls-15" x="135.48" y="80.26" width="11.44" height="3.14" transform="translate(36.69 -43.52) rotate(20.09)"/>
                <path class="cls-32" d="M146.03,85.28l-10.75-3.93,1.08-2.95s.06,2.69,4.46,4.19c4.4,1.49,6.28-.26,6.28-.26l-1.08,2.95Z"/>
                <path class="cls-11" d="M137.56,79.79c-.01.19-.18.33-.37.32s-.33-.18-.32-.37.18-.33.37-.32.33.18.32.37Z"/>
                <path class="cls-11" d="M145.91,82.87c-.01.19-.18.33-.37.32s-.33-.18-.32-.37.18-.33.37-.32.33.18.32.37Z"/>
                <path class="cls-15" d="M145.58,83.01s-.04,0-.06-.01c-.11-.04-.16-.16-.12-.26l.6-1.61-8.02-2.93-.6,1.62c-.04.11-.15.16-.26.12-.11-.04-.16-.16-.12-.26l.67-1.81c.04-.11.16-.16.26-.12l8.4,3.07c.05.02.09.06.12.11.02.05.03.11,0,.16l-.67,1.81c-.03.09-.12.14-.21.13Z"/>
              </g>
            </g>
            <path class="cls-4" d="M149.43,116.94s2.63-6.21,3.29-10.05c0,0,.61-2.37.35-4.31-.14-1.06-1-3.19-1.66-3.06-.66.13.02,1.5.2,3.26.1.99-.36,3.14-.52,3.18s-.02-1.96-.28-2.91c-.22-.8-1.74-3.6-2.31-3.32-.77.38.08,1.44.88,3.68.21.78.03,3.17-.17,3.21s-.23-1.84-.66-2.6c-.42-.76-1.7-2.79-2.32-2.42-.62.37.44,1.76.98,3.03.29.68.45,2.89.38,2.94-.07.05-.35-.96-.85-1.55s-1.88-1.68-2.17-1.28c-.28.39.36.93,1.24,2.37.27.44.68,1.97.68,1.97,0,0-.76,3.03.93,7.02,0,0,1.26,1.78,2.02.84Z"/>
            <path class="cls-3" d="M152.23,109.21l-2.34,6.32-1.7,1.55.64.25s2.5.24,3.41-8.12Z"/>
          </g>
          <path class="cls-30" d="M76.65,85.34s3.58,1.38,4.13,4.22-1.65,14.03-1.65,14.03c0,0-17.39-1.73-18.8-4.58-1.4-2.86,7.67-13.66,7.67-13.66,0,0,4.07-1.65,8.65,0Z"/>
          <path class="cls-34" d="M94.44,94.09s5.99.97,8.99-.66c.82-.44-2.02,3.12-2.02,3.12-.57.89-1.77,1.12-2.64.52l-4.33-2.99Z"/>
        </g>
      </g>
    </g>
  </g>
</svg>