<?xml version="1.0" encoding="UTF-8"?>
<svg xmlns="http://www.w3.org/2000/svg" xmlns:xlink="http://www.w3.org/1999/xlink" viewBox="0 0 183.57 177.8">
  <defs>
    <style>
      .cls-1 {
        fill: #61412f;
      }

      .cls-1, .cls-2, .cls-3, .cls-4, .cls-5, .cls-6, .cls-7, .cls-8, .cls-9, .cls-10, .cls-11, .cls-12, .cls-13, .cls-14, .cls-15, .cls-16, .cls-17, .cls-18, .cls-19, .cls-20, .cls-21, .cls-22, .cls-23, .cls-24, .cls-25, .cls-26, .cls-27, .cls-28, .cls-29, .cls-30 {
        stroke-width: 0px;
      }

      .cls-31 {
        clip-path: url(#clippath);
      }

      .cls-2 {
        fill: none;
      }

      .cls-3 {
        fill: #f9e8ca;
      }

      .cls-4 {
        fill: #78462b;
      }

      .cls-5 {
        fill: #ffe5cc;
      }

      .cls-6 {
        fill: #666;
      }

      .cls-7 {
        fill: url(#_ÂÁ_Ï_ÌÌ_È_ËÂÌÚ_226);
        opacity: .5;
      }

      .cls-7, .cls-14 {
        mix-blend-mode: multiply;
      }

      .cls-8 {
        fill: #8c593e;
      }

      .cls-9 {
        fill: #525b66;
      }

      .cls-10 {
        fill: #332f33;
      }

      .cls-11, .cls-14 {
        fill: #1a1a1a;
      }

      .cls-32 {
        clip-path: url(#clippath-4);
      }

      .cls-33 {
        clip-path: url(#clippath-2);
      }

      .cls-34 {
        clip-path: url(#clippath-5);
      }

      .cls-12 {
        fill: #fff;
        opacity: .31;
      }

      .cls-13 {
        fill: #000;
      }

      .cls-14 {
        opacity: .43;
      }

      .cls-15 {
        fill: #4c0714;
      }

      .cls-16 {
        fill: #211921;
      }

      .cls-17 {
        fill: #77442d;
      }

      .cls-18 {
        fill: #5c6572;
      }

      .cls-19 {
        fill: #9b6335;
      }

      .cls-20 {
        fill: #fff4e3;
      }

      .cls-21 {
        mix-blend-mode: screen;
        opacity: .2;
      }

      .cls-21, .cls-26 {
        fill: #efd9b4;
      }

      .cls-22 {
        fill: #34363a;
      }

      .cls-23 {
        fill: #ddbe90;
      }

      .cls-24 {
        fill: #825137;
      }

      .cls-35 {
        isolation: isolate;
      }

      .cls-25 {
        fill: #282a2e;
      }

      .cls-27 {
        fill: #ccc;
      }

      .cls-28 {
        fill: #5c000f;
      }

      .cls-29 {
        fill: #1d1e21;
      }

      .cls-30 {
        fill: #b77544;
      }
    </style>
    <clipPath id="clippath">
      <path class="cls-2" d="M64.04,0h119.53v177.8H0v-113.75C0,28.7,28.7,0,64.04,0Z" transform="translate(183.57 177.8) rotate(180)"/>
    </clipPath>
    <clipPath id="clippath-2">
      <path class="cls-2" d="M121.9,35.43c3.97.04,7.94.09,11.92.15,6.11.09,11.44,3.84,13.1,9.21.07.24.15.48.22.72.87,2.82,2.78,5.27,5.39,6.96,2.52,1.62,5.03,3.25,7.54,4.88,5.66,3.68,9.04,9.62,9.14,15.98h0c.06,4.13-1.26,8.16-3.78,11.56-4.92,6.63-9.81,13.28-14.66,19.93-6.23,8.55-6.27,19.77-.28,28.44h0c3.7,5.36,5.13,11.83,4.04,18.14-2.87,16.63-5.69,33.26-8.47,49.89-28.71-.57-57.44-.67-86.15-.32,3.3-18.88,6.68-37.75,10.13-56.61.88-4.79,3.17-9.24,6.64-12.83,1.24-1.29,2.49-2.57,3.73-3.86,5.87-6.06,8.36-14.39,6.61-22.44-1.84-6.67-3.7-13.34-5.56-20-3.01-7.91-1.95-14.48-1.94-14.48,2.38-9.06,11.32-16.21,20.61-19.99.37-.15.73-.3,1.1-.45,2.58-1.05,4.76-2.8,6.23-5.02.84-1.27,1.68-2.54,2.52-3.8,2.52-3.8,7.05-6.1,11.93-6.05Z"/>
    </clipPath>
    <clipPath id="clippath-4">
      <path class="cls-2" d="M139.24,82.68c-3.95-5.39-38.46-18.47-38.46-18.47,0,0-29.51,7.71-32.97,13.34-1.42,2.32-.1,17.37.43,24.82.53,7.44,3.38,20.83,3.45,28.51.09,8.5-2.4,26.28-2.4,28.22,0,.96,6.57,9.21,28.11,7.84,14.47-.92,27.85-9.96,27.96-12.38.04-.9-5.04-19.41-5.04-19.41l15.41-27.67s4.98-22.62,3.5-24.79Z"/>
    </clipPath>
    <linearGradient id="_ÂÁ_Ï_ÌÌ_È_ËÂÌÚ_226" data-name="¡ÂÁ˚ÏˇÌÌ˚È „‡‰ËÂÌÚ 226" x1="-9149.36" y1="1536.07" x2="-9162.27" y2="1538.59" gradientTransform="translate(-9112.29 1264.37) rotate(162.99) scale(1 -1)" gradientUnits="userSpaceOnUse">
      <stop offset="0" stop-color="#9b6335"/>
      <stop offset=".21" stop-color="#975f33"/>
      <stop offset=".39" stop-color="#8c562f"/>
      <stop offset=".57" stop-color="#7a4629"/>
      <stop offset=".74" stop-color="#603020"/>
      <stop offset=".9" stop-color="#401415"/>
      <stop offset="1" stop-color="#29000d"/>
    </linearGradient>
    <clipPath id="clippath-5">
      <path class="cls-2" d="M80.33,20.98s.83-6.2,6.47-9.89c3.81-2.49,17.9-3.04,17.9-3.04l5.03,16.79-5.39,13.54,1.43,12.12,18.84-.76,2.05-4.63,1.09-11.06-4.71-18.35-9.74-12.66-9.03-3.06h-12.36s-4.23,2.89-5.55,4.57c-6.21,7.94-6.03,16.41-6.03,16.41Z"/>
    </clipPath>
  </defs>
  <g class="cls-35">
    <g id="Camada_1" data-name="Camada 1">
      <g class="cls-31">
        <g id="character_sit" data-name="character sit">
          <g>
            <g>
              <path class="cls-10" d="M86.21,153.88c-1.81-1.35-3.63-2.7-5.45-4.05,0-.04,0-.09,0-.13,0,0-.32-.22-.93-.56,0,0,0,0-.01,0h0c-4.8-2.72-29.6-14.28-72.95,5.26l.19,6.12c1.83.64,3.66,1.29,5.48,1.93-.02-.7-.04-1.4-.06-2.1,22.77-.67,45.54-1.06,68.32-1.16,1.8-1.77,3.6-3.54,5.41-5.31Z"/>
              <path class="cls-16" d="M49.31,197.4c1.84-13.96,3.72-27.92,5.63-41.87-3.98.06-7.96.12-11.94.19.25,13.93.51,27.85.76,41.78,1.85-.03,3.7-.07,5.56-.1Z"/>
              <path class="cls-16" d="M86.21,151.78c.13.07-25-17.34-73.84,4.54.06,2.04.12,4.08.18,6.12,24.56-.72,49.12-1.11,73.68-1.17,0-3.16-.02-6.33-.02-9.49Z"/>
            </g>
            <g>
              <path class="cls-6" d="M134.43,35.58c3.97.06,7.94.12,11.91.2,6.11.11,11.43,3.89,13.06,9.27.07.24.15.48.22.73.86,2.82,2.75,5.29,5.36,6.98,2.51,1.63,5.01,3.27,7.52,4.91,5.64,3.7,9,9.66,9.07,16.02h0c.05,4.13-1.3,8.16-3.83,11.54-4.95,6.61-9.86,13.23-14.74,19.87-6.26,8.52-6.36,19.74-.41,28.44h0c3.68,5.38,5.08,11.86,3.96,18.16-2.94,16.61-5.84,33.23-8.69,49.86-28.71-.69-57.43-.92-86.15-.7,3.39-18.86,6.85-37.72,10.38-56.57.9-4.78,3.21-9.23,6.7-12.81,1.25-1.28,2.5-2.56,3.75-3.84,5.9-6.04,8.42-14.36,6.71-22.41-1.81-6.68-3.64-13.35-5.48-20.03-2.98-7.93-1.88-14.49-1.88-14.49,2.42-9.05,11.39-16.16,20.7-19.9.37-.15.73-.3,1.1-.44,2.59-1.04,4.77-2.78,6.25-4.99.85-1.27,1.69-2.53,2.54-3.79,2.54-3.79,7.08-6.07,11.95-6Z"/>
              <path class="cls-6" d="M121.9,35.43c3.97.04,7.94.09,11.92.15,6.11.09,11.44,3.84,13.1,9.21.07.24.15.48.22.72.87,2.82,2.78,5.27,5.39,6.96,2.52,1.62,5.03,3.25,7.54,4.88,5.66,3.68,9.04,9.62,9.14,15.98h0c.06,4.13-1.26,8.16-3.78,11.56-4.92,6.63-9.81,13.28-14.66,19.93-6.23,8.55-6.27,19.77-.28,28.44h0c3.7,5.36,5.13,11.83,4.04,18.14-2.87,16.63-5.69,33.26-8.47,49.89-28.71-.57-57.44-.67-86.15-.32,3.3-18.88,6.68-37.75,10.13-56.61.88-4.79,3.17-9.24,6.64-12.83,1.24-1.29,2.49-2.57,3.73-3.86,5.87-6.06,8.36-14.39,6.61-22.44-1.84-6.67-3.7-13.34-5.56-20-3.01-7.91-1.95-14.48-1.94-14.48,2.38-9.06,11.32-16.21,20.61-19.99.37-.15.73-.3,1.1-.45,2.58-1.05,4.76-2.8,6.23-5.02.84-1.27,1.68-2.54,2.52-3.8,2.52-3.8,7.05-6.1,11.93-6.05Z"/>
              <g class="cls-33">
                <path class="cls-16" d="M125.17,194.19c-11.9.42-23.79.91-35.68,1.49,1.29-63.57,12.11-127.18,33.78-187.65,11.81,4.32,23.56,8.71,35.26,13.18-31.11,53.27-39.33,114.9-33.37,172.98Z"/>
              </g>
              <path class="cls-14" d="M172.5,57.67c-2.5-1.64-5.01-3.28-7.51-4.91-2.6-1.7-4.5-4.16-5.36-6.98-.07-.24-.15-.48-.22-.73-1.64-5.38-6.95-9.16-13.06-9.27-3.59-.07-7.19-.13-10.78-.18,1.08-.22,20.9,9.26,20.81,44.97-.07,19.15-23.56,23.6-16.33,46.16.11.36.24.72.37,1.1,4.59,12.89,5.04,26.78.74,39.72-2.15,6.47-4.54,12.43-7.16,17.61.87-.2,1.83-.15,2.81.28,8.15,3.57,16.74,7.01,24.29,11.79.24-1.3.49-2.6.74-3.9.27-1.42-.65-2.75-2.01-3.13,2.22-12.84,4.46-25.67,6.74-38.51.13-.75.22-1.5.29-2.25.02-.28.02-.56.04-.83.02-.47.05-.93.04-1.39,0-.35-.03-.71-.05-1.06-.02-.38-.04-.76-.08-1.14-.04-.4-.1-.8-.16-1.19-.05-.32-.1-.64-.16-.96-.08-.43-.18-.86-.29-1.29-.07-.27-.14-.53-.22-.8-.13-.46-.27-.92-.43-1.38-.07-.21-.16-.42-.24-.63-.19-.5-.39-.99-.61-1.47-.06-.14-.14-.28-.2-.42-.55-1.14-1.16-2.26-1.89-3.33-5.95-8.71-5.86-19.93.4-28.45,1.62-2.2,3.24-4.39,4.86-6.59,3.25-4.39,6.52-8.78,9.8-13.16,1.14-1.53,2.11-3.17,2.75-4.93,3.16-8.65-.29-17.75-7.91-22.74Z"/>
            </g>
            <g>
              <path class="cls-16" d="M137.81,53.63c1.42-.14,2.51-.06,3.65.16,1.12.21,2.17.58,3.18,1.03,2.02.89,3.71,2.28,5.19,3.83,1.49,1.54,2.71,3.33,3.54,5.27.88,1.91,1.25,4.05,1.09,6.15-.09,1.17-1.18,2.04-2.44,1.96-.44-.03-.84-.17-1.17-.39-.08-.05-.16-.11-.24-.16-1.68-1.12-2.94-2.19-4.29-3.15-1.3-.98-2.54-1.91-3.8-2.82-1.25-.92-2.51-1.8-3.66-2.9-.59-.54-1.15-1.12-1.7-1.77-.52-.65-1.14-1.38-1.49-2.2-.15-.36-.3-.71-.45-1.07-.63-1.49.17-3.17,1.8-3.75.26-.09.54-.15.8-.18Z"/>
              <path class="cls-16" d="M113.4,58.38c-.37.82-1,1.53-1.54,2.17-.56.64-1.14,1.21-1.74,1.73-1.17,1.07-2.46,1.92-3.72,2.81-1.28.88-2.55,1.78-3.86,2.73-1.37.93-2.66,1.97-4.36,3.05-.08.05-.16.1-.24.15-1.04.66-2.46.42-3.18-.54-.25-.33-.38-.72-.4-1.1-.11-2.1.31-4.23,1.23-6.12.87-1.92,2.13-3.69,3.65-5.19,1.51-1.52,3.24-2.86,5.27-3.71,1.01-.43,2.07-.76,3.2-.95,1.15-.19,2.24-.25,3.66-.08,1.73.21,2.95,1.66,2.73,3.25-.04.25-.11.5-.21.72-.16.36-.32.72-.48,1.08Z"/>
            </g>
            <path class="cls-10" d="M19.89,190.26c0,.14,1.05-12.17,59.14-12.72,58.11-.14,78.35,12.62,78.33,12.49-22.95,1.3-45.86,2.88-68.73,4.76-.03-.19-59.69,3.23-68.74-4.54Z"/>
          </g>
          <g id="right_leg" data-name="right leg">
            <path id="shin_right" data-name="shin right" class="cls-15" d="M66.31,251.07l3.67-1.3s-1.12-43.24-3.97-52.4c-1.42-4.57-9.22-18.04-13.44-23.55-4.23-5.53-16.38-2.42-13.39,7.09,4.8,13.2,13.81,34.48,27.13,70.16Z"/>
            <g id="hip_right" data-name="hip right">
              <path class="cls-15" d="M75.4,158.1s-31.29,12.22-33.21,14.2,12.55,16.8,12.55,16.8l40.06-.28,9.26-26.63s-23.09-7.82-28.66-4.09Z"/>
            </g>
          </g>
          <g id="left_leg" data-name="left leg">
            <path id="shin_left" data-name="shin left" class="cls-28" d="M94.44,176.34s2.68,21.16,2.28,29.26c-.41,8.1-15.48,44.72-15.48,44.72l-4.27-.42c1.8-62.18.58-76.98.58-76.98.53-5.27,15.66-6.35,16.9,3.42Z"/>
            <g id="hip_left" data-name="hip left">
              <path class="cls-28" d="M122.5,153.47s4.19,17.76,3.67,23.17c-.35,3.64-4.42,9.34-6.05,11.33-1.64,1.99-37.02,4.2-39.68,1.22-2.65-2.98-3.32-14.88-2.74-16.93,1.24-4.35,34.42-13.83,34.42-13.83l10.38-4.96Z"/>
            </g>
          </g>
          <g id="right_hand" data-name="right hand">
            <g id="shoulder_right" data-name="shoulder right">
              <path class="cls-17" d="M70.04,75.6c10.16,1.24,11.69,62.26-4.22,62.48-7.16-11.21-5.53-36.46-5.56-43.75,4.18-14.62,7-19.07,9.78-18.73Z"/>
            </g>
            <path class="cls-3" d="M73.04,73.76l-4.14,1.8c-4.03,1.75-7.06,5.23-8.25,9.47l-4.01,20.76,21,3.71.1-24.88-4.7-10.85Z"/>
            <g id="left_hand" data-name="left hand">
              <g id="forearm_left" data-name="forearm left">
                <path class="cls-8" d="M69.1,137.81c3.67-3.33,3.81-10.33-3.37-18.45-8.61-9.74-23.67-22.19-23.67-22.19l-2.12,1.49s6.31,24.2,13.06,33.47c4.53,6.22,11.56,9.78,16.09,5.68Z"/>
                <path class="cls-17" d="M52.46,128.25c4.38,5.8,10.92,11.46,16.15,7.38,2.82-2.2,2.18-6,1.9-8.84,1.93,4.83,1.07,8.77-1.42,11.03-4.53,4.11-11.56.55-16.09-5.68-6.75-9.27-13.06-33.47-13.06-33.47l.37-.26c1.42,5.05,6.59,22.5,12.15,29.85Z"/>
              </g>
              <g id="wrist_left" data-name="wrist left">
                <path class="cls-17" d="M36.45,95.04s.08.68-1.54.89c-1.62.22-5.18.45-5.77,1.55-.59,1.1,4.43,1.8,7.66.4,3.23-1.41-.35-2.84-.35-2.84Z"/>
                <path class="cls-17" d="M41.6,96.7s-1.22-1.81-3.26-2.56c-1.42-.52-3.97-2.88-4.23-2.47-.67,1.05,1.46,2.61,2.1,3.57.47.7.38,1.1.39,1.44s4.99.02,4.99.02Z"/>
                <path class="cls-17" d="M29.36,98.01c-1.22-.77-2.88-5.35-4.17-4.58-.38.23.99,2.91,1.78,3.98.79,1.08,3.78,3.39,6.11,3.19,1.36-.12-1.7-1.34-3.72-2.59Z"/>
                <path class="cls-17" d="M28.37,97.79c-.45-.28-1.37-.89-2.16-1.7-1.35-1.41-2.33-3.52-3.05-3.19-.66.31,1.05,3.29,2.08,4.49,1.08,1.24,2.5,1.73,3.4,2,1.89.55,1.73-.34-.28-1.6Z"/>
                <path class="cls-8" d="M42.07,97.17s-1.91-2.45-3.79-1.9-4.97,2.32-6.31,2.29c-1.2-.02-4.63-3.15-5.27-2.58-.85.75,4.07,5.42,6.12,5.66,1.23.15,5.32-.34,8-1.21,2.12-.69,1.25-2.26,1.25-2.26Z"/>
              </g>
            </g>
          </g>
          <g id="body">
            <path class="cls-3" d="M139.24,82.68c-3.95-5.39-38.46-18.47-38.46-18.47,0,0-29.51,7.71-32.97,13.34-1.42,2.32-.1,17.37.43,24.82.53,7.44,3.38,20.83,3.45,28.51.09,8.5-2.4,26.28-2.4,28.22,0,.96,6.57,9.21,28.11,7.84,14.47-.92,27.85-9.96,27.96-12.38.04-.9-5.04-19.41-5.04-19.41l15.41-27.67s4.98-22.62,3.5-24.79Z"/>
            <path class="cls-3" d="M122.9,73.35c-4.29,5.62-17.9,28.18-27.23,90.77-3.88,0-11.82-.46-12.86-.64-7.08-19.69-6.89-91.06-6.89-91.06,10.66-5.23,24.87-8.21,24.87-8.21,0,0,11.18,3.75,22.12,9.14Z"/>
            <path class="cls-26" d="M115.45,156.61l-1.38-16.66s-11.46,0-11.46-1.6,10.77-2.75,10.77-2.75c0,0-5.27-.23-5.5-1.6-.23-1.38,6.19-2.06,6.19-2.06,0,0,12.84-20.96,11.46-31.28-1.38-10.31-16.96-29.34-16.96-29.34l1.12-3.59c10.51,4.27,26.9,11.34,29.55,14.95,1.48,2.17.11,16.1-3.5,24.79-3.61,8.69-15.41,27.67-15.41,27.67,0,0,5.09,18.52,5.04,19.41-.12,2.41-13.5,11.45-27.96,12.38-14.22.91-21.92-2.38-25.51-5,21.72,8.99,43.54-5.32,43.54-5.32Z"/>
            <path class="cls-26" d="M116.99,70.5l-11.55,22.82-6.04-9.98,13.77-15.61c2.18.85,1.13,1.61,3.82,2.77Z"/>
            <path class="cls-26" d="M81.08,70.35l.26-.32c2.13-.84,2.36-1.93,4.42-2.6l2.43,13.39-8.71,8.39,1.61-18.87Z"/>
            <polygon class="cls-17" points="84.94 68.77 92.49 87.15 112.15 70.21 110.66 54.37 87.96 54.41 84.94 68.77"/>
            <polygon class="cls-20" points="88.97 79.21 80.26 87.6 81.08 68.4 85.67 62.76 88.97 79.21"/>
            <polygon class="cls-20" points="117.22 69.89 113.57 64.69 99.4 81.51 105.44 91.49 117.22 69.89"/>
            <g class="cls-32">
              <g>
                <g>
                  <path class="cls-23" d="M75.95,117.27c-1.26-.98-2.49-2.18-3.77-3.53-.06-.07-.18-.09-.25-.05-1.43.85-2.94,1.54-4.41,2.17-.21.09-.19.42.07.48,2.73.54,5.45.97,8.17,1.31.32.04.38-.39.06-.43-2.72-.36-5.45-.8-8.17-1.37.02.16.05.32.07.48,1.47-.64,2.96-1.23,4.42-2.09-.08-.02-.17-.03-.25-.05,1.27,1.35,2.5,2.43,3.76,3.41.24.19.54-.15.3-.34Z"/>
                  <path class="cls-23" d="M75.91,107.11c-1.29,1.09-2.54,2.08-3.86,3,.08.01.16.02.24.04-1.28-1.33-2.49-2.65-3.67-3.9-.06.18-.12.36-.17.54,2.59.28,5.09.61,7.56.95.29.04.31-.62.02-.66-2.45-.33-4.93-.64-7.52-.88-.25-.02-.35.36-.18.54,1.19,1.24,2.42,2.56,3.71,3.89.06.07.18.08.24.04,1.33-.91,2.58-1.89,3.84-2.95.24-.21.04-.81-.21-.6Z"/>
                  <path class="cls-23" d="M90.26,118.48c-1.26-.83-2.44-1.59-3.81-2.84-.07-.06-.18-.07-.25-.02-1.36,1.01-2.9,1.64-4.37,2.29-.21.09-.19.37.07.39,2.73.24,5.45.41,8.17.54.32.02.38-.38.06-.4-2.72-.13-5.45-.31-8.17-.55.02.13.05.26.07.39,1.47-.64,2.97-1.09,4.4-2.12-.08,0-.17-.01-.25-.02,1.3,1.26,2.52,1.86,3.77,2.67.24.16.54-.17.3-.33Z"/>
                  <path class="cls-23" d="M88.82,108.84c-1.07,1.12-2.04,2.14-3.11,3.14.08,0,.16.02.24.03-1.56-1.28-3.05-2.65-4.31-4.11-.03.21-.06.41-.08.61,2.46.34,4.95.67,7.49.96.3.03.18-.63-.11-.66-2.52-.3-4.97-.63-7.41-.97-.23-.03-.27.41-.09.62,1.3,1.43,2.82,2.78,4.38,4.05.08.06.19.07.24.03,1.09-1,2.06-2,3.09-3.09.2-.21-.12-.82-.33-.6Z"/>
                  <g>
                    <g>
                      <path class="cls-23" d="M65.34,106.42c2.17,1.79,4.34,3.89,6.62,6.01,0-.21.01-.42.02-.63-2.38,1.33-5.01,2.39-7.56,3.32.15.13.29.26.44.39.33-2.99.61-6.11.97-9.35.05-.45-.56-.48-.61-.05-.35,3.18-.65,6.22-.98,9.25-.03.24.22.47.44.39,2.55-.96,5.18-1.95,7.59-3.26.2-.11.21-.46.02-.63-2.29-2.12-4.42-4.22-6.58-6-.31-.26-.68.31-.37.57Z"/>
                      <path class="cls-23" d="M71.02,112.81c-2.28-2.13-3.39-3.21-5.59-5.08.06-.09.09-.13.15-.22,2.19,1.87,3.29,2.94,5.58,5.07-.06.09-.08.14-.14.23Z"/>
                      <path class="cls-23" d="M70.17,113.24c-2-1.9-3.01-2.84-4.97-4.53.06-.08.09-.13.15-.21,1.96,1.69,2.96,2.63,4.97,4.52-.06.09-.09.13-.15.22Z"/>
                      <path class="cls-23" d="M69.19,113.7c-1.59-1.53-2.4-2.28-3.98-3.68.06-.08.09-.12.15-.21,1.58,1.4,2.39,2.15,3.99,3.67-.06.09-.09.13-.15.22Z"/>
                      <path class="cls-23" d="M68.2,114.15c-1.28-1.25-1.94-1.86-3.24-3.02.06-.08.09-.12.15-.2,1.3,1.16,1.96,1.77,3.25,3.01-.06.08-.09.13-.16.21Z"/>
                      <path class="cls-23" d="M65.06,112.17c.93.85,1.39,1.29,2.3,2.19-.06.08-.09.12-.16.2"/>
                      <path class="cls-23" d="M66.21,114.91c-.58-.52-.86-.81-1.44-1.36.06-.08.09-.11.15-.19.58.55.86.84,1.44,1.37-.06.07-.09.11-.15.18Z"/>
                    </g>
                    <g>
                      <path class="cls-23" d="M78.64,107.3c-2.17,1.7-4.27,3.18-6.66,4.51-.2.11-.21.45-.02.63,2.29,2.12,4.49,4.12,6.71,5.58.19.12.47.02.5-.17.33-2.42-.11-6.16-.12-10.12,0-.54-.55-.62-.56-.08-.02,3.95.39,7.7.06,10.13.17-.06.33-.12.5-.17-2.22-1.48-4.47-3.63-6.76-5.75,0,.21-.01.42-.02.63,2.41-1.32,4.53-2.77,6.65-4.42.3-.24.03-1.01-.28-.77Z"/>
                      <path class="cls-23" d="M78.64,108.03c2.18,2.25,4.88,4.35,7.45,6.31-.02-.21-.06-.43-.09-.64-2.08,1.52-4.71,2.91-7.26,3.87.15.09.29.18.44.27.33-2.42-.11-6.16-.12-10.12,0-.54-.55-.62-.56-.08-.02,3.95.39,7.7.06,10.13-.03.19.22.35.44.27,2.55-.96,5.24-2.15,7.41-3.68.18-.13.13-.48-.09-.64-2.64-1.96-5.3-4.1-7.39-6.39-.3-.33-.59.37-.28.69Z"/>
                      <g>
                        <path class="cls-23" d="M77.72,116.96c-.1-.01-.15-.02-.25-.03.32-2.44.06-4.64-.03-8.33.09.01.14.02.23.03.1,3.7.37,5.9.05,8.33Z"/>
                        <path class="cls-23" d="M76.73,116.26c-.1-.01-.15-.02-.25-.03.26-2.03.1-3.98,0-6.92.09.01.14.02.23.03.1,2.94.27,4.9.01,6.92Z"/>
                        <path class="cls-23" d="M75.76,115.24c-.1-.02-.15-.02-.25-.04.19-2.08.07-3.08,0-5.22.09.01.14.02.23.03.07,2.14.2,3.14,0,5.23Z"/>
                        <path class="cls-23" d="M74.74,114.34c-.1-.02-.15-.02-.25-.04.09-1.46.05-2.18.02-3.67.09.01.14.02.24.04.03,1.49.07,2.21-.01,3.67Z"/>
                        <path class="cls-23" d="M73.72,113.35c-.1-.02-.15-.02-.25-.04.03-.76.03-1.13.03-1.9.1.02.14.02.24.04,0,.76,0,1.14-.02,1.9Z"/>
                      </g>
                      <path class="cls-23" d="M85.22,114.81c-2.51-1.98-3.95-3.01-6.3-5.2.04-.1.06-.15.1-.26,2.33,2.2,3.77,3.23,6.31,5.21-.04.1-.06.15-.11.24Z"/>
                      <path class="cls-23" d="M84.42,115.33c-2.14-1.78-3.38-2.68-5.54-4.58.04-.1.06-.15.1-.25,2.14,1.91,3.39,2.81,5.56,4.58-.05.1-.07.15-.12.25Z"/>
                      <path class="cls-23" d="M83.48,115.93c-1.63-1.44-2.58-2.17-4.33-3.66.04-.1.06-.15.1-.24,1.76,1.5,2.71,2.22,4.37,3.66-.06.1-.08.15-.14.25Z"/>
                      <path class="cls-23" d="M82.5,116.44c-1.29-.86-1.99-1.7-3.4-2.91.05-.1.07-.15.11-.24,1.42,1.2,2.15,2.11,3.44,2.98-.06.07-.09.1-.15.17Z"/>
                      <path class="cls-23" d="M81.51,116.84c-.92-.61-1.36-1.02-2.33-1.89.05-.1.08-.15.13-.24.97.86,1.42,1.35,2.35,1.96-.06.07-.09.1-.15.17Z"/>
                      <path class="cls-23" d="M80.52,117.23c-.58-.38-.87-.58-1.44-.98.06-.07.09-.1.15-.17.58.4.87.6,1.44.98-.06.07-.09.1-.15.17Z"/>
                    </g>
                  </g>
                </g>
                <g>
                  <path class="cls-23" d="M104.87,118.83c-1.26-.8-2.51-1.7-3.77-2.66-.06-.05-.18-.05-.25,0-1.47.96-2.94,1.8-4.4,2.54-.21.11-.19.38.07.38,2.73.08,5.45.19,8.18.14.32,0,.38-.44.06-.43-2.73.05-5.45-.04-8.18-.12.02.13.05.26.07.38,1.47-.72,2.94-1.53,4.4-2.46-.08,0-.17,0-.25,0,1.26.93,2.51,1.82,3.77,2.6.25.15.54-.22.3-.38Z"/>
                  <path class="cls-23" d="M103.12,109.94c-1.07,1.1-1.93,2.08-2.91,3.04.09,0,.17,0,.26,0-1.82-1.03-3.72-2.16-5.34-3.49,0,.2.02.39.04.58,2.66.22,5.4.4,8.27.41.34,0,.13-.58-.21-.58-2.87-.03-5.6-.23-8.24-.46-.25-.02-.21.39.04.58,1.67,1.28,3.58,2.39,5.36,3.41.09.05.21.05.26,0,1.02-.95,1.88-1.93,2.91-2.99.2-.21-.24-.72-.44-.5Z"/>
                  <path class="cls-23" d="M119.3,118.57c-1.31-.96-2.61-1.88-3.88-2.8-.06-.05-.18-.04-.25.01-1.46,1.03-2.92,2.03-4.38,2.93-.21.13-.18.43.08.43,2.75-.04,5.51-.07,8.27-.09.33,0,.36-.52.04-.52-2.76.03-5.52.09-8.26.14.03.14.05.29.08.43,1.47-.88,2.92-1.86,4.38-2.89-.08,0-.17,0-.25.01,1.27.92,2.57,1.83,3.89,2.79.26.19.54-.26.29-.45Z"/>
                  <path class="cls-23" d="M118.64,109.68c-1.27.98-2.41,1.97-3.59,2.97.09,0,.17,0,.26-.01-1.65-.87-3.52-1.73-5.34-2.72,0,.17.02.34.04.5,2.94-.06,5.92-.16,8.88-.28.35-.01.23-.5-.12-.49-2.99.1-5.98.19-8.94.23-.28,0-.23.36.03.5,1.83.97,3.69,1.82,5.29,2.7.08.04.2.04.26-.01,1.22-1.01,2.36-1.99,3.61-2.97.24-.19-.13-.61-.38-.41Z"/>
                  <g>
                    <g>
                      <path class="cls-23" d="M91.9,109.01c-1.89,1.71-3.52,3.2-5.6,4.72-.18.13-.13.48.09.64,2.58,1.95,4.68,3.39,6.9,4.64.19.11.47,0,.5-.2.33-2.36-.54-5.59-1.38-9.4-.12-.52-.7-.59-.59-.06.81,3.83,1.67,7.08,1.35,9.44.17-.07.33-.13.5-.2-2.22-1.28-4.41-2.88-7.06-4.83.04.21.07.43.09.64,2.17-1.53,3.83-3,5.64-4.65.26-.24-.18-.98-.45-.73Z"/>
                      <path class="cls-23" d="M92.05,109.71c2.72,2.1,6.13,3.77,8.77,5.33-.03-.19-.06-.38-.11-.57-2.06,1.5-4.8,3-7.35,4.1.15.08.29.16.44.24.33-2.36-.54-5.59-1.38-9.4-.12-.52-.7-.59-.59-.06.81,3.83,1.67,7.08,1.35,9.44-.03.19.22.32.44.23,2.55-1.07,5.3-2.45,7.53-3.98.19-.13.13-.43-.11-.56-2.81-1.55-6.22-3.26-8.83-5.44-.38-.31-.54.37-.15.67Z"/>
                      <g>
                        <path class="cls-23" d="M92.34,118.07c-.1,0-.15,0-.25,0,.32-2.39-.17-4.19-1.12-7.75.09,0,.14.01.24.02.97,3.56,1.45,5.35,1.13,7.74Z"/>
                        <path class="cls-23" d="M91.34,117.46c-.1,0-.15,0-.25-.01.26-2-.11-3.6-.92-6.44.1,0,.14.01.24.02.82,2.83,1.19,4.42.93,6.43Z"/>
                        <path class="cls-23" d="M90.36,116.7c-.1,0-.15,0-.25-.01.19-1.54-.17-2.9-.75-4.97.1,0,.14.01.24.02.59,2.07.95,3.42.76,4.96Z"/>
                        <path class="cls-23" d="M89.34,116.02c-.1,0-.15,0-.25-.02.03-1.46-.18-2.14-.56-3.6.1,0,.15.01.24.02.38,1.45.59,2.14.56,3.59Z"/>
                        <path class="cls-23" d="M88.24,115.13c-.1,0-.15-.01-.25-.02-.06-.75-.13-1.13-.29-1.88.1,0,.15.01.25.02.16.75.24,1.12.29,1.88Z"/>
                      </g>
                      <path class="cls-23" d="M99.92,115.53c-2.49-1.6-4.3-2.37-7.22-4.32.02-.1.02-.15.04-.25,2.9,1.97,4.72,2.75,7.29,4.34-.04.09-.07.14-.12.23Z"/>
                      <path class="cls-23" d="M99.09,116.07c-2.04-1.45-3.53-2.14-6.15-3.8.02-.1.03-.14.04-.24,2.62,1.66,4.13,2.36,6.25,3.8-.05.09-.08.14-.14.23Z"/>
                      <path class="cls-23" d="M98.1,116.63c-1.59-1.01-2.54-1.7-4.58-2.96.02-.09.04-.14.06-.23,2.07,1.27,3.09,1.97,4.68,2.99-.06.08-.09.12-.15.21Z"/>
                      <path class="cls-23" d="M97.11,117.15c-1.29-.8-1.9-1.29-3.46-2.3.04-.09.05-.14.09-.24,1.58,1.01,2.23,1.53,3.52,2.34-.06.08-.09.12-.15.2Z"/>
                      <path class="cls-23" d="M96.12,117.65c-.92-.56-1.34-.73-2.31-1.46.06-.1.08-.15.13-.24,1,.73,1.41.95,2.33,1.52-.06.08-.09.11-.15.19Z"/>
                      <path class="cls-23" d="M95.14,118.12c-.58-.34-.87-.52-1.44-.87.06-.07.09-.11.15-.19.58.36.87.53,1.44.88-.06.07-.09.11-.15.18Z"/>
                    </g>
                    <g>
                      <path class="cls-23" d="M106.3,109.8c-2.02,1.67-3.53,3.17-5.6,4.68-.17.13-.11.44.11.57,2.64,1.56,4.56,2.93,6.8,4.18.19.11.47-.04.5-.25.31-2.61-.07-5.61-1.21-8.87-.16-.45-.83-.45-.67,0,1.15,3.29,1.56,6.28,1.25,8.88.17-.08.33-.17.5-.25-2.24-1.27-4.15-2.7-6.96-4.25.05.19.08.38.11.56,2.22-1.53,3.76-3.01,5.71-4.64.28-.23-.26-.84-.55-.6Z"/>
                      <path class="cls-23" d="M106.51,110.4c3.16,1.59,6.42,2.82,8.74,4.26,0-.19,0-.38,0-.56-2.33,1.62-5.02,3.27-7.57,4.64.15.08.29.16.44.23.31-2.61-.07-5.61-1.21-8.87-.16-.45-.83-.45-.67,0,1.15,3.29,1.56,6.28,1.25,8.88-.02.21.22.34.44.23,2.55-1.32,5.16-2.91,7.63-4.56.21-.14.21-.45,0-.56-2.49-1.4-5.83-2.63-8.93-4.29-.45-.24-.58.38-.13.61Z"/>
                      <g>
                        <path class="cls-23" d="M106.65,118.24c-.1,0-.15,0-.25,0,.31-2.62.25-4.14-1.06-7.22.11,0,.16,0,.26,0,1.3,3.07,1.35,4.59,1.04,7.22Z"/>
                        <path class="cls-23" d="M105.65,117.66c-.1,0-.15,0-.25,0,.26-2.21.24-3.46-.87-5.91.1,0,.16,0,.26,0,1.11,2.45,1.12,3.7.86,5.91Z"/>
                        <path class="cls-23" d="M104.67,116.88c-.1,0-.15,0-.25,0,.19-1.72.12-2.64-.69-4.44.1,0,.15,0,.26,0,.81,1.79.88,2.71.69,4.43Z"/>
                        <path class="cls-23" d="M103.67,116.29c-.1,0-.15,0-.25,0,.14-1.27.04-1.9-.5-3.15.1,0,.15,0,.25,0,.53,1.25.63,1.89.49,3.15Z"/>
                        <path class="cls-23" d="M102.66,115.59c-.1,0-.15,0-.25,0,.01-.67-.07-1-.28-1.65.1,0,.15,0,.26,0,.21.65.29.97.28,1.65Z"/>
                      </g>
                      <path class="cls-23" d="M114.27,115.19c-2.23-1.43-3.8-2.06-7-3.52.02-.09.02-.13.04-.23,3.2,1.48,4.88,2.08,7.11,3.52-.06.09-.09.14-.15.23Z"/>
                      <path class="cls-23" d="M113.4,115.75c-1.99-1.26-3.11-1.88-5.86-3.13.02-.09.03-.13.05-.22,2.78,1.26,3.99,1.86,5.97,3.13-.06.09-.09.14-.15.23Z"/>
                      <path class="cls-23" d="M112.41,116.36c-1.6-.99-2.29-1.53-4.31-2.53.03-.09.04-.13.07-.22,2.06.99,2.8,1.53,4.39,2.53-.06.09-.09.13-.15.22Z"/>
                      <path class="cls-23" d="M111.43,116.97c-1.3-.79-1.84-1.21-3.29-2.05.05-.09.07-.14.11-.23,1.49.83,2.02,1.26,3.33,2.05-.06.09-.09.13-.15.22Z"/>
                      <path class="cls-23" d="M110.44,117.56c-.93-.56-1.39-.84-2.31-1.42.06-.09.09-.13.15-.22.92.59,1.38.87,2.31,1.43-.06.09-.09.13-.15.21Z"/>
                      <path class="cls-23" d="M109.46,118.12c-.58-.34-.87-.51-1.45-.86.06-.09.09-.13.15-.21.58.35.87.53,1.45.87-.06.08-.09.12-.15.21Z"/>
                    </g>
                  </g>
                </g>
                <g>
                  <path class="cls-23" d="M134.15,118.59c-1.36-1.24-2.73-2.36-4.06-3.4-.07-.05-.18-.05-.25,0-1.42,1.12-2.83,2.26-4.26,3.33-.21.16-.16.53.11.53,2.77.02,5.55.06,8.32.13.33,0,.34-.64.01-.65-2.77-.04-5.54-.06-8.31-.06.04.18.07.35.11.53,1.43-1.07,2.84-2.2,4.25-3.33-.08,0-.17,0-.25,0,1.33,1.06,2.7,2.2,4.06,3.45.26.24.53-.31.27-.55Z"/>
                  <path class="cls-23" d="M134.35,109.07c-1.45.88-2.85,1.83-4.27,2.84.08,0,.17,0,.25-.01-1.34-.88-2.85-1.68-4.42-2.5-.03.15-.06.29-.08.44,2.92-.13,5.8-.25,8.63-.36.33-.01.35-.46.02-.44-2.85.1-5.75.22-8.7.34-.28.01-.31.32-.08.44,1.57.82,3.05,1.63,4.36,2.53.07.04.18.04.25-.01,1.44-1.02,2.84-1.99,4.28-2.89.28-.17.04-.55-.25-.37Z"/>
                  <path class="cls-23" d="M148.56,119.18c-1.33-1.48-2.71-2.89-4.07-4.15-.07-.06-.18-.07-.25,0-1.38,1.16-2.74,2.43-4.12,3.7-.2.18-.14.65.12.66,2.75.1,5.48.29,8.19.48.32.02.33-.72.01-.74-2.71-.19-5.44-.37-8.2-.44.04.22.08.44.12.66,1.39-1.28,2.75-2.56,4.12-3.74-.08,0-.17,0-.25-.01,1.36,1.29,2.74,2.73,4.07,4.22.26.29.52-.34.26-.62Z"/>
                  <path class="cls-23" d="M148.84,109c-1.47.73-2.94,1.54-4.41,2.49.08,0,.17,0,.25,0-1.26-.94-2.5-1.83-3.77-2.6-.06.13-.12.27-.17.41,2.74-.06,5.45.02,8.18.1.32,0,.38-.4.06-.41-2.72-.08-5.43-.18-8.18-.12-.26,0-.36.29-.17.41,1.27.8,2.51,1.7,3.77,2.66.06.05.18.05.25,0,1.47-.97,2.94-1.81,4.4-2.56.28-.14.08-.5-.2-.36Z"/>
                  <g>
                    <g>
                      <path class="cls-23" d="M122.26,109.42c-2.36,1.5-4.37,3.04-6.71,4.66-.2.14-.2.44,0,.56,2.31,1.44,4.51,2.84,6.85,4.43.2.13.48-.04.49-.29.17-3.2.41-6.34-.08-9.13-.07-.38-.75-.36-.68.03.52,2.8.3,5.93.12,9.1.16-.1.33-.2.49-.3-2.34-1.58-4.41-3.02-6.89-4.42,0,.19,0,.37,0,.56,2.48-1.66,4.51-3.21,6.83-4.71.33-.22-.09-.72-.43-.5Z"/>
                      <path class="cls-23" d="M122.35,109.94c2.85,1.29,5.25,2.53,7.52,4.05.01-.2.03-.4.05-.59-2.54,1.69-4.99,3.49-7.5,5.1.15.1.31.19.46.29.17-3.2.41-6.34-.08-9.13-.07-.38-.75-.36-.68.03.52,2.8.3,5.93.12,9.1-.01.25.25.43.46.29,2.51-1.59,4.96-3.38,7.47-5.1.21-.14.24-.47.05-.59-2.24-1.48-4.8-2.68-7.64-3.98-.41-.19-.66.34-.25.53Z"/>
                      <g>
                        <path class="cls-23" d="M121.37,117.9c-.1,0-.15,0-.25,0,.18-3.05.51-4.62-.09-7.36.11,0,.16,0,.27-.01.58,2.74.25,4.31.07,7.37Z"/>
                        <path class="cls-23" d="M120.33,117.22c-.1,0-.15,0-.25,0,.16-2.46.46-3.74-.05-6,.11,0,.16,0,.26-.01.5,2.25.2,3.53.04,6Z"/>
                        <path class="cls-23" d="M119.32,116.38c-.1,0-.15,0-.25,0,.14-1.82.35-2.77-.02-4.47.1,0,.16,0,.26-.01.35,1.69.15,2.64,0,4.47Z"/>
                        <path class="cls-23" d="M118.29,115.79c-.1,0-.15,0-.25.01.12-1.29.24-1.95.02-3.17.1,0,.15,0,.26-.01.21,1.22.09,1.88-.03,3.17Z"/>
                        <path class="cls-23" d="M117.29,115.12c-.1,0-.15,0-.25.01.07-.67.1-1.01.04-1.66.1,0,.15,0,.25-.01.07.65.03.99-.04,1.66Z"/>
                      </g>
                      <path class="cls-23" d="M128.91,114.54c-2.3-1.55-3.33-2.19-6.1-3.48.04-.09.06-.13.1-.21,2.79,1.29,3.85,1.91,6.15,3.44-.06.1-.09.15-.15.24Z"/>
                      <path class="cls-23" d="M128.06,115.14c-2.06-1.39-2.9-2-5.26-3.17.04-.09.06-.13.11-.22,2.38,1.16,3.24,1.76,5.29,3.14-.06.1-.09.15-.14.25Z"/>
                      <path class="cls-23" d="M127.09,115.81c-1.66-1.12-2.36-1.65-4.08-2.63.05-.09.08-.14.13-.23,1.75.97,2.44,1.49,4.09,2.61-.06.1-.09.15-.14.25Z"/>
                      <path class="cls-23" d="M126.13,116.48c-1.36-.92-2.03-1.34-3.33-2.18.06-.09.09-.14.15-.23,1.29.83,1.96,1.26,3.32,2.17-.06.1-.08.15-.14.25Z"/>
                      <path class="cls-23" d="M125.17,117.14c-.97-.66-1.45-.97-2.4-1.59.06-.09.09-.14.15-.24.94.61,1.42.93,2.39,1.58-.06.1-.08.15-.14.24Z"/>
                      <path class="cls-23" d="M124.21,117.79c-.61-.41-.91-.61-1.51-1.01.06-.09.09-.14.14-.24.6.39.9.59,1.51,1.01-.06.1-.08.14-.14.24Z"/>
                    </g>
                    <g>
                      <path class="cls-23" d="M137.51,108.86c-2.56,1.33-5.04,2.85-7.58,4.54-.21.14-.24.46-.05.59,2.27,1.52,4.7,3.27,7.09,5.32.2.17.48-.04.48-.35.05-3.96.3-7.33.52-9.89.03-.35-.61-.33-.64.02-.2,2.56-.46,5.92-.52,9.85.16-.12.32-.23.48-.35-2.4-2.02-4.81-3.72-7.05-5.21-.02.2-.03.39-.05.59,2.51-1.72,5.05-3.29,7.6-4.66.36-.2.09-.65-.28-.46Z"/>
                      <path class="cls-23" d="M137.47,109.33c2.33,1.22,4.43,2.54,6.76,4.36,0-.22.02-.43.03-.64-2.49,1.68-4.85,3.64-7.29,5.55.16.12.31.25.47.37.05-3.96.3-7.33.52-9.89.03-.35-.61-.33-.64.02-.2,2.56-.46,5.92-.52,9.85,0,.31.26.54.47.38,2.45-1.91,4.81-3.91,7.27-5.63.21-.15.22-.5.03-.64-2.3-1.74-4.41-3.01-6.75-4.2-.34-.17-.7.31-.36.48Z"/>
                      <g>
                        <path class="cls-23" d="M135.89,117.82c-.1,0-.15,0-.25,0,.03-3.69.27-5.33.44-7.94.1,0,.15,0,.25,0-.18,2.61-.41,4.25-.44,7.95Z"/>
                        <path class="cls-23" d="M134.81,116.98c-.1,0-.15,0-.25,0,.03-2.92.25-4.24.38-6.44.1,0,.15,0,.25,0-.14,2.2-.35,3.52-.39,6.45Z"/>
                        <path class="cls-23" d="M133.74,115.97c-.1,0-.15,0-.25,0,.04-2.1.22-3.07.32-4.76.1,0,.15,0,.25-.01-.11,1.69-.28,2.66-.33,4.76Z"/>
                        <path class="cls-23" d="M132.68,115.27c-.1,0-.15,0-.25,0,.05-1.44.16-2.13.26-3.36.1,0,.15,0,.25-.01-.1,1.24-.21,1.92-.26,3.37Z"/>
                        <path class="cls-23" d="M131.64,114.51c-.1,0-.15,0-.25,0,.04-.73.07-1.08.15-1.75.1,0,.15,0,.25-.01-.08.67-.11,1.03-.15,1.75Z"/>
                      </g>
                      <path class="cls-23" d="M143.28,114.23c-2.37-1.86-3.38-2.51-5.68-3.81.06-.08.09-.12.15-.21,2.3,1.29,3.3,1.93,5.66,3.76-.05.1-.08.15-.14.26Z"/>
                      <path class="cls-23" d="M142.45,114.83c-2.11-1.63-3.07-2.3-5.06-3.52.06-.09.09-.13.15-.22,2,1.21,2.94,1.87,5.05,3.47-.05.11-.08.16-.13.27Z"/>
                      <path class="cls-23" d="M141.51,115.56c-1.71-1.34-2.6-1.95-4.14-3,.06-.09.1-.14.16-.23,1.56,1.04,2.41,1.64,4.12,2.96-.05.11-.08.16-.13.27Z"/>
                      <path class="cls-23" d="M140.58,116.3c-1.4-1.11-2.09-1.62-3.44-2.56.06-.1.08-.15.14-.25,1.33.92,2.03,1.42,3.42,2.52-.05.11-.08.17-.13.28Z"/>
                      <path class="cls-23" d="M139.65,117.04c-1-.81-1.5-1.2-2.48-1.92.05-.11.08-.16.14-.26.98.72,1.48,1.09,2.47,1.9-.05.11-.08.17-.13.28Z"/>
                      <path class="cls-23" d="M138.72,117.79c-.62-.52-.94-.77-1.56-1.25.05-.11.08-.16.13-.27.62.48.93.73,1.56,1.24-.05.11-.08.17-.13.28Z"/>
                    </g>
                  </g>
                </g>
                <g>
                  <path class="cls-23" d="M162.98,120.27c-1.27-1.46-2.57-2.93-3.89-4.34-.07-.07-.18-.08-.25-.02-1.4,1.17-2.77,2.42-4.16,3.72-.2.19-.16.68.1.7,2.69.2,5.36.4,8.03.61.31.02.35-.69.04-.72-2.68-.22-5.35-.43-8.04-.63.03.23.07.47.1.7,1.39-1.3,2.77-2.56,4.16-3.76-.08,0-.17-.01-.25-.02,1.32,1.43,2.62,2.91,3.87,4.37.24.28.52-.32.28-.6Z"/>
                  <path class="cls-23" d="M163.45,109.77c-1.47.64-2.94,1.1-4.4,2.15.08,0,.17.01.25.02-1.27-1.28-2.51-1.88-3.77-2.69-.06.12-.12.24-.18.37,2.73.13,5.45.3,8.17.54.32.03.38-.38.06-.41-2.73-.23-5.45-.4-8.17-.53-.26-.01-.36.25-.18.37,1.26.83,2.5,1.58,3.78,2.88.06.06.18.07.25.02,1.45-1.06,2.93-1.69,4.4-2.34.28-.13.08-.5-.2-.37Z"/>
                  <path class="cls-23" d="M177.06,121.4c-1.24-1.22-2.49-2.52-3.76-3.87-.06-.07-.18-.08-.25-.03-1.44.99-2.87,2.07-4.29,3.24-.21.17-.18.62.08.64,2.67.2,5.35.39,8.05.56.32.02.37-.57.06-.59-2.7-.21-5.38-.43-8.05-.65.03.21.05.43.08.64,1.43-1.18,2.86-2.28,4.3-3.28-.08-.01-.17-.02-.25-.03,1.26,1.35,2.51,2.65,3.75,3.86.24.24.54-.26.3-.49Z"/>
                  <path class="cls-23" d="M177.76,111.7c-1.47.64-2.94,1.23-4.41,2.1.08.02.17.03.25.05-1.26-1.36-2.51-2.43-3.77-3.41-.06.13-.12.25-.18.38,2.73.35,5.45.79,8.18,1.35.32.07.38-.42.06-.48-2.73-.53-5.45-.96-8.18-1.3-.26-.03-.36.24-.18.38,1.26.98,2.51,2.18,3.77,3.54.06.07.18.09.25.04,1.46-.87,2.94-1.56,4.4-2.19.28-.12.08-.59-.2-.47Z"/>
                  <g>
                    <g>
                      <path class="cls-23" d="M152.19,109.01c-2.55,1.07-5.14,2.36-7.63,4.04-.21.14-.23.49-.03.64,2.33,1.82,4.78,4.09,7.07,6.45.19.2.46-.02.47-.37.12-4.36.22-8.18.55-10.53.04-.32-.58-.35-.62-.02-.33,2.36-.43,6.15-.54,10.51.16-.12.31-.25.47-.37-2.32-2.34-4.76-4.56-7.06-6.31-.01.21-.02.43-.03.65,2.46-1.73,5.04-3.14,7.59-4.24.36-.16.11-.6-.25-.45Z"/>
                      <path class="cls-23" d="M152.13,109.44c2.22,1.28,4.44,2.86,6.74,5.02,0-.24.02-.48.03-.71-2.48,1.71-4.86,3.6-7.27,5.59.15.14.3.29.45.43.11-4.36.22-8.18.55-10.53.04-.32-.58-.35-.62-.02-.33,2.36-.43,6.15-.54,10.51,0,.35.25.61.45.44,2.43-2.02,4.8-3.94,7.26-5.68.21-.15.23-.53.03-.71-2.29-2.12-4.49-3.5-6.71-4.76-.32-.18-.69.24-.37.42Z"/>
                      <g>
                        <path class="cls-23" d="M150.57,118.43c-.1,0-.15-.01-.25-.02.05-4.14.1-6.12.42-8.55.1,0,.15,0,.25,0-.32,2.42-.36,4.41-.42,8.55Z"/>
                        <path class="cls-23" d="M149.51,117.41c-.1,0-.15,0-.25-.02.02-3.3.07-4.92.33-6.99.1,0,.15,0,.25,0-.26,2.06-.31,3.69-.33,7Z"/>
                        <path class="cls-23" d="M148.45,116.19c-.1,0-.15,0-.25-.01.01-2.37.06-3.58.25-5.19.1,0,.15,0,.25,0-.19,1.61-.24,2.82-.25,5.2Z"/>
                        <path class="cls-23" d="M147.38,115.32c-.1,0-.15,0-.25-.01.02-1.63.04-2.51.17-3.7.1,0,.15,0,.25,0-.14,1.19-.16,2.08-.17,3.71Z"/>
                        <path class="cls-23" d="M146.32,114.39c-.1,0-.15,0-.25,0,.02-.81.03-1.2.08-1.94.1,0,.15,0,.25,0-.05.74-.07,1.13-.08,1.94Z"/>
                      </g>
                      <path class="cls-23" d="M157.92,115c-2.33-2.18-3.46-3.19-5.7-4.54.06-.07.09-.11.15-.18,2.24,1.34,3.36,2.28,5.68,4.45-.06.11-.08.17-.14.28Z"/>
                      <path class="cls-23" d="M157.08,115.62c-2.07-1.95-3.12-3.1-5.1-4.34.06-.08.09-.12.15-.19,1.98,1.24,3.01,2.31,5.08,4.25-.05.11-.08.17-.14.28Z"/>
                      <path class="cls-23" d="M156.14,116.33c-1.66-1.58-2.51-2.35-4.14-3.71.06-.1.09-.15.15-.26,1.62,1.34,2.47,2.11,4.13,3.68-.05.11-.08.17-.14.29Z"/>
                      <path class="cls-23" d="M155.21,117.06c-1.36-1.3-2.05-1.94-3.4-3.11.06-.11.08-.16.14-.27,1.35,1.16,2.04,1.79,3.4,3.08-.05.12-.08.18-.13.29Z"/>
                      <path class="cls-23" d="M154.27,117.8c-.97-.94-1.46-1.41-2.43-2.29.05-.11.08-.17.13-.28.97.88,1.46,1.34,2.43,2.28-.05.12-.08.18-.13.3Z"/>
                      <path class="cls-23" d="M153.34,118.55c-.6-.6-.91-.89-1.52-1.47.05-.12.08-.18.13-.29.61.57.92.87,1.52,1.46-.05.12-.08.18-.13.3Z"/>
                    </g>
                    <g>
                      <path class="cls-23" d="M166.5,109.95c-2.55.96-5.13,2.09-7.6,3.8-.21.14-.23.53-.03.71,2.3,2.16,4.61,4.5,6.81,6.74.19.19.46-.02.48-.34.27-4.1.46-8.2.78-10.63.05-.33-.58-.4-.62-.07-.33,2.42-.51,6.52-.77,10.65.16-.11.32-.23.48-.34-2.21-2.24-4.53-4.56-6.82-6.69-.01.24-.02.47-.03.71,2.46-1.74,5.03-3.09,7.58-4.06.37-.14.11-.62-.25-.48Z"/>
                      <path class="cls-23" d="M166.44,110.39c2.22,1.47,4.45,3.63,6.68,5.78.02-.22.03-.44.05-.66-2.52,1.39-4.99,3.06-7.46,4.92.15.14.29.28.43.42.27-4.1.46-8.2.78-10.63.05-.33-.58-.4-.62-.07-.33,2.42-.51,6.52-.77,10.65-.02.33.22.57.43.41,2.48-1.89,4.94-3.58,7.46-5,.21-.12.24-.47.05-.65-2.23-2.16-4.45-4.13-6.67-5.59-.32-.21-.69.2-.37.41Z"/>
                      <g>
                        <path class="cls-23" d="M164.7,119.55c-.1,0-.15-.01-.24-.02.21-4,.27-6.41.59-8.8.1,0,.15.01.25.02-.32,2.39-.38,4.8-.59,8.8Z"/>
                        <path class="cls-23" d="M163.69,118.54c-.1,0-.15-.01-.25-.02.14-3.25.19-5.35.45-7.33.1,0,.15.01.25.02-.26,1.98-.31,4.08-.46,7.33Z"/>
                        <path class="cls-23" d="M162.68,117.29c-.1,0-.15-.01-.25-.02.09-2.4.13-4.11.32-5.61.1,0,.15.01.25.02-.19,1.5-.23,3.22-.32,5.61Z"/>
                        <path class="cls-23" d="M161.66,116.35c-.1,0-.15-.01-.25-.02.06-1.68.09-2.49.21-4.02.1,0,.15.01.25.02-.12,1.53-.15,2.34-.21,4.02Z"/>
                        <path class="cls-23" d="M160.63,115.32c-.1,0-.15-.01-.25-.02.03-.86.05-1.28.1-2.1.1,0,.15.01.25.02-.05.82-.07,1.24-.1,2.1Z"/>
                      </g>
                      <path class="cls-23" d="M172.16,116.61c-2.25-2.17-3.39-3.65-5.62-5.18.06-.07.09-.1.15-.17,2.24,1.53,3.36,2.94,5.62,5.1-.06.1-.09.15-.15.25Z"/>
                      <path class="cls-23" d="M171.3,117.13c-2-1.93-3.02-2.94-5-4.82.06-.1.09-.15.15-.24,1.98,1.87,3,2.88,5,4.81-.06.1-.09.15-.15.25Z"/>
                      <path class="cls-23" d="M170.33,117.74c-1.6-1.55-2.41-2.35-4.02-3.89.06-.1.09-.15.15-.25,1.61,1.54,2.42,2.34,4.02,3.89-.06.1-.09.16-.15.26Z"/>
                      <path class="cls-23" d="M169.37,118.38c-1.3-1.26-1.96-1.91-3.28-3.18.06-.11.09-.16.14-.26,1.32,1.27,1.98,1.91,3.28,3.17-.06.11-.09.16-.14.27Z"/>
                      <path class="cls-23" d="M168.41,119.04c-.92-.91-1.39-1.37-2.33-2.29.06-.11.09-.16.14-.27.94.92,1.41,1.38,2.33,2.29-.06.11-.09.16-.14.27Z"/>
                      <path class="cls-23" d="M167.46,119.72c-.58-.57-.87-.86-1.45-1.44.06-.11.09-.17.14-.28.59.58.88.87,1.46,1.44-.06.11-.09.17-.15.28Z"/>
                    </g>
                  </g>
                </g>
                <g>
                  <path class="cls-23" d="M181.11,112.28c-2.55.96-5.12,1.91-7.64,3.29-.21.12-.24.47-.05.65,2.23,2.15,4.44,4.21,6.65,5.96.19.15.47-.01.5-.27.33-3.17.66-6.23.99-9.25.05-.42-.58-.56-.62-.15-.33,2.99-.65,6.13-.98,9.36.17-.09.33-.18.5-.26-2.21-1.77-4.42-3.84-6.65-6-.02.22-.04.43-.05.65,2.52-1.41,5.08-2.44,7.63-3.36.37-.13.11-.77-.25-.63Z"/>
                  <g>
                    <path class="cls-23" d="M179.12,120.87c-.1,0-.15-.01-.25-.02.32-3.21.47-4.93.79-7.76.1.02.15.04.25.06-.32,2.84-.47,4.53-.79,7.73Z"/>
                    <path class="cls-23" d="M178.13,120.02c-.1-.01-.15-.02-.25-.03.25-2.67.36-3.98.63-6.5.1.02.15.04.25.06-.27,2.52-.38,3.81-.64,6.47Z"/>
                    <path class="cls-23" d="M177.15,118.94c-.1-.01-.15-.02-.25-.03.18-2.02.27-3.01.46-4.94.1.02.15.03.25.05-.2,1.92-.28,2.91-.46,4.92Z"/>
                    <path class="cls-23" d="M176.15,118.09c-.1-.01-.15-.02-.25-.03.12-1.45.18-2.17.32-3.56.1.02.15.03.25.05-.14,1.39-.2,2.1-.32,3.55Z"/>
                    <path class="cls-23" d="M175.16,117.12c-.1-.02-.15-.02-.25-.04.06-.76.1-1.14.16-1.89.1.02.15.03.25.04-.07.75-.1,1.12-.16,1.88Z"/>
                  </g>
                </g>
              </g>
            </g>
          </g>
          <g id="left_hand-2" data-name="left hand">
            <g id="shoulder_left" data-name="shoulder left">
              <path class="cls-8" d="M134.55,79.41c10.24-.03,25.46,55.82,9.73,59.81-11.83,3-13.63-14.06-15.17-26.79-2.11-17.5-.49-32.99,5.43-33.01Z"/>
            </g>
            <path class="cls-17" d="M139.52,108.49l9.39-.7s5.92,25.2-1.86,30.28-7.53-29.58-7.53-29.58Z"/>
          </g>
          <g>
            <path class="cls-10" d="M162.15,153.73c-1.78-1.4-3.56-2.8-5.34-4.2,0-.04,0-.09,0-.13,0,0-.32-.23-.91-.59,0,0,0,0,0,0,0,0,0,0,0,0-4.73-2.86-29.21-15.1-73.09,3.24,0,2.04.02,4.08.02,6.12,1.81.69,3.62,1.39,5.43,2.08,0-.7,0-1.4,0-2.1,22.78-.04,45.57.21,68.35.74,1.85-1.72,3.7-3.44,5.56-5.16Z"/>
            <path class="cls-16" d="M124.04,196.21c2.23-13.9,4.49-27.8,6.79-41.7-3.98-.05-7.97-.1-11.95-.14-.13,13.93-.26,27.86-.39,41.78,1.85.02,3.71.04,5.56.06Z"/>
            <path class="cls-16" d="M162.21,151.63c.13.08-24.52-18.02-73.96,2.5,0,2.04,0,4.08.01,6.12,24.57-.04,49.15.25,73.71.87.08-3.16.16-6.32.24-9.49Z"/>
          </g>
          <g>
            <g id="Head">
              <circle class="cls-24" cx="113.69" cy="39.18" r="5.09"/>
              <path class="cls-8" d="M80.23,24.39c.16,15.42-3.47,22.03-2.52,26.17,1.85,8.08,10.68,14.57,15.5,15.37,4.18.69,18.88-6.88,20.09-15.42,1.18-8.3.87-33.42-8.63-37.96-16.87-8.06-25.44,3.62-24.44,11.83Z"/>
              <path class="cls-24" d="M108.23,52.95c.85-2.36,3.12-12.13,1.76-21.98-.51-3.69-2.45-3.17-1.53-6.55,4.34-15.87-18.1-14.49-24.52-10.49,12.88-14.74,31.36-6.15,34.7,3.02,2.37,6.52-.34,23.23-4.17,17.21-1.36,3.8.33,10.68-1.16,16.36-2.19,8.34-16.16,16.28-20.09,15.42-3.93-.86-4.95-2.04-4.95-2.04,0,0,3.76,2.09,7.52.95,7.16-2.18,11.62-9.58,12.45-11.88Z"/>
              <path class="cls-25" d="M111.97,36.66c-.56.04-1.14-.04-1.7,0-.16,2.53-1.24,3.55-1.67,6.05-.82,4.81-5.82,8.88-11.49,7.38-5.43-1.44-8.91-.68-13.64.46-2.5.6-5.3-5.08-5.07-5.74-1.19,2.42-1.04,7.76-.1,9.49,2.05,3.77,4.67,7.78,8.33,10.02,3.67,2.24,8.26,3.02,12.35,1.71,2.09-.67,5.62-2.73,7.39-4.02,2.62-1.92,5.17-3.79,6.57-6.72,1.38-2.89,1.65-7.53,1.13-10.69-.52-3.16-.82-4.74-2.09-7.93Z"/>
              <path class="cls-1" d="M109.98,30.97c-.51-3.69-3.49-2.77-2.86-6.21,2.43-13.3-16.76-14.83-23.19-10.82,12.88-14.74,31.36-6.15,34.7,3.02,1.78,4.89.86,16.15-1.67,18.34-1.37-1.5-2.27-.83-2.5-1.13-2.71,0-2.33,2.18-2.85,2.79s-.83.21-1.2,0c-.9-.52.03-2.73-.42-5.98Z"/>
              <path class="cls-4" d="M115.15,39.2c-.09-1.08-1.03-1.88-2.11-1.79-.15.01-.29.05-.43.09.35-.3.79-.5,1.28-.54,1.23-.1,2.31.82,2.42,2.05.1,1.23-.82,2.31-2.05,2.42-.31.03-.61-.01-.89-.11,1.08-.09,1.87-1.04,1.79-2.11Z"/>
            </g>
            <g id="happy">
              <path class="cls-17" d="M90.53,30.44c1.13,1.35,1.84,2.98,1.92,4.66.24,5.2-5.99,9.17-5.42,11.58.31,1.31,6.19,2.17,6.27,2.67.07.49-7.58.25-7.89-2.22-.41-2.74,6.46-8.08,6.21-13.47-.05-1.07-.38-2.14-1.09-3.22Z"/>
              <g>
                <path class="cls-19" d="M101.09,51.86l-17.36.25s4.56,7.57,9.21,7.35c4.65-.21,8.15-7.6,8.15-7.6Z"/>
                <path class="cls-7" d="M101.09,51.86l-17.36.25s4.56,7.57,9.21,7.35c4.65-.21,8.15-7.6,8.15-7.6Z"/>
                <path class="cls-30" d="M95.98,55.46c-4.4.19-6.82,1.87-5.45,2.92.4.31,1.11.55,2.18.67,2.13.14,7.13-3.75,3.27-3.59Z"/>
                <path class="cls-17" d="M100.77,52s1.16.63,1.47.58c.31-.05-1.97-2.09-2.14-1.87-.17.22.67,1.29.67,1.29Z"/>
                <path class="cls-17" d="M84.02,52.39s.72-1.11.7-1.42c-.03-.31-2.23,1.8-2.03,1.99.2.19,1.34-.56,1.34-.56Z"/>
                <path class="cls-3" d="M98.13,52.39l-11.18.29s.53,1.56,5.76,1.22c5.13-.34,5.43-1.51,5.43-1.51Z"/>
              </g>
              <g>
                <path class="cls-29" d="M106.64,29.49s-4.18-2.35-9.7-4.6l.9-2.09s5.05,1.34,9.25,5.92l-.45.77Z"/>
                <path class="cls-29" d="M80.09,28.88s1.93-1.41,7.36-3.86l-.97-2.06s-3.84,1.12-6.98,4.95l.59.97Z"/>
                <g>
                  <path class="cls-5" d="M103.11,35.13s-1.04,3.02-3.83,2.94c-2.2-.06-2.97-3.85-2.97-3.85,0,0,2.87-2.19,6.8.91Z"/>
                  <path class="cls-29" d="M97.23,36.31c.41,1.1,1.57,1.68,2.58,1.3s1.5-1.58,1.09-2.67-1.57-1.68-2.58-1.3-1.5,1.58-1.09,2.67Z"/>
                  <path class="cls-29" d="M103.52,35.44s-2.82-1.79-7.44-1.07l-.58-1.21s4.48-1.22,8.21,1.84l-.18.44Z"/>
                </g>
                <g>
                  <path class="cls-5" d="M87.91,34.42s-.85,2.89-3.43,2.86c-2.77-.02-2.37-3.77-2.37-3.77,0,0,2.05-1.81,5.79.9Z"/>
                  <ellipse class="cls-29" cx="84.19" cy="35.03" rx="1.81" ry="1.96" transform="translate(-7 35.53) rotate(-22.91)"/>
                  <path class="cls-29" d="M88.31,34.69s-2.67-1.55-6.92-.7l-.58-1.1s4.09-1.3,7.65,1.39l-.15.41Z"/>
                </g>
              </g>
            </g>
          </g>
          <path class="cls-26" d="M129.93,76.68l2.68.76c6.73,1.92,12.03,7.13,14.06,13.83l5.61,18.53s-17.95,7.03-28.48,3.32c3.34-19.8-1.78-18.37,2.41-28.32,1.99-4.73,3.72-8.12,3.72-8.12Z"/>
          <g id="right_hand_with_clock" data-name="right hand with clock">
            <g id="forearm_right" data-name="forearm right">
              <path class="cls-8" d="M148.11,129.48c-2.46-5.01-9.99-7.34-21.01-2.1-13.22,6.29-31.38,18.7-31.38,18.7l.96,2.76s28.15.7,40.29-3.72c8.15-2.97,14.19-9.47,11.15-15.65Z"/>
              <path class="cls-17" d="M132.59,144.5c7.64-2.94,15.8-8.25,13.01-15.18-1.51-3.74-5.81-4.23-8.98-4.81,5.83-.59,9.83,1.57,11.49,4.97,3.03,6.18-3.01,12.68-11.15,15.65-12.14,4.42-40.29,3.72-40.29,3.72l-.17-.49c5.9.03,26.4-.13,36.08-3.85Z"/>
            </g>
            <g id="wrist_right_clock" data-name="wrist right clock">
              <g>
                <path class="cls-17" d="M87.84,147.25s-1.74,2.4-1.96,2.93c-.22.53-.27,3.26.04,3.37.59.14.79-.47.88-2.37l1.69-2.43-.64-1.5Z"/>
                <path class="cls-17" d="M89.02,149.66s-.9,2.26-.89,2.55c0,.29,1.02,1.89,1.31,1.83.29-.06,1.53-1.27,1.12-1.57-.19-.14-.3-.9-.62-1.53-.36-.71-.92-1.28-.92-1.28Z"/>
                <path class="cls-17" d="M88.34,148.52s-1.25,3.13-1.24,3.74c0,.57,1.15,2.79,1.48,2.83.61,0,.46-1.04-.4-2.76l1.14-2.51-.98-1.3Z"/>
                <path class="cls-17" d="M89.79,150.73s-.51,1.77-.34,2.1c.17.33,1.48.22,1.72.01.25-.21.58-1.33.42-1.43s-1.81-.68-1.81-.68Z"/>
                <path class="cls-17" d="M90.52,152.1s2.06-.23,6.16-3.26l-.26-.98s-7.57,3.27-5.89,4.25Z"/>
                <path class="cls-8" d="M95.68,146.08s-7.3.5-7.84,1.17,1.81,4.13,2.52,4.2,6.15-3.09,6.15-3.09c0,0,.66-2.21-.83-2.27Z"/>
              </g>
              <g>
                <rect class="cls-18" x="94.71" y="144.4" width="2.82" height="5.83" transform="translate(-45.25 42.64) rotate(-20.36)"/>
                <g>
                  <path class="cls-9" d="M96.33,148.03c-1.52.57-3.12.05-3.56-1.14s.43-2.62,1.96-3.19c1.52-.57,3.12-.05,3.56,1.14.44,1.2-.43,2.62-1.96,3.19Z"/>
                  <path class="cls-18" d="M96.28,147.8c-1.52.57-3.12.05-3.56-1.14s.43-2.62,1.96-3.19c1.52-.57,3.12-.05,3.56,1.14.44,1.2-.43,2.62-1.96,3.19Z"/>
                  <path class="cls-26" d="M96.19,147.55c-1.35.5-2.77.05-3.16-1.01-.39-1.06.38-2.33,1.73-2.83,1.35-.5,2.77-.05,3.16,1.01.39,1.06-.38,2.33-1.73,2.83Z"/>
                  <path class="cls-18" d="M95.57,145.9c-.19.07-.38,0-.44-.14-.05-.15.05-.32.24-.39.19-.07.38,0,.44.14s-.05.32-.24.39Z"/>
                  <g>
                    <rect class="cls-18" x="94.75" y="143.94" width=".29" height=".22" transform="translate(-44.51 42.46) rotate(-20.54)"/>
                    <rect class="cls-18" x="95.92" y="147.04" width=".29" height=".22" transform="translate(-45.53 43.07) rotate(-20.54)"/>
                    <rect class="cls-18" x="97.42" y="144.69" width=".22" height=".29" transform="translate(198.96 2.7) rotate(69.47)"/>
                    <rect class="cls-18" x="93.32" y="146.22" width=".22" height=".29" transform="translate(197.73 7.53) rotate(69.47)"/>
                    <rect class="cls-18" x="97.42" y="144.69" width=".22" height=".29" transform="translate(198.96 2.7) rotate(69.47)"/>
                    <rect class="cls-18" x="93.32" y="146.22" width=".22" height=".29" transform="translate(197.73 7.53) rotate(69.47)"/>
                    <polygon class="cls-18" points="96.12 144 95.85 143.98 95.92 143.75 96.19 143.77 96.12 144"/>
                    <polygon class="cls-18" points="95.05 147.45 94.77 147.44 94.84 147.21 95.12 147.22 95.05 147.45"/>
                    <polygon class="cls-18" points="96.99 144.34 96.79 144.21 96.99 144.02 97.19 144.15 96.99 144.34"/>
                    <polygon class="cls-18" points="93.97 147.19 93.77 147.06 93.97 146.86 94.18 147 93.97 147.19"/>
                    <polygon class="cls-18" points="97.38 145.81 97.45 145.58 97.72 145.59 97.66 145.82 97.38 145.81"/>
                    <polygon class="cls-18" points="93.24 145.61 93.31 145.38 93.59 145.39 93.52 145.63 93.24 145.61"/>
                    <polygon class="cls-18" points="96.81 146.6 97.01 146.4 97.21 146.53 97.01 146.73 96.81 146.6"/>
                    <polygon class="cls-18" points="93.75 144.67 93.95 144.48 94.16 144.61 93.96 144.8 93.75 144.67"/>
                  </g>
                  <path class="cls-18" d="M95.64,145.42s.97-.4,1.06-.32c.08.08-1.03.55-1.03.55l-.02-.23Z"/>
                  <path class="cls-18" d="M95.37,145.71s-1.24-.65-1.23-.76c0-.11,1.39.6,1.39.6l-.16.16Z"/>
                  <path class="cls-21" d="M96.39,143.57c-.5-.1-1.07-.06-1.63.15-1.35.5-2.13,1.77-1.73,2.83.22.61.79,1,1.47,1.15l1.89-4.12Z"/>
                </g>
                <rect class="cls-9" x="95.56" y="149.12" width="2.82" height=".96" transform="translate(-45.99 43.08) rotate(-20.36)"/>
                <rect class="cls-9" x="95.28" y="148.72" width="2.82" height=".26" transform="translate(-45.74 42.94) rotate(-20.36)"/>
                <rect class="cls-9" x="95.12" y="148.3" width="2.82" height=".26" transform="translate(-45.61 42.85) rotate(-20.36)"/>
              </g>
            </g>
          </g>
          <g class="cls-34">
            <g>
              <path class="cls-22" d="M114.32,47.27c-1.71-.58-2.77-1.94-3.42-3.37-.92-2.03-1.18-4.36-.34-6.6s3.67-4.92,7.86-5.32c1.09-.1,2.54,1.07,2.89,1.94.65,1.62-.64,4.05-.35,5.77.33,2,1.84,3.75.59,5.71-1.04,1.64-5.46,2.47-7.23,1.87Z"/>
              <path class="cls-13" d="M118.61,46.59c-1.07-.11-2.04-.58-2.94-1.07-1.42-.76-2.1-2.21-2.4-3.61-.45-2.09-.61-4.41.57-6.33,1.61-2.61,4.9-3.29,6.1-3.48.82-.12,1.66-.13,2.47,0,.54.08,1.09.22,1.5.52.56.39.83,1,1.04,1.59.7,1.95,1.06,4,.87,6.05-.16,1.72-.69,3.57-1.79,5.08-1.09,1.49-3.67,1.43-5.41,1.25Z"/>
              <path class="cls-13" d="M124,45.31c.04-.05.07-.1.11-.15-.65-.55-1.39-1.03-2.05-1.59-2.39-2.04-3.39-4.93-4.31-7.7-.05,1.29-.32,2.58-.8,3.82-.32.81-.86,1.71-1.85,1.91-.95.19-1.43-.47-2.05-.77.05.36.12.71.2,1.06.31,1.4.98,2.85,2.4,3.61.9.49,1.86.95,2.94,1.07,1.74.18,4.32.24,5.41-1.25Z"/>
              <path class="cls-27" d="M121.8,28.31c-.46-.21-1.03-.07-1.54.07-.09.03-.2.06-.26.12-.06.06-.07.14-.08.22-.09.48-.41.91-.76,1.3-1.33,1.52-3.06,2.84-3.95,4.56-.6,1.17-.78,2.46-.75,3.72.08,2.65,1.12,5.29,3.21,7.22.78.71,1.93,1.14,3.15,1.15,1.22,0,2.84-.89,3.64-1.65.98-.93,1.57-2.73,1.63-3.96.4-7.5-3.32-8.98-3.63-11.72-.06-.51-.14-.8-.67-1.04ZM121.97,30.16c.16.52.55.96.62,1.24.01.06.02.12-.03.16-.07.07-.2.03-.3,0-.33-.12-.69-.2-1.05-.24-.82-.08-1.65.05-2.47.2-.29-.11.18-.33.34-.46.31-.26.59-.56.84-.87.23-.3.37-.66.61-.95.17-.2.44-.37.74-.28.43.13.55.73.7,1.18Z"/>
              <path class="cls-11" d="M115.15,36.58c-.32,2.3.21,4.67,1.49,6.68.58.91,1.34,1.77,2.39,2.3,1.05.54,2.43.7,3.56.24,1.25-.52,1.94-1.68,2.31-2.8.69-2.09.56-4.29.14-6.4-.27-1.35-.69-2.75-1.8-3.73-1.29-1.14-3.21-1.15-4.91-.61-2.03.64-2.95,2.66-3.18,4.31Z"/>
              <path class="cls-13" d="M118.68,39.69c-.42-.89-.63-1.87-.43-2.83.14-.7.53-1.4,1.24-1.81.7-.41,1.75-.42,2.31.1-1.12.14-2.02.95-2.37,1.86-.35.9-.24,1.88.03,2.79.31,1.06.91,1.83,1.61,2.72-1.13-.6-1.91-1.81-2.39-2.82Z"/>
              <path class="cls-11" d="M123.24,27.98c.46-.98.5-2.06.42-3.11-.3-3.9-2.07-7.6-3.96-11.15-1.3-2.44-2.69-4.88-4.76-6.9-3.7-3.62-9.53-5.57-15.14-5.07-4.62.41-8.47.54-16.96,6.53-3.63,2.56-6.75,7.46-7.65,11.4-.9,3.94-.8,7.98-.69,11.98.03,1.1.1,2.3.95,3.12,1.41,1.36,4.23.82,5.57-.59,1.34-1.41.74-2.77.96-4.58.44-3.61.65-7.78,1.09-11.38.41-3.36,2.05-6.96,4.75-9.44,1.29-1.18,2.97-1.99,4.66-2.71,2.13-.91,4.41-1.71,6.78-1.71,2.9,0,5.67,1.21,7.8,2.89,2.13,1.68,3.71,3.8,5.16,5.94,2.42,3.56,4.91,7.72,4.86,11.95-.02,1.58-.83,3,.76,4.19,1.92,1.43,4.5.55,5.39-1.35Z"/>
              <path class="cls-13" d="M100.69,4.47c-1.47-.46-5.28-.76-6.85-.59-1.95.22-8.61,1.16-11.11,4.82-2.34,3.43-6.58,12.4-6.95,16.35-.32,3.44-.5,7.04,1.13,10.2.06.11.11.21.18.32,1.37.16,2.95-.39,3.87-1.35,1.34-1.41.74-2.77.96-4.58.44-3.61.65-7.78,1.09-11.38.41-3.36,2.05-6.96,4.75-9.44,1.29-1.18,2.97-1.99,4.66-2.71,2.13-.91,4.41-1.71,6.78-1.71.48,0,1.01.01,1.48.07Z"/>
              <path class="cls-13" d="M108.95,3.06c4.39,2.24,8.14,7.98,10.47,12.74,1.57,3.21,2.77,6.91,1.15,10.11-.47.93-1.45,1.88-2.62,1.7-.48-.07-.84-.3-1.1-.62-.07.83.05,1.59.97,2.28,1.92,1.43,4.5.55,5.39-1.35.46-.98.5-2.06.42-3.11-.3-3.9-2.07-7.6-3.96-11.15-1.3-2.44-2.69-4.88-4.76-6.9-1.57-1.53-3.79-2.83-5.95-3.7Z"/>
              <path class="cls-12" d="M105.11,4.09c2.14.44,3.72,1.95,5.02,3.46,1.28,1.5,2.42,3.09,3.42,4.74.38-.03.65-.37.68-.7s-.14-.64-.31-.94c-1.24-2.12-3.16-3.89-5.05-5.62-.74-.67-1.48-1.36-2.4-1.84-.6-.32-2.87-1.14-3.48-.41-.7.86,1.52,1.18,2.12,1.3Z"/>
            </g>
          </g>
        </g>
      </g>
    </g>
  </g>
</svg>